<mxfile host="app.diagrams.net" modified="2024-05-22T04:48:47.108Z" agent="Mozilla/5.0 (Macintosh; Intel Mac OS X 10_15_7) AppleWebKit/537.36 (KHTML, like Gecko) Chrome/124.0.0.0 Safari/537.36" etag="NhmW-PtxQcPcLAcHN0TB" version="24.4.4" type="google">
  <diagram id="C5RBs43oDa-KdzZeNtuy" name="Page-1">
    <mxGraphModel grid="0" page="1" gridSize="10" guides="1" tooltips="1" connect="1" arrows="1" fold="1" pageScale="1" pageWidth="1169" pageHeight="827" math="0" shadow="0">
      <root>
        <mxCell id="WIyWlLk6GJQsqaUBKTNV-0" />
        <mxCell id="WIyWlLk6GJQsqaUBKTNV-1" parent="WIyWlLk6GJQsqaUBKTNV-0" />
        <mxCell id="oBGHY0djsaFG6xdfQ89g-3" value="" style="edgeStyle=orthogonalEdgeStyle;rounded=0;orthogonalLoop=1;jettySize=auto;html=1;fontFamily=Comic Sans MS;" edge="1" parent="WIyWlLk6GJQsqaUBKTNV-1" source="oBGHY0djsaFG6xdfQ89g-0" target="oBGHY0djsaFG6xdfQ89g-1">
          <mxGeometry relative="1" as="geometry" />
        </mxCell>
        <mxCell id="oBGHY0djsaFG6xdfQ89g-4" value="" style="edgeStyle=orthogonalEdgeStyle;rounded=0;orthogonalLoop=1;jettySize=auto;html=1;sketch=1;curveFitting=1;jiggle=2;flowAnimation=0;shadow=1;fontFamily=Comic Sans MS;" edge="1" parent="WIyWlLk6GJQsqaUBKTNV-1" source="oBGHY0djsaFG6xdfQ89g-0" target="oBGHY0djsaFG6xdfQ89g-1">
          <mxGeometry relative="1" as="geometry" />
        </mxCell>
        <mxCell id="oBGHY0djsaFG6xdfQ89g-0" value="&lt;font&gt;start&lt;/font&gt;" style="ellipse;whiteSpace=wrap;html=1;aspect=fixed;sketch=1;curveFitting=1;jiggle=2;shadow=1;fontFamily=Comic Sans MS;" vertex="1" parent="WIyWlLk6GJQsqaUBKTNV-1">
          <mxGeometry x="-1010" y="-460" width="40" height="40" as="geometry" />
        </mxCell>
        <mxCell id="oBGHY0djsaFG6xdfQ89g-11" value="" style="edgeStyle=orthogonalEdgeStyle;rounded=0;orthogonalLoop=1;jettySize=auto;html=1;sketch=1;curveFitting=1;jiggle=2;shadow=1;fontFamily=Comic Sans MS;" edge="1" parent="WIyWlLk6GJQsqaUBKTNV-1" source="oBGHY0djsaFG6xdfQ89g-1" target="oBGHY0djsaFG6xdfQ89g-10">
          <mxGeometry relative="1" as="geometry" />
        </mxCell>
        <mxCell id="oBGHY0djsaFG6xdfQ89g-15" value="" style="edgeStyle=orthogonalEdgeStyle;rounded=0;orthogonalLoop=1;jettySize=auto;html=1;sketch=1;curveFitting=1;jiggle=2;shadow=1;fontFamily=Comic Sans MS;" edge="1" parent="WIyWlLk6GJQsqaUBKTNV-1" source="oBGHY0djsaFG6xdfQ89g-1" target="oBGHY0djsaFG6xdfQ89g-14">
          <mxGeometry relative="1" as="geometry" />
        </mxCell>
        <mxCell id="oBGHY0djsaFG6xdfQ89g-1" value="prep.py" style="shape=process;whiteSpace=wrap;html=1;backgroundOutline=1;sketch=1;curveFitting=1;jiggle=2;fillColor=#d5e8d4;strokeColor=#82b366;shadow=1;fontFamily=Comic Sans MS;" vertex="1" parent="WIyWlLk6GJQsqaUBKTNV-1">
          <mxGeometry x="-873" y="-470" width="95" height="60" as="geometry" />
        </mxCell>
        <mxCell id="oBGHY0djsaFG6xdfQ89g-2" value="&lt;font&gt;src/&lt;/font&gt;&lt;div&gt;&lt;font&gt;scripts_prep.py&lt;/font&gt;&lt;/div&gt;" style="shape=process;whiteSpace=wrap;html=1;backgroundOutline=1;fillColor=#e1d5e7;strokeColor=#9673a6;sketch=1;curveFitting=1;jiggle=2;rounded=0;glass=0;shadow=1;fontFamily=Comic Sans MS;" vertex="1" parent="WIyWlLk6GJQsqaUBKTNV-1">
          <mxGeometry x="-1010" y="-550" width="110" height="50" as="geometry" />
        </mxCell>
        <mxCell id="oBGHY0djsaFG6xdfQ89g-5" value="" style="endArrow=classic;startArrow=classic;html=1;rounded=0;exitX=0.466;exitY=1.076;exitDx=0;exitDy=0;exitPerimeter=0;entryX=0;entryY=0.201;entryDx=0;entryDy=0;sketch=1;curveFitting=1;jiggle=2;shadow=1;entryPerimeter=0;fontFamily=Comic Sans MS;" edge="1" parent="WIyWlLk6GJQsqaUBKTNV-1" source="oBGHY0djsaFG6xdfQ89g-2" target="oBGHY0djsaFG6xdfQ89g-1">
          <mxGeometry width="50" height="50" relative="1" as="geometry">
            <mxPoint x="-840" y="-440" as="sourcePoint" />
            <mxPoint x="-790" y="-490" as="targetPoint" />
            <Array as="points">
              <mxPoint x="-960" y="-458" />
            </Array>
          </mxGeometry>
        </mxCell>
        <mxCell id="oBGHY0djsaFG6xdfQ89g-9" value="" style="edgeStyle=orthogonalEdgeStyle;rounded=0;orthogonalLoop=1;jettySize=auto;html=1;sketch=1;curveFitting=1;jiggle=2;shadow=1;fontFamily=Comic Sans MS;" edge="1" parent="WIyWlLk6GJQsqaUBKTNV-1" source="oBGHY0djsaFG6xdfQ89g-6" target="oBGHY0djsaFG6xdfQ89g-1">
          <mxGeometry relative="1" as="geometry" />
        </mxCell>
        <mxCell id="oBGHY0djsaFG6xdfQ89g-6" value="data/raw" style="shape=dataStorage;whiteSpace=wrap;html=1;fixedSize=1;fillColor=#fff2cc;strokeColor=#d6b656;sketch=1;curveFitting=1;jiggle=2;shadow=1;fontFamily=Comic Sans MS;align=center;size=10;" vertex="1" parent="WIyWlLk6GJQsqaUBKTNV-1">
          <mxGeometry x="-870" y="-560" width="90" height="60" as="geometry" />
        </mxCell>
        <mxCell id="oBGHY0djsaFG6xdfQ89g-8" value="" style="edgeStyle=orthogonalEdgeStyle;rounded=0;orthogonalLoop=1;jettySize=auto;html=1;sketch=1;curveFitting=1;jiggle=2;shadow=1;fontFamily=Comic Sans MS;" edge="1" parent="WIyWlLk6GJQsqaUBKTNV-1" source="oBGHY0djsaFG6xdfQ89g-7" target="oBGHY0djsaFG6xdfQ89g-6">
          <mxGeometry relative="1" as="geometry" />
        </mxCell>
        <mxCell id="oBGHY0djsaFG6xdfQ89g-7" value="Bakery_Sales.csv&lt;div style=&quot;font-size: 8px;&quot;&gt;TempTotal.csv&lt;/div&gt;" style="strokeWidth=2;html=1;shape=mxgraph.flowchart.multi-document;whiteSpace=wrap;sketch=1;curveFitting=1;jiggle=2;shadow=1;fontFamily=Comic Sans MS;fontSize=8;fillColor=#eeeeee;strokeColor=#36393d;" vertex="1" parent="WIyWlLk6GJQsqaUBKTNV-1">
          <mxGeometry x="-879" y="-652" width="110" height="60" as="geometry" />
        </mxCell>
        <mxCell id="oBGHY0djsaFG6xdfQ89g-13" value="" style="edgeStyle=orthogonalEdgeStyle;rounded=0;orthogonalLoop=1;jettySize=auto;html=1;shadow=1;sketch=1;curveFitting=1;jiggle=2;fontFamily=Comic Sans MS;" edge="1" parent="WIyWlLk6GJQsqaUBKTNV-1" source="oBGHY0djsaFG6xdfQ89g-10" target="oBGHY0djsaFG6xdfQ89g-12">
          <mxGeometry relative="1" as="geometry" />
        </mxCell>
        <mxCell id="oBGHY0djsaFG6xdfQ89g-10" value="data/prep" style="shape=dataStorage;whiteSpace=wrap;html=1;fixedSize=1;fillColor=#fff2cc;strokeColor=#d6b656;sketch=1;curveFitting=1;jiggle=2;shadow=1;fontFamily=Comic Sans MS;align=center;size=10;" vertex="1" parent="WIyWlLk6GJQsqaUBKTNV-1">
          <mxGeometry x="-870" y="-380" width="90" height="60" as="geometry" />
        </mxCell>
        <mxCell id="R7oF_i8hs5CMr6rJJXsL-3" style="edgeStyle=orthogonalEdgeStyle;rounded=0;orthogonalLoop=1;jettySize=auto;html=1;sketch=1;curveFitting=1;jiggle=2;shadow=1;fontFamily=Comic Sans MS;" edge="1" parent="WIyWlLk6GJQsqaUBKTNV-1" source="oBGHY0djsaFG6xdfQ89g-12">
          <mxGeometry relative="1" as="geometry">
            <mxPoint x="-690" y="-410" as="targetPoint" />
          </mxGeometry>
        </mxCell>
        <mxCell id="oBGHY0djsaFG6xdfQ89g-12" value="data_bakery_prep.csv" style="strokeWidth=2;html=1;shape=mxgraph.flowchart.multi-document;whiteSpace=wrap;sketch=1;curveFitting=1;jiggle=2;shadow=1;fontFamily=Comic Sans MS;fontSize=8;fillColor=#eeeeee;strokeColor=#36393d;" vertex="1" parent="WIyWlLk6GJQsqaUBKTNV-1">
          <mxGeometry x="-879" y="-290" width="110" height="60" as="geometry" />
        </mxCell>
        <mxCell id="R7oF_i8hs5CMr6rJJXsL-6" value="" style="edgeStyle=orthogonalEdgeStyle;rounded=0;orthogonalLoop=1;jettySize=auto;html=1;fontFamily=Comic Sans MS;" edge="1" parent="WIyWlLk6GJQsqaUBKTNV-1" source="oBGHY0djsaFG6xdfQ89g-14">
          <mxGeometry relative="1" as="geometry">
            <mxPoint x="-590" y="-440" as="targetPoint" />
          </mxGeometry>
        </mxCell>
        <mxCell id="R7oF_i8hs5CMr6rJJXsL-7" value="" style="edgeStyle=orthogonalEdgeStyle;rounded=0;orthogonalLoop=1;jettySize=auto;html=1;sketch=1;curveFitting=1;jiggle=2;shadow=1;fontFamily=Comic Sans MS;" edge="1" parent="WIyWlLk6GJQsqaUBKTNV-1" source="oBGHY0djsaFG6xdfQ89g-14">
          <mxGeometry relative="1" as="geometry">
            <mxPoint x="-590" y="-440" as="targetPoint" />
          </mxGeometry>
        </mxCell>
        <mxCell id="oBGHY0djsaFG6xdfQ89g-14" value="aws_s3.py" style="shape=process;whiteSpace=wrap;html=1;backgroundOutline=1;sketch=1;curveFitting=1;jiggle=2;fillColor=#d5e8d4;strokeColor=#82b366;shadow=1;fontFamily=Comic Sans MS;" vertex="1" parent="WIyWlLk6GJQsqaUBKTNV-1">
          <mxGeometry x="-740" y="-470" width="95" height="60" as="geometry" />
        </mxCell>
        <mxCell id="oBGHY0djsaFG6xdfQ89g-17" value="" style="edgeStyle=orthogonalEdgeStyle;rounded=0;orthogonalLoop=1;jettySize=auto;html=1;sketch=1;curveFitting=1;jiggle=2;shadow=1;fontFamily=Comic Sans MS;" edge="1" parent="WIyWlLk6GJQsqaUBKTNV-1" source="oBGHY0djsaFG6xdfQ89g-16" target="oBGHY0djsaFG6xdfQ89g-14">
          <mxGeometry relative="1" as="geometry" />
        </mxCell>
        <mxCell id="R7oF_i8hs5CMr6rJJXsL-0" value="LOCAL" style="swimlane;whiteSpace=wrap;html=1;fontFamily=Comic Sans MS;fillColor=#d5e8d4;strokeColor=#82b366;" vertex="1" parent="WIyWlLk6GJQsqaUBKTNV-1">
          <mxGeometry x="-1020" y="-680" width="390" height="460" as="geometry">
            <mxRectangle x="-1020" y="-680" width="74" height="26" as="alternateBounds" />
          </mxGeometry>
        </mxCell>
        <mxCell id="oBGHY0djsaFG6xdfQ89g-16" value="config.yaml" style="strokeWidth=2;html=1;shape=mxgraph.flowchart.document2;whiteSpace=wrap;size=0.25;fontFamily=Comic Sans MS;fontSize=9;sketch=1;curveFitting=1;jiggle=2;shadow=1;fillColor=#eeeeee;strokeColor=#36393d;" vertex="1" parent="R7oF_i8hs5CMr6rJJXsL-0">
          <mxGeometry x="297.5" y="135" width="60" height="40" as="geometry" />
        </mxCell>
        <mxCell id="fAT1gj4aSR1Pwk1sE-pQ-2" value="" style="shape=image;verticalLabelPosition=bottom;labelBackgroundColor=default;verticalAlign=top;aspect=fixed;imageAspect=0;image=data:image/png,iVBORw0KGgoAAAANSUhEUgAAALQAAACBCAYAAABpepAsAAAAAXNSR0IArs4c6QAAAARnQU1BAACxjwv8YQUAAAAJcEhZcwAADsMAAA7DAcdvqGQAABnvSURBVHhe7Z0JfFTVvcd/s6/ZQ0JCCKtBKCJgFVzAtu4L1dIn7tW68FQEl7661deKtlalLlRt9Vm1ij6rrQgoLl18olVBBQSV1SQEkpCNZCaZ/c69887/5gaSzJ3JLHcSGM73wyH3njtzZ+ae3/3f//+suggDCoFAQNnicA4drFarsgXolb8cTlbABc3JKrigOVkFFzQnq+CC5mQVXNCcrCLlajtRlOD1BuByeRESBCWXowUmoxF2uwU5uTZYzCbodDrliHZIUoSVdxCdnT54WDkeDJhNJuTnO+BwWGEwJG5re1fbJS3okBDGurVbsfqdDdixfS9cHVzQWmOUBW3CiIoizJ49EWee/l0MG5anHE2fmpomrHxrLdauq4Vrn4sZpqByZGiRBV3gQNWEMpxz1nTMmDmR5RmVo7FJWdCbNtdg/k1/xs5NtQhLgMHC7iLtjQdHQRLZf2ERdqsZDzx0ES69+FQm9tS9RLfbi4cfW4FnnvoXvH4BEbMeaZwuMzA1ikFJ/l7jJozAn56ej6OnjFUOqpO0oEMhAa/+9d9YvPgv2LvPB4vJoBzhDAYRSULQJ+KKn8zG4nsuQklJ8tZ6584G3HHn83j3va9hZo/0Q8EOBQURJflWpruLcdG8WTAz90uNpAQdZr7y0sffxEMPrkSQWQu9gZvkoYAKKRQK49zTpmLp0qsxfHhB94EEWL9hB2644Sls+7YFBubOHEpIYgQWowG33X4eblo4B0YV3zqppu+/vv5vLHnwTYTY84+LeeigK282G/HmPzZh0U3PI8yMSyLsqmvGXXe+hO01bYecmAnSHGmPNEhaHIi4gt69uxXPPvMPBCNC3EibrAdP2qVYUAlYzQZ8/PEWrFj5CXo9XFURWAD//PPvY+0XNdDrDzZnOXFIe6RB0iJpMh4xfyVdrH+zC7f563q2py5mkVmJMPOvw+w0OoORJ42SfF2ZGKUYgvUGglixYr0c5MVjT/0+rHp7PTtnbDGLFN3TbaRjr1GSjolfr2dl3itvUFLcW1ona/HTtduYNpUsFWL60KIo4sqfPoZVq7+EQSUIDIUi+P6sCbji8u/Bmedkvs0B0YfCEfiCEUiHROhx8CEEQli39mv8jQXivoDQLa5ekNCdOQ6sXn47jp4ySsmNZvkbn+CKa/4Ao4ndKEpeD1ToerMZBWPGw15U2OcJTEGov6MDIZ9fyRkcJKa5kGsfBK/6jSqyIPH8OdPx3LOLYDAc0GRCQaGL3f2Tp92MLm8Ihn7uhsQCxR/MPgrP/uk6FBTkKLkH6PSF0d7F66bTgRoW/vLS3/Hgg28wAZMV7YsQDOGZp67HRRfOUnKiWbDwSby4bC1M1miDJBrNGD3zONiKSpiC+5o8SRDQubcJYfYZg01EDMNTvxuCz6PkHEBk3zPHYcbXGx9Dfp5DyU0wKGxr64SrrStKzISJve2WW85UFTNZjyCLxjnpQS15554/GxMnjGBPOrVnrA7fftugbEcjMiu7YeMuVsLRRUzHikeUqIqZEEOhIREzQS6XddgwZa8vpEXSJGkzFjEF3dzcoWxFYzZLOOaYKmWvH+z6iJHom4CTHPTgdDptmMhcCqqDjkYHt8utbEcTCoZRvdsFqFRsCMzgO8orlL1oxDAZJLWbaHAw2sj6xpRmXG3GfFdY/lHq6HQS7DaLssfJJPl57HEqB2790bHs+FV3fhbnxEKnZ26IinU+GNCxAFHFMdhPPG3Gvg04nEMQLmhOVsEFzYmJGAoi2NEKoW2vZink6ZDjg0zBBc1RRXDtQ2f1dngaG9DV2qpJ6mxpQVddHTz1dYiIiTXdJwsXNCcKMRiAhwmQ7Ci1GmoFNd7Q+QRPJwLudpajvaXmguZEQdV21HCTOSIQfV65RVJruKA50ZDhzHCNnuxyZMCX5oLmRKE36NMaGTMwOhjtju66cI3hguZEYbBYYCksgsiERzUSWiezzQZLXj451conagcXNCcKspy24lLkVY6GtbgYlvwCzZJzRAXsI0ZBbz7QoUhLuKA5qpDbYXbkwFEyAs7ySs2SJa8IepNZ+RTt4YLmZBVc0JysgguaExMx6Ie/pRHBxlpNkr+5HmF//GFj6cIFzYkmEkGgvQ3umm/ha2uFx9WpSfLt2wd37bfw7qmGFM7MiCYuaE4U4WAA3tYWthXpbq7WOAU9HoSo6ZvdOFrDBc2JQgqLEIXMDqOjgbC86ZvDGQAuaE4UeqMBhgRm/UwVHZOd2enUtCdfD1zQnCiMFiscw0oQzlDTt9HhgDmvkDd9cwYJJjRrYTGKxo6HvXgYnPm5miR7URHyxoxHTuVYebqCTMAFzYmJwWKDraQclvIxmiRbaYUyRUHm4ILmZBVc0Jysgguak1VwQXOyCi5oTlbBBc3JKrigOVkFFzQnq+CC5mQVXNCcrIILmpNVcEFzsgouaE56UJdQSczYXHXJwgXNSRkSctDVBu/eenjqd8HX1ixPxTuUcEFzUibUuhe+5iaEOl3yuoKBthZ4GnbLC2gOFVzQnJQIB3zw7GuTR6DQoKruRPl++Nua5O2hIOZKsms+3Ixzzr0fZnv0pHpmnYgVb9yl7PVFYmejVWQzPGj4sOH1v32AFX9dB7PDpOR0IwRFXHPV8Xj04RuUnL74/SGUjGHHJAGmfksrB8ISjjh5VvfCmyoE3G54WmiR+NhDpIKdbczNqActwdYfs9kA57jvKHup0bHta3azRI8KD/kCWP3WXTh59hQlJ8GlkeMJmkafF+SyfFJvPyhH6ncBOakTZMIU5Ed432s61IIWfJ3o3FWjIugILDk5cFSMVfZTY1AFTchvihXVZmDw4+FKrCuZjqAlZpHKpk9D/ujxqnNjJCJoKvv27d+wv31vNpITjRtMZ6gV1Zh07NhCW90ZvRhI0Cn70PQT1GbFkVPPcZ7STukgdoVgVDmJXq9Hw4bN2LdjKyK0Kisrs6Rh78kdNRYGs1UuczqnPK/0sBIYrXblRckSQdjXxSz/Tnk7FXhQmNXEFoVBH0Hbtm3Y+/VmCB43E2XyUjDa7MipHIOcigo4y8rlbXvx8JRuEHpS+Pe1wle/W148P1W4oLMYg8MMMZZXSP8xEXXurkPt/32ErsY6OT9ZaPJyo7MAxtxCWeCpiFkMBeBt2A1/azPCaVb5pSxouk5qiXMQwXzngcqEBBCRQmhYvxFde+oyMptRPOQpe/fUIuTpZF8kfQWl9O3pHjLm5qomQ04uTHa7vPAMT+mnTKwU1R+yqTopjD3r16N+w7pucaXtwcdHEgUEXDS9bjVCabgY/UmpliMk6DDhzFOUvf7o0NXcDME/tE2g2UKovRX+jg5l7wDp1HLEQ2RysDrssBWz4M6ey4pTe2FLoSBzL5oQ7HQrOYmTkVoOHTPRJkeOaiI/iiJfnrRJRmPmJk1Uw8AELPj8zP1gPm279i1+1MLo3lXNxOxScrRFe4dJAz+IM/TQg9vX3AJv8x5m5INKbupExDACHS1w1+yUtzPl0gxuBMBJGiGcXtSvTgSW/DyKGeNC9cvB9nZ46+sQ6qLF5lODeuB5mxrhZ64onXMg0ln2LaagCwuZ/xSDiJE9lrw+ZY+TSWLXyUZgNlmU7eQIihEUVVWhaNIkhCMD2TRW1iy28jY0IOBuVvISh6rkuupq5B55vcI1Vaipm1xWZ0Ul20vNgscRNPOHY/hvZqOErqY9yl5fqNrHZFNvLuckB3XJFHsF6n2RUFpaqGwnB+nKYLag8IiJGH3CsSzA7J4HOh503NuwF4KnTckZGFoYqKuuFpLsYgyEDjlFRcgZNU5uaUzEkqsRU9D5+U4cdXQlxLD6Ohj7qmvhYs694PXIbe/7kyTBIM/9q4xk4CnpRAIQfF0ItDarioGkZ7WYMHXquO6MVGACpbJylFZg3Gmz4Bg+nJ03vrWm1sSQO/Fl2QRvl+Ivx4duLseIETCXjkxZyD3ErLaTpAgW3/sKHnv8bdXlCehNeoMBOrsTRrOZRcfd+QRdKEkIsb/x73qOOhGx+/rFsmzUuWjykeV4admtGD1Kvcdcsr3tyM917d6Fpo2bYbL27araG6rJoibuRPC3NbPUIt88apD0bDk5MA8rk1cNYGpWjmSgtx3xyadbcPnlv0e7x88eCOndORzt8IdE3HL9WVh8zzyYYqyFkkr3UR0zUF2Nu9G6/gsWjKo/mbUSNMnOWlAIR9lIJacvqQo67jNm+rTxmPuj40j1Sg5nqJGY9Z5SVYorr5wdU8ypQi5jTnklio7+LsIxBK0NLKB1OGEvKVP2tSOuoK1WM2688RzMOGYUwqFEHHtOJhEFCUFvBHfffQGqjqhQcrWFRC1bVObWHIrEjwIYo0aV4uWXfo4Tjx+DcFC7NndOclBwbrMasXLlrTjn7GOVXE5/BhQ0QXXSJOrLLjkRNqNRDvrIB+KOSGaRrzEF2MxoTp8yAq+9ejNOPXWq3Jmeo07coLA/Pn8Qa9Zsxoo3PsMXG6tRXdMq14YcrOhYMGQwqvdWo+9NSwAfrFANUUFBLmYeOxonnDQJP547EyMrhilHByadMYWd9fWoX/spjOZoH12boDACk90JZ8WomMu7ZaSWIxZedtL6+jY0NnagpcUFryf9tn6toR+19rPtWL7i86gnCf3kKRNH4sJ5J8hxwsGGzW5GjtOO8vJCVI4qQnFRnnIkcbigGYkK+lCAftYLL32ART9/Af0vGV2o884+Bo//fj5ycmxKbnZxuAo6a52xCPVBEGPXnYep4ULiNTfZBo8uOFkFFzQnq+CC5mQVWStoGu8cr7pWr6dghN/P2UZGazncnjB2Vdcoe4ML/ay33tmER5a+reQcgI7NmlmF22+fA6fjQIQ8mOTn58mtsJmCV9sxtBK0IITxt9c/wtVXPc32hq5PAHV7NdmoK2R0bUeYfccwK/ShZO6Fx+PxR69FQb5TydEOLmiGFoKmFrg331qHm295Di5PMO0O29kKXXZJEHHZpSfit7+5Arm5qc4Hpw6vh9YIfyCId9/biHa3n4s5DnRt9CYD1q39FnvqaaZPjhZoLmh6lDc3R0+MwlFDB7c7CK83e1pohxrNBW21WjDxSPVRCJx+sEdxSYkjIz704YrmgjabTTj33ONQUVYIISDKQ3kE5lfz1C8FRRggYO7cGRg5MvFedIMCuYqHqLuYkVoOUZTwzTd1+M39r+CrrY1ygMI5AA0uLi/NwcIF5+Kcs4+DIwNVh+kEhZ69jWj4fJ3qKFJbfj5sZTRvxsBkZW87EneID9+KwmIxQd9PaFoSCAqYduzNqN/rgan3kHxGwC+i6vTvwVpQrOT0xd/ehqYvNyDk8fYRNU1jkDfuCBbMJjbBTVYKmjN0/GrxS/jdw+/AbDftFyZVq5psTow99RQmJvXBD7TGimvPHvja2xEJeOQ8AxOxtYgmNY89o1Z/sqLajnPwcO3VZ+HM06ch5A0i6A0jyFwNkzMfFTOPjSnmHmiejNzh5bLoKDnKRyYl5qGCCzqLqagowrJlC7FyxW245trjUTH9GIz9/smw5BUorxgAFhgaTFY5DcbE61rABZ3l2G0WnHrKNFx302XQDR85oGU+1OGCPkwg3/NwgAuasx+y3vpBXjFAazSr5aAedrW1LfLaLNu218PdyeePTgSaPGbsmHLMmHEkjpo8KmODdjdtbcaFv/0Y+dZul0MSBEihgDwjlq/DBSkcgBjwIRIREQ6I8rzUNDWywdrtQ+sNRuiY2JNZJeuQrbbz+YJ49dWPcP8Db6CpheYPVu+yyVGDLj8rOPbvuvmnYOHCOaisVG/wSAcS9Lz7P4JTCsDf0gR3UxtErxt+txcSFZWeBYDsr1qpUUcqmvLWYLPD5HDIPe70xtgzlPZwyAr6jRWf4oZFz8LnD8Fg4F5MquhZQc/78bF48MGrkePU1lJvq3PjhHlPQN/aCMnHRCxJKc3ARI0rekt3nbQlt0jJVeeQrIdubXPjkkv/CK9f4GJOE4nZx2Uvf4jlyz+BFCWC1CDhVlc3Yv4Vv0Fo21ZZzESq04mRyMSAH576PfDu/rZ7cscYmCxmZjGVnX7oaEarDPQXSUuBe5vacellD8FkjsDYr3mVkxp6iw3X3fg8PljzlZKTOrTg0Ntvf4Gz5zyIDRsbYbZpF/CRpQ54vOjaUysLXA2DPQdG5qKQRe4N1WmbnLlJ+eOJkvIZPR4/lix5A599XgejJbvrNgcTWifQbNbj7rtfwvYd6uvYJMqHH36N2+9Yhqa2Dk3F3AP51mG/D57GPSyIjJ4OjtwJ+/BymHNpKrPudVxIzPbSMphzuvO0JiUfmt7y4ssfYQHzm83m2F+KZs7kxCeWlaLahh/POQaPPDI/peFZVNM0c+ZtEE2mqN52/SEBBEKsrELMfZAUOTD30WJl/nKCbiRV9+WNrVL3iZleesksIcs8qEHhjp0NuPiS36F61z7VH0yntFM3w+HaR+vZhOTxwNXQyLaiBUeFEgxIWHL/xVhww1ndmQnS3OLC+XPvx1dbm2A2qYunx0cvKXBieGkeSssK8Z1JpXA6LPAFwmhscmPH1nZ0ul1oYNtefwBGI33PGDcHO5+1oAC20gpNXIlBE3QbCwIvvewRrP28Wh5V3R86md5kxciZM2Erih8FH+7QmtcNGz6Hp6mJ+X7RQqGecUX5Nry8bBFmzpik5MaH2gMeW7oKDy1ZCTFG0BUOisjJdeKaq2bhtFOn4KjJY2C3W+WgPiBI6OgSIIgRhAUBXZ0BbFy/A//6+xdYteoLZon1rNzVBUsNM84RlXK1XroMiqApyLhu4Z/wyv9+BGsMn0xgBVM26UgUjJsg+1ic+IQ8Xahbtw4Rb5eS0xcq1JICB9579x6MHj3wPB472dPz8p8sxfbqZmYpo6+/EBRwzHfH4Mml12H8uFK5X3YP1G+92R2G2ON2MHrKMOAPYvOmWtzxs6fQ1uGDgQk7mgjzl/PhKK9Mu+wzXm1HHfVfe20N3ln1eUwxUxVRcVkpCsYcQTtylQ5P8ZPJwR75kyawwjsgot5QbcKeNi8WLXoBbnd33+R4rPnwG2zZ2qAqZiksYfZJVVi1/C7mXlT0ETN9ujek6yNmgr4XJYvVjBNnTcZjT97InhrOGNWKOgSZi0KtkENFwhb6yy9rMP8//4Cdu1rki6xGxGxF8fgJMFpTW7L3sIVpz1Vbg2A7TWegbtnMzB34xZ3n4/rrzmG+bOxape+d/kts2FCr+prS4hz8z9PX46QTJrEyVDIVQszVaO0Msaew+o3Vmxef+yceefR1qLvKzJdm8ZO9bJSynzxkmTu2bWFb6hb6vXd/iRPZb+ghaZfD3enFBRctwafrqmEyqV9MWkbZXlEJo42PYE4FKkRP/S4IzAVREzUdz3fa8JdXbsWM4yYouX2pqW3GlGm3ygtn9j+D4Bdx882n4b/vvoQFin2fsKQAtycEt7977Zx40I3g8QSwYP7DWL9xN9NDtKppXsH8qsmyT50KtIouLamsBgn6y42PMnfpwJJwSbsc9963DB9/uD2mmOlXmopLuJjTgJ569pJyGNhTTg063ury47QfLok56Pj9DzYyN4baG6PRs+jmqp+eESXmHoJhEvbA1plekpfnxLXXnwuJ+eNqUDAr+DuVveSgpZQDreoT74jsw/PZU6a4OPbImQEt9KZN1TjjjHsQQuy7zWCxwFYyXL7onPQIulwIdcaeqCfkC+H22+YwS3uxknOAW//rD3j66U9gcfQVrcDciUmTyvDr+y6Hrp+PTFCWyzewmHsjiQKuvfJx9jSg9/W9heQ1xMtHwFqgPj1DJCzIDTH9byCJxRQh1z4IXvX1xEVBxPlzpuO5ZxfB0Mv6J+Vy3Pvr17Dk0dXMOqvd973gYtYOlej+ABFMGFOKf/7rXjjsfa35Aw+9gvvue5MJuv9CSBHmEpogsDLSadTYpdfRcnNMOv1ESZCgnSMrYcktVHIOEOpyIbhvH8Sgf38bzn4iPf1CorVGLzUxT+DxpVdh3gWzyCnYT1Iux96GDub8J3ARqBB40ibFRSdXn5If259pU6vY/2qdhXQIh5lPIYTkR7oWiRYCVRNzD0ZzdG9BqnenTk2Cv7u3X/TvJpXGMpwRTJlcgeNnHtlHzP0ZUNC5zF8JJ167xxkEqAHEygK//syefRTy83Nj+sI9ctEqqUGfbWQWkybPsRoifZLU1U6v6H5hEtA5rXoTblhwBior488yNaDL8enaLfjR+Q8wH5qL+mAgzAKxKy4/WV6STo3fP7ESi+9dDkmviym6TEGLhdosZvxy8UXIL4oeWf7Cn/+Bjz/aojShJwa5NRajAbfdfh5uWjgHRpWuFkn50EF2AW9c+AReefUzmG28fnkooSZrvdmAr9b/DiMr1Gc9aml1Y8ENz+DtdzbC4hx4VImWCEEJt932Q9z58x+p1oP/8em38LNbX4Y1JzEdBVkQWFZkx69+dREuvOAked5ENZKuhybmzP011qzZBj37ovF8GE5miAgs0MqxYvWqO3H0lLFKrjrUtffa65/Eu6s3QtQbEWNQiGaIfh1sVhF3/GIuFi44T9WKEm63F1VVP4Mv4IHRFqPWjKlRZDcGtawfOX0cnn3i6gFns01J0J1dPrzw4vt4//2v4Gr3ssCEz1c3WOQ4rThy4khcddUPMPk7o5lBScyivLl6HVavXo9dNc3weLVfvpq+R26uDUdPHYV5/3Eipk4drxyJTV1dC5Y8vBxbvqmPmvPQbDIhv8CBqgllOOes6Zgxc2LMevPepCRogirMOzu97E7zcUEPIrTud2GhE6YECrc3VLLBkACXyyNbba3Ry4K2o6AgJ6nhd/5ACG3MNaLv1htZ0PkOOaBM5nwpC5rDORjpLejEbwMO5xCAC5qTVXBBc7II4P8BiBfEAlX43cUAAAAASUVORK5CYII=;fontStyle=1" vertex="1" parent="R7oF_i8hs5CMr6rJJXsL-0">
          <mxGeometry x="220" width="27.91" height="20" as="geometry" />
        </mxCell>
        <mxCell id="R7oF_i8hs5CMr6rJJXsL-1" value="Amazon Web Services" style="swimlane;whiteSpace=wrap;html=1;sketch=1;curveFitting=1;jiggle=2;shadow=1;fontFamily=Comic Sans MS;fillColor=#dae8fc;strokeColor=#6c8ebf;" vertex="1" parent="WIyWlLk6GJQsqaUBKTNV-1">
          <mxGeometry x="-630" y="-680" width="420" height="460" as="geometry" />
        </mxCell>
        <mxCell id="nKe8PpNvJb5CXvGMDtpj-3" value="" style="edgeStyle=orthogonalEdgeStyle;rounded=0;orthogonalLoop=1;jettySize=auto;html=1;sketch=1;curveFitting=1;jiggle=2;shadow=1;fontFamily=Comic Sans MS;" edge="1" parent="R7oF_i8hs5CMr6rJJXsL-1" source="nKe8PpNvJb5CXvGMDtpj-0" target="nKe8PpNvJb5CXvGMDtpj-2">
          <mxGeometry relative="1" as="geometry" />
        </mxCell>
        <mxCell id="nKe8PpNvJb5CXvGMDtpj-11" value="" style="edgeStyle=orthogonalEdgeStyle;rounded=0;orthogonalLoop=1;jettySize=auto;html=1;fontFamily=Comic Sans MS;sketch=1;curveFitting=1;jiggle=2;shadow=1;" edge="1" parent="R7oF_i8hs5CMr6rJJXsL-1" source="nKe8PpNvJb5CXvGMDtpj-0" target="nKe8PpNvJb5CXvGMDtpj-8">
          <mxGeometry relative="1" as="geometry" />
        </mxCell>
        <mxCell id="nKe8PpNvJb5CXvGMDtpj-0" value="smartbakery" style="shape=image;verticalLabelPosition=bottom;labelBackgroundColor=default;verticalAlign=top;aspect=fixed;imageAspect=0;image=data:image/png,iVBORw0KGgoAAAANSUhEUgAAAJcAAACiCAYAAABMKF9nAAAAAXNSR0IArs4c6QAAAARnQU1BAACxjwv8YQUAAAAJcEhZcwAADsMAAA7DAcdvqGQAAGHHSURBVHhe7b0JuGzHVR76d+/dc5/5nHvuPGu40rUka7YtWZZtyca2MAkQDAFMAglJSPIlL4HkkUfwixO/AF94fuElJiEkECCAH7Yhjg3IYEuy8SRZs6zxztMZ7plPz7273/+v2run061r+94ryeasc6r33jWuWrVq1Vq1q2rH7vnFq5qxWAyDQCFx+90IsQH+EUT5duYfizXDu5eBKD6v7rZ/OR3ZdoH8Xy6sH0RoCdeXpUcY5q796+KiDM5D0Ipj/zE0mxEC7rk3j974LweD69BELN4I77vh5eocQXfdeR3QlK3wt//bq0PmCgvtKKMVyX43wiCmU4qukDAfAcnYeu6M1WT5UTTzt/vw2lkJRmoFdeTbC4OCBvqH11b+HeCew98wA13EEO382v7uJrz2QCv3jnDdRlU07wgHK0Q3+qGf8+woU8CH8LkX8yh+tzdxDu+ijFw0ldFJaAf9aNzyC6N3ReFDxHTxZlO9RvHCv6gHdYB8+rnB0BNqBTgX3W7IwAJ0DYPsPvLTte36eHU5QV9/uQFAMpAwdtf9x4SOJt0u8leQBYcgerqbAS6CDr/O7HXp8uOPKyO8tp5Dp0j8NxeCixPGU0AUHvlZmxPPyFnFFWEjuLp3Q6vurT+XOoppfgyPh8+bsAmXHDaZaxMuG2wy1yZcNthkrk24bNBmrm6NrL/rgX5R5AT9/OUMTBnc6N97H0Gn/8WA5cOffk6B4aXLRdB5f3HQW0LkOqHt70Laz87jZZ57/TrvWxA9O2chncFdEBooLwNGvz4Qe+uH3DyXi+Bitc3t0IqIuWmKlr97sPt+II7tNYsjGOQfgZVBF8WK2DB6jnCw8jtr1eHfitMD5ts/yJIPSOZA4eFNK15D5bvnzjKFVvuxHd/F6cC5A1ycdh79ICojihtZctFzb717418I+sW3ecmw/Xuht7xe2BwWN+GywSZzbcJlg03m2oTLBpvMtQmXDTaZaxMuG8Tu/jdXmckhy6O/teDConv5t6yEWOAuiht5RWF9QCHf8MvuHmjj1o7VRNBK1cYpCo+sMj7bf8e1H7jgjSD/AUkicOHMOYqnomVk9fr3QHedInx7gEEbcI4ewyRROe24ercXeUXl249B53OEg7UxbzfGjwqJLu7G0oXt3wtRnpRcShxmsOG+G1ovZb9F2JjjNw5903Z4tm91RxdeovuO275OMMj/G4Pe2P1Th/304mAQcqFfK+ibLevl4ne95P7G+GBzWNyEywabzLUJlw02mWsTLhtsMtcmXDaIS8F0SmZoYeiupdjJTxHCx/Amsh4tqMuFq1rNRWlDZwmAoOHeU+lar9db8YJmAw3pjPEYbcAGao066k1ZIw14TOgxXMjGeEXkYnHDqKFf6Zgey5eJEqMPLZmGHHPTPbR23GNchls5tGi0VrLZZO4Nnx51utoG12wwDyYX2s0GceVDk3GbDIusIoUFAetA11Ac/anbhrg0GMHRTPF1r8z4LLSJkFyTdQkYHKj2epdn1hjxEtKuGCsv7jF+XCUQ3xCUs/ulv+Xr7tt+vPQ8G93tPsSnN7zzvuM5ci1/a3PnWAlz8hfE7vrgwfBW4MzQiGgbITJTXRxHMAcuTRQu4riwKC+70ks0V0ilUjGapdJpu3qJDKq1Kmr1Kkg/JHwSVTHZMHEygMtYqXkN8xTDiEkbxoR8JGPG4nH4Kl8NKsYQ8aIG1328DD+eQCKWRsqn89L2nElNM1uV2Q0BGanWKLIc4lYrE8cy6kGZz2Q+v2M9Ou/iLFv1jKeyRMa3coOgYaQQXh7zD8h1ccUhgzACw2t0Afx0gs8Jevlh/Dp8r2KdI6h7TCOmUloFar8BGTkQ8708tOlvv3bfD6LwjfEdI/WGC9T+G+Lr3150M+yVZC7d+XHPercKV3xd6yRugAJSyRTDMxQicZDPrEfX/QZKXpH9N44EmcBnb07QxUjscvUMG8z1/EaNleE14SWwY+h6TA3vw+jIGCanJjA2NoF8PkcGymLC28VS2dBsyBhz1Z+eqz4b0ojSA5J4bGgncSjJKDGaZGbNsa2WAtRrNRSKRayurGB5eRnr6+s4uvB5zK09j0pQZSymJS3qTEuWwFD6SvpVKKUK5CV2pFSNHYu0WNzCTkVZ6q+TActokKFiyJEJWVdfHY4SlvQmr5KphCexp6S+ELTpb7923w+i8I3xv02YS/Eb9YCNnJYHmUpDkcM8lkqY5ArqNSTZQ1MJNjuvQZBENciRGSpkgRKlWIHXMkuq4tb9/wwTo+PYMbUT2yd3YMvoNDJxxjVWbENnbTw2LOtNoC+Z0cZIgc/7ENdOkFCUkFIQ+djAotGVYzUnUcJ0qp85SSUWUm4WsbC+gPMrc5hbnsfiyhk8d+q3Ua6xK5UZXqcKEKO0iiXhZU4bKZrNPNNSmlsHYuFydQ2tZELPo0RPMTxBOgkf9sALQJv+9mv3/SAK3xj/24S5hKV6nYhUp76l4SGZSJJ2AaqxLCWThgQOE9US7wOMDeUxPjSCyfQYxvI7sWPiEHZNXYetYwcpAUZCJpMUIjs1OKSpSI2QkjRxMlEEZFKHWIzDJMsQ6wkd/iiJHEe4/mB1jJyAdbNb/qjhI2+7URm8VpK8csjSxfi3SmeIMTSFUn0VS4WzOLfwEs4uHMXCyjnM1itkvjnMkwGrzTVKtIBSLCA9KM0beTKSdDwN88y/yYwpeRErM8+Xhzb97dfu+0EUvjH+t9GwSK3B9CD1eCEgJhPU2MMnhrdiz9ZrsHf6OuyavBbbJw5i68g0xtLDyplSSyW0sqYYYoOpHhpmlZ+cnl2Ryl5qTQuULEiSWPzjIEenPyVpUlYIs40gBlSGDvsoY3dH/neZCugRVtXho4LlhKxFphN+ZG6lsSjhVaPcYmwJK0VJuTNYWD2KU+efxJGTj2KewyyS4/D8MplNkkpSjExK3cy/sMrVQX/7tft+EIVvjP/tIrkITQ6LNTJUgpQplUpIplK45tA1+J6rfxLbxnZiPDuKrJ9BUo0g84l6lpRjA5eFXZV7p6tR8Q4oAWPUQ8QosjAjcJZpDdVqDYurs6jyvswhuEQJWa5VUKNuVKwtMIWI0g0anpJxStVEgkN1CqkUcaNu6BH/rZndbGDPniWBIxCzCiuxrhuipT/JR39V3kv7EtuKO8MyazQC9MwOE7AXlUinUqWOU8Xj+OK5P8EzX/8y5inpkmkP6VSO6oKU+37doRva9Ldfu+8HUfjG+BfBXG/+VwesFToT9QMX3mYuQY26QJpE9Wil1WVFNUokDglHJVx6BBppki7BhhA52fhBCRmvhqHGKF6/8za85fr34oqdb2QeI0gaUmHGRnShJUuLw10ga5GPpCX1dlSIuym2suKYb4XlFmormFk8g/PLszhbOIm59XNsjFPUdU6Qcc5TYFRofTGbaq5V1846e9R9ZCQY0L8VQkJJ3+kHtaBIpiVCHKJy6QlMUu+bmJjG9vR+TGd3YevkdkrjLch5I7RKc0h6KXaqjGZMyLAsU1U0x8p4VWO3VkXp1KgBcRI1pGPOLD2PLzzxP/H4yc9jNZjBapJ5cehssKPEggQ75SjzzNAgoLTjUCyxGFA505DssTm8hI9ayVnErur8sX976A9heL/4Jlx6w/Ub3l8UcwWSQGQuCgY6DnV+go7WICsqy8f31qg/rSFGxXVyeDd2TF+Ba3a/EzddeQe2Z6dFT/Z4zWctItkYYe2lrDpgx7VpE+ncZeog6+UlKsdnsLR+GudXz2C9tIRzy0extLaMuYVZDilLbAgqvSnKihiVYja4bDpJD+UjxGPsBF5DwzA93L/z1zX6jSrYuoo86okbwVenYVBTSJp0kj5HKRtbo1+RUprlsXPkEzmMj0xidGgMW0d3YTg3hamh3RjN78JYdjtyyVHk/SFawiEWViQzlgSglRiwAoGsYRZT9+tYqS7i+Cwl2kufxCw70NLaKXa6VTQ8Gj00TDTIe+QmScx6TUaT/oVrncwoXKPquQIjCvSFMLxf/MvKXF5TvYrSJUEhT/96rUGCUwJQ0tTKy0hT4dy/5SrcduhdOLz7TuzeegUJmKd136BaS7Fulhp1MEpAESUgJoHHnkbdYrE8hxNnX8LxuedxevlFDmcLWFiawxrzrTcqtMho0HPY1PDkccjSpGWN+WrISzOMPMba+ySqT6JKz1PDs+kpOUMadNVZUwsd8r8Vpqvmr/qBNRzDFSeMbtAgE7N1zdq1ESIgm1PUxpi/9EYJKp8SPU9dUgw3nB/FtvSVtHr3Yv+uK6hn7iR9SKd6WK74Q7xmQod5ceis0XquJwKcWjiJF888jqdPPIAjc09SvlXYwTjEeqwz08jFWXdNvaiRGnFnBDh8+WP/Hcj3QhjeL/5lZa5mlY1H8VNpFkB1BDlKsfJakZZXHdvHDuPO170Pd1z3Ng4RE0hW8uxHhATFFZVTDm5kyyQJPoIqH9czi1gqzuLrRx7FF5/8M7xw8jEaRSXEmW+JYj/JAvxEhuUnyCjsyeSFJK1CzZHVKf5FROlmmqjUMC1GaRAPCR5ZpR4lqiSXCa5OYoT10RwWf91DR7ibuOzPXL7PYZ9Dpk2psNGVRnzY1PSCOo/JC5VPxiIimlQtNarEJYGk8OFfQ3N87FwpMr1HyzCFEYynd+LKna/HjYffiL1j+5GjJBJuyqtRpZUtPVTUrHGsSxdRia1jlXV99uRzePCRP8SJ+UdR4tAYyzA4l7JpC5rjyPhZlAJnRXfWX3gMhDC8X/zLylwJZFCm+GebqxujuRZgN8X+W296H9508zsxltiKeC0BdjDTyxGfZbxpFMkIAemy3lihKf4sXjr2GD758K9xyFviEEmWy+aYZ5Y6DeUiG8RXY5ErGlTYJQo8IhGn4lJeL7GBqXBL75NSQfxsNp76HmUhW0ITl9RHjHFoypMYsfgQ7xXVSKIk+iehxJ2Rvy5hRcNLPzAdjUyjuHo7EM14NCnBmxTDNhPvVBzqp2RCMhFSHP41oSrGp5SOUfHyOJKSZ1gHTRCzDjXiW6+alBtLTOPG/W/DLTfegfH8bgzFtiEvXbbA+HkOvTQESozu5aUElKlCeHjs+fvxla//Lzx79ik08nVkh5IUBJR2ZZbvqSEcnlY5+3+5SrrwfvEvK3Op10rfjlO8jCW24dY9d+KdN70XB7cesF6o9hJxG42ypYuRHVfKZbww+3W8uPQUHj/2RTx39BEOhwWk0pRilDp6RyXJpIEjZrP5DfY89XbN0Ifl2ww5TQT2RFVQTCPgQGB4ylpTP5fUkq3GwUmsZlAzRnMQ1ZkxrazwwZ7tluEqR+8S+4Hm6+ydGsG9YtINh15JL3aEOhXHmBiG1mSccYV3ECyZ5InFKJKlFzY4bMsq9kgjcpNe7+j9qXt/GfBZVjOlNVWIHRP78Lo9t+PQ9A3YM34FRjITZq160vNIa2trMmvQLGKuOIMvH30AX3jhMzi7fJzqQIzS0WeY60Su6lbZVn37QhjeL/43zFxRQC94rGyChKmwN3p+ysb9SoUSg3qWDCUUqriBFf6rd/4krt5xE7IJDSMU8cqc4WrkBhOdXZnFMyeewsPH/xjHz72AudVTpltJXyLbGAFNcVMiayZJBIdoiCBzCu/CSjUpKsImtTCrgaUROymCSxyzt8jmQ1wco+ipq0Pxvv3MayuIGURSTWD+Lly3jq9dZCuB//be0JhShUucaV7KPWui2EW2hBZfqSX5JKU1vLvqSRJqKFcNJbFdkka5idHsKPXX3dg28nrceuht2DdytXiTjKaMaEGbZEyiTil1/PwRfO6JT+DJM/ej4s9TGLBDVEdoZLHbeQUnyBo5S2McGiFkd62b6C4E99Si16DwNnMNABJWw1CMeoKYSXNTYyNDWF1dQjY+gjdfey9+9N6/g7HYNNKJNMmgYciN85qNWCyfwv0P/xEefOLTWKNVuBZQnofQkhytRnUwyL8XxMCDoEWYfqD62KUdR1Ki9RyGG8jPcZADPYfxBuE3wNuVGYnQXlC24W03tKVuL+RSPuKlLG4+8BZ8950/jGF/J61z2ohkSA2vYkapFsvxU3h6/vP48H//EHJbE0jFR9mm1E/jJQ7HtCDjEXMRDA+HyYXoP8jQicDbc/f4B8L7vqDhok7iNiipbL6EVojerjRKAe674T78+H3/ApnKNLJJDSsFKueaCvBt3unBZ/8Uv/z7H8RDL/wxipklMtYSBbiUUwcR8r2VGOTfC5JPg+CbZS5yUPs5DDfoxUHPod8g/AZ4h2W6+w1A/wG5DfCnWkbFq5lexbGFh/GZL3+chlUVE+O7OdLkaTBQJy2uIZVp2sqPRGwKd1BlOXLsOQ7DyxyJFuAnM1SVJVn1ailkFMPDlXgh+l8o/ILMJWpQKKNKxLVCIEEdIV3N4K+944fw43f/cyRqGaTt7TzjUbQXgxV87rk/wG/+2S/hD77w37CSOI9EngxFxTMXn2Re7fdhEXK9SA7y74W/7MyVjG9DQWvIUhzbsg18/aWv4MWTD3JoLWB4ZAxD+VEEtCgb1RSH0jEMJyaRzmZx6vQTqMfXsVYIkE4PU72oUDgbduG/K/FC9L9Q+AWZy5bHMA/NK9nylkIC33Xze/H9d/0I0msTtALrqCeKKJOxzhbm8Ruf/Hf45GMfxbHCCcSHWQB1sCSRSGtOq1pF0PGGOEKuF8lB/r3wl15yNcvwUznU2MHRzCKfz3DEmMNLp57B8yefQ250EhNje0190KoeqVdbJrajGhRx7MxRcicNJo6dmipp2pyjQ+IVYy4l922Cs4IMdaqD44fwvrv/FqaC/UhkOGT6AUqxEo4WnsNPffBHcaxI85d19SSKaTInAlaATFWPFRHL0MrTO8MQIuR6kRzk3wt/2ZmrmaygWihS0UjAr2uiOI5aI446h8K54iyefP5RjhRF7N+1D9X1GnWtNKVdCtt3HMSTL72AWmId5foq20SU7G8tvxxcuH0uAFoiE6P0ilNs1qlnHdh2JfZPHUI6SfPYL2C9VsdXX3oGP/NLfxvxrWcRG23SmlxGmr0jTysxUUvRDB5FIz2OtRiHRwmuTqeKdD2H136uB/pFkRP085czoA650d/Zou6+07/7/mLA8uFPP6fA8NLlXg6Ky0lk9M4SJY4Oy2ysVfbqJqVXAH+Ew+HwIh566nfw4JO/h+Rw2KlpECYbE7jv7e/H/NwckjS6YnqTYUhE0ItFr4ugX1jbxbXEVk7zSbbWW/M1HQVp+qdGHvS8cWSDNK7fdRN5nGZuusyeksPMykl8/DO/Smm1bNMKKCVZ0Qkql0msNSooJzgUckz3qnVkaMnYchH2lJajONbVXtHwXnM+dm050oMWqy1XJl6GW4gfffq6jazT6UJQXlbf0BmTO6eZh8ipc0VltsoWUnom3VouysfiuWi9TsX3849cF5qhU37Crp/LUUIFsToqVEkqnhYd0gIkamNMlyn6KK0nsBxbwycf/k0cW3kSFQkauky8iis4Ao3kKfkqtDhJ+5Z8tDKdc1MjbdfCU5EIveGRi2hwQcklEIEDLckk82u5blQAjQwsLB/FfPFFxNNZ1OtDjFyhiap1R5vwaoGWRCeo6yJZQ40du1AtY+bsWXsx7njIMUelRkU+vL8ccGHmYk8WstV6hRZGHcvrS+FIRn9eJycmaJkMW7gm/JJUEn3tsNiEVw00M7ZeXEUqr4lSLRkfwrap7dZeHALYdnrpX7HNMJKATU2IGdNdWvgGuEAMk6SiWLU14WfPnyFCShhDtbmKnRSvt1/9PUiWPaRiWt+ecnMnm/CqQY3jeVKv00psu9IQXrfrDdg2vtsYKCAjaSXL3MIcf6lP6w2ALd249PANSS7pHjYkcnzXy2XtKbT3WUlKryCH7775fXjXdd8PbzWD9fUitPdwE1490LLDRoOW/PkYrp98E+679UeQj08wxClC0q9OnTlJHZkKtUaZyyQLLpitENEeQ1/Kut9AtVHjsyZCqWxjiApkgMn4EH7s3n+CH7j3H2N0nEOkVkJuwqsGWvK9tlrE3Tfei/fd9TewL3eYkiGFhueWBYnJZmdn2aZaHMDHy8Rc3u67xj6gEiINXwXrapYRQTKKxhz8ZoEKfAzp5ARuPHQLxmkRaklJOdDeuwQytByv2f46XLfzNpyefR6nl16iZKMFo3eStKbUSeJUIEdiKTQrVPgpDj0tMiTDBvEA8Qr1A+3i4Z9t+GTJGoptM4ekpCw5UaHjavsHDVlD1UBzL3rs5wSDZOrLyVpnSTnnaBM6YhlBV3oLZFgLN7NFLVLLKuuBJq1rzTVJv7UlRUzfDLRPMoa6n6RR1WRHjtNOjyPNBknpXXZW+wZoLdYDjipst2SDFmEBO+N78BNv/6e4+7ofxnhmh8vPlzwrI06Lv8wyPvqlX0bZO4ca5UQ6nrO6RG3eBX1wViyW1voLK2nQOfdF5honc+nWRbKMwnDF0zZzMZen1z+sfNIbwW1X34HpzDZbIaF3jaJxnJHEGGPZCdxx0zswktiCmdMnyFhLSKTZKPEsSmSgEtYQyyRpfSpz5hfPICiSgPFVxinTEQctU9FuaD9P40DLqKMlL8TO0ItwdI3bjXN4MwAGT7z2krANg/MkrlEYr3YXRY3oHXm2wqMI3eCx8WPsZKqrdmnXNSVDeqrB442SlaOlSFUyWCVOvTaRR7FWQ7lSwOhwAjl2wOTqGN5y9Q/i/ff8DK6aer2NKj6NMG3kjTXTzMctIy/Smv+zx34PRW+efSDt1st1dJQuEOoO84HgquTi9DCXJJduHTV6G0orMdUDPTq7D+J4/cFbsWf0ACMQafaghpbjUDQ16lpU7CMdZPG63Tfhzbe+HfnUmPWOSpkmcXGN0tm9q9QLcc2p1auSjZSQlHDNeJKtr8JF5DKqwTp7pmPqCK+uhpaVo0sYZved4X3gFWOuCCLPVnhvhBCaJYaplzIeO2xDy4notMYtQXllXV+ESlIh9yuoUPXwq3FKpi3YmtqPm3e9HT9099/FHVe8E2P+GMdGynut2q1LClLeMd+AI0ecHXe+PIeHnv4EO/oSi8tpHAhbvw8IdYf5QHBVcnE6aXVh5qJT75ECL6lSq9Zww/5b2DMOUxRX4NV9k17nK3NABkhwbNfWoiDeoIo2gqt334Kbr7gd+6d2Ye/4VtQopdbmVhFQj0tlScCU5LKW3mo5qyZVNZkrSSX9QEOihmwOi4ZWhLi7Rh8G7cX55eC1ylwJL8twMZGGdf566rCUYBwxylQrUmnSVbQplJCsNDDqZ/Dua9+LO69+F+658YdI43diNLmF/Y2d1dQcLeTUngLSjnkqr7hPY4uMdnzxBTx85E9QpKrjcSRqUo92aPXBTaj38++AzrSdtLogc9moSnHsx9I0Y6uoBRUc2nkdrt5+K+9ZUQ5rK6Vl/PJH/y2ye3xsGZ5AUbPulGS+V6UuVcSwN4w9I4eoj92BW655Pd503R224G3m7BnM0ySu1MtIxdcowsu2VS3lD5EJRtjTRslo1EXiWmvk8OrG7zuHuaoVDXtULcgYkiRaNh4UqeeyA8e8ElZnljDamOSw9x784F0/hffe/GO4Zdt7sHfyKuQT6tBkEHZyUpy6KkVcsoSZ4DF88fE/gZ/MYiy3BXV27Fgijq+fehTPzHweJTJuPK5l11opLPz64CbU+/l3gKuSi9NJq9ib/uV+dRYykMZc3fIhDFdEzYU0iWyGHF5sLjBeGd9320/gR+/4WcYuU0HPocwe8X3/5l7M10/jR970frznlh/BxMg20wOki4Hiu1ptIpl1EkgLwqgt8K+Ik4vH8PhTj+JzT/wB1itrKJOoFSrq2vjSJLE4ekpmOoSEXQdu0Sd1e3F+ORi8wHAwCQfn6ZZVGwgfu9qTSOkg8myFRxG6ocZhUa/C/AZ1J0qXHPXNTCKLrJ/DlbsO4Y5b34pd+avIOlmgnKbuG4dtVhcNtBbfp27G2mmzymKwjL947uP486/+JoYzO/Gj7/6XuHLksKLRgArwia/8Bu5/4b9gkbqcH5umtFsgjUUZjbs9INQd5gPBVcnF6aRV7I0/t8+Yi1wT+ui/HVFH+OhNezqRoySh0s0e8tbr341/cPe/Q4ZWolY8rjVX8K8/8b/jS2fuh3c+jitJhNuuuxOvv+IOHNh+LYYyFL1kJw11zMkVRSc8dC++rvglnFs7hedPPInjc89ivnASi+tnsVxcxlqxaCfJ1Kjo+knqD9TPlDgpBbiFt/QTDeGkNzOkRuf8VZtWfVU5beTogDBMlmd/UPoWRdx9mKZhdYpCOoBlSJEQ9TS0S/6bPsVITS1zJpINdiI57QtI0KqeyE4ikxzBaGorpod3Yu/0FdizbR+2DO1FvjlqadvlElfmEVf9qZHV2YG1/ObM/At46cTX8IUXHsTJ4lNktAau3no7fuLdP4+tia1oVM8jnpjEf3/oQ/jiqU9grab9pbTSqTuH/dRBq74OonI3Qhgg3NwdoePuDT+3N2qFFljW+leurERJUwSpOvIlLWL2cNWB/fjQd/9/tAizqCdJJPaW3/j0f8ZvPvv/2Lohn4q9ZohHE1PYMXwAbzx8N2695k6MpMeQiUkM818ve0Ua20Qra4YFS+mknyZhyxwqV9bWsFiawUL5qO1bnF2exdzyDGbOn8XCyjwKwSzLlk3OHk+m0x5GEdQYSKZsD0h31KYS1ctW1DKOluqaskvGVV17QSRgMHGVetB2Ar2NELSYT5EJcS3VZYO5l9nUfYijnHLJemPYMkYGGtuNifx2TA5tx2h+EttSepGcx8hwBhl2HstbW6SMLmRi7TsUqAjhQ4IVytRdE2U8dfSreOTFh3Bm9SjOF86SdrQSh4uoFvK4deft+Dvv/HnkGmPUkQuUdml85HP/AI/O/gVHwx0k1Uniu4WMzqHRCnP1icDdb6SLoDNeP7gwczHjmseeSPM1X9KOG59EyOA/vv9+TGWJsFeDT4X7/if/Fz7w6X9MaabdLBz2zJ9mbj1JWZXF9PgOHNxxJe677kexa/sOZGhOS7p4Nm+lpsvYXI4K1kYZ8pjVSXsapYPo5KAa9Y8KpWQ1WKU0LWG2sYrV1RXMnZ/FzNxZzPK6uHgeL61+DUv1M9T52CloHWmyUBtUPUqNFCbJHG5Ox73Bd/dekgX0IVaMTCElWbSww+WIjeb3FLfZoCnPP60q0U6faHXJSGIaY5RA42PT2D61F9um92GK9R/KDmNHervb1h/PUuprnyINGTsPgxUlvbQB1kA0oAFlRODIAa/I+7KtUClUY9D5JJ967t/jpWPPYX5tlppHASXSxWMWqVieKkWB2scI7tj3dvzYW34a6UaeqkYJ64UaPvLAP8Izi4+jWZ2g2jFPoT/Kzq4zLBwrdDJNxAP9oDNeP7ggc6nHBYk061zFECulJbWV8hJ+6x98njrAbjJRlRZiEi8sPom//v/eh6HRNLxGAoHnlF0p3bVqhfqpdgSxP5Io0+O7cMeN78CtlGiTub0YSo3bOm+9tTd6UvJ5tHZi4jLKa6oirJ6qLorzyjhyMiptuszmxiQZ5MSV0tJiKJYKWFklA65waC0UUGRPP1V51A5CqdFaLROvSqVKxqhjLTjGlBrmuiFJhXc4uc2kYorSUc63fZIetqRej3Q6jXx+CCOjI5Q6w8hSeWZNiKlwlQQixsRVo6Ig8CqkKXklRn1UQzn/xOR+mWUnWBmt1GWlKtoNxUfxVbWxiEKljvPFObx07lE8+uwf49mjX0B9aNgksM82UUfSMZ+Slh51Nh3blPPyeM/r/jree+Pfpi7nkQErmFk6h//0uZ/BsbXjRCZLmq+TfuRIdoyIV1455gpqJrn0SmFEe+wyPtbWiOBPfBrXTl6PRpJDWy2JheAcvutfvwHZMR+JcoYNoCFDb9/LSOr8BloplWoJgU/xS+aLV2gFVtLYMrKTw+w1uGIrh4mRKQ4ZOzCR28YhdIpDyLAbLtnsYkyroxpJLqqztZ4ch2etAWICbV+3SaGo8uEwJtA6fyWIkrekmO3a7QdiU/Vq9ydJFUHCEHFgQ6D+JA3DYdnOcFV6K59Oxg1TGQgBoiid0VaUkNGsI1HrLgQrWKC+Obd8DvMr53Hq/AyOnHoaZxdfRJUSyWcbeNTT4rUm0qkUJT67RZX6qFQBFqNTcigSMOwn8f47fxZ37nuPFVnj8PrcmSfxXx74PzBTWzbSJYivGDjGHhyR6xVjLh1EW2Uvq5OQ+bqPGnmmVJ3Fz7/713DPNe/imM3hpuLRYlzDe37pTlZ+DUkyToIV0xZ6rQMT3bSVXkcc1TxtGmVzlYusHIlDppNka1TWTfcYH9pJS2krTefd2LX1Kuya4HV0KyZHJjCcyzurxo5WIiFrZCIJiLCO1tRCmeVFTKBfa3QykYa0pMzQMH7rKjDR0maWFnQsyzboolaV6ZhJ5EKQhFU08xZjkYYmrpQ/dTFHEM/kZFGTy5SiL8y/iJnF45hZeAFLxZMc+ubtvK5CpUjaU3+TlCNNtcVPM/U1qhAZZm0bb1mOJJg6ovqORo0GO9cQ6/RPvvs/4NDozSxPRlOAR48+gF9/8P8ETTOb+klQBwti0rdI17AOrxhzeUSwRuaqEfNMJY6ir3M+F/F3bvlXeP9bf9KGpViZ/TNdw1/7yD2YK5xCPpmhxCpxKGwgk8lz+GpyKOWwKBFOf3GEnfUZUy/W8EDmZY+ta30RJV2cPTjJIUKbPO3cB3YtP8hjPLuH1uf1OLDzdZgc3YHbd15NCelMaDcg6k4yjhalSYmN0FTj9gGltEr3gCwzalQM2RhGsyW86wZJOqc8iZ21hJip2dgV1u/x+adxfuk0Tsx/HacXn8Vi4QSK9WXWg903kHTXmw7RhfXSbmoyld4nikd1BIC9yqHBECcDlcgYOtbADFD6Nxoc4gMd70k9MzaKHC3In/+B38Lu5FW2YrVGQfDlFz6N//rgB1HyM0h4K0hUhxmm+TS1h6vjJWOu2/7Fbktph230iSuia8u4elyhsMb7DAmVxvXX3YIPf/d/YgyFkWHo9+Hf/wV86syvSCDDqyszJ2ovhIRgcByiFyksPXBu/QSGM6PYOrKLEu4Ato/txXhuC7Zmd2E8PYFcfhT53DCJmGH99GI45s4B0x+Z1o7dZrn6i8taJOhe/3bPMBFHgtJJPzqzAN1ziSqDrYdio+uE52J5DeVygR3sDBbLs1hYncGp5aM4s3gM86tnUawV7dwuKyPMP7xhhh0N2OHvbsPnHoii9UKN+lcyUcNUJYFf/IkvUgekjKwmOLos4A8f+yg+9eVfQy1fJDNOUpuIU09cJf7u7YDRY1DGhCjMXQcxnf1+A8xF8a2MNKeiwzS8eNIWA06MbcEf/N0/pnRPIqiv0z+H33/ot/GRL/00jZ8xeGoRQ1Z59Mm4BwbHGcxcTVpdeiWi4JhWDcja5H2QosntUXJSYup8ihSV7GxmiEMwrdbYPhuuda5YivpKMkFlWM9N5sU8W3jwqjud8Kyl3VrZoQOBq9WqvQLTED/nvURmKqFUXEelViCmdUrnGFL1YSrQtH7JwE0t/6TThLCmD3xaIS7n7rIuOXOx/gdSe/Fz7/sELVIyVy2B9fg8fu8rv44Hn/goahmqIs1RWpQe6bJOfV4vr5WnyhyQMSEKc9cOnDvARWE+F5ZcmgMKbPjRe2uJeG3VLxYreOgDT7KRsqhXVykdhvHFIw/in/zW9yIzvMU2Clhq5vlyyEYwOA7RG8BcydgQfxUuPabKxqMkIXfpLK4mmUpKsjZ/SAmzzSCUqTGf1pEkEJNFyrwgQR3OUOCP/gR6lsKtwzuEX+TMyuO1Wc9bHI3ckmAOT8WVYaF7DdmUmKa3aahjmsZ6R/7uaplcQuZqsC5ebBl37HwP/ta9v4ikJohpLa7U5/CrD34ITx37POpJHXSSo/qglSk6V590IkR1HARRmLt24NwBLgrpZE8vA5qk1NGHmmTU64m6zhYgreqUVqVKWYKCY75TenXuuynb/cu85BCPrdGRWajjaEq2Rmu2IkuUtExzyErVynQlJDkcJaprtGqLjEVcdcqMx3i+O/PLT6RZJ0obf5Qm/Qivuh+hn1yOcTn0s8Fs+RGJJgGp1yxZlptuVqgUF+FxSERhFY21VZQrdQ6Z1LFIi1qDUo66TwMMN/fKQIwW6O7pw25qR8zJKugNx+zaCfY1PpNWbFzrGG6K59LDBZlLuoWEmiY43VYvvXbQa5gmZmkiywDXaSzCP5PMYWx4gokumO0lgXJjzc5D1coBTVZ4sTSZYwgBh+VyYgKV1CTF/yTq2QkEuQk0MuPUP4aRbjiXagyZS9LFAyrhZBK5JhkS9RIbqMRhg2p7wDg0KBQv2WQaOQzR4kpinWWW/CHU0pNo5rYiNrwdKd7rXWyKup6tJiHrN8hg9aYmQi8/aAqkQebaPnVNh8wrocpON7t6hpJNlqVekKvtZFk6qXqp4YJcIPGnk4w1PGiY0UFr0i30rvDkGbdZwzoHEU9RAmyd2kbELz2i/aBBi6ih2ejwfaVetYgpGpSqQUApErogWGancK5M6VWlxVprSJqEc2McwwPooNocrzn6Z8PnLPuJJByHU731jYuJK2QSpS+yYahralMKHUAJyiGvEfBapf5ljnqNPlBA6y8I9AYi5xC/zGDSirQYH9rBtuC9aCPpTkm1WlpwUzXuxyTXN8AG3xKQyakHmJMltNE5jqbNKIVUM8D8C+pisiE8u/QYfKaNcyhqkPA5L43R9H4OGXqVwWTW4rpEV3cf6TwWJwQXttFZ+UaIPk5LS+SEA+M5fUEjQBwJ6hBxWaw1EpD4ehymfE0dkJpS6KG6aM2TGExDG5knrtlzr2A7yZtxMg3rFGdH0vFC0uXcYWzU9TSBSd0g1Uzaqy8ZL3qdKFokqcMk7FWTimJZNIjMsXStWnC0ZvF2jRyrwZ/ozzzCq2sXqSShU1gUPgBqLD+FMUzkdDSSeRD/GmaKC7ZEynkSWBctk24YHVyOpjUy/04XtVe3Y5h4hNfOcIHd80+SUXcuQp8/+6fTezVmxwxVQTaen8WLi48xA6Un8uwuKfbyMQ4NTQ5TYWp3DfO2J90rw9CnDc6v11lUUaGP03G/anRhZv90dl4qb7SFSjqqHRBH3BtsaNMPGbtartkyaoe39KcyCpVVDvWa4GWu1CtlRUqiFas6dpsZS4nn8CHlvFJ2L9r15TPjZqYR15EyxCigZJNRIayEp3616NE5h6r8O4B+hrxd3aXbT9e26+PV5VTPqeFdyFBdISasID2Y6uT5Y1QbMhbHiTTGNQHCjmZ1lI/y7/hj5Ki9Ol3kryALDkGdxd2I1hcBJ+eepmDQ9CWBvTjlJTksUqknsqFnq+A2kq8mqFlrNvGome7lgma/NeRRIqW1y6mORIXSt0G9saiNwIybIo+l4qgS9/VyhQ9kMDFk7TW8w4nSaPe2Q9aRxPtqZSntx04/5cJfIbgo5lqtzqJYX7VcpGfFqNyO50dcr24xkx5c/NcC6BTlVEqbfOvIZLVGjW1BntmTvQHvPPxD+Ef3fRD/x/s+jJ/6rp/HWw7+FUwnD6KwWObQxs6TzZO54kinU8xHSvBrExq0kndtuYojP6W7WpiGYYAEJdeTLsIrBBfFXBRWWFibJ2c5cS8JnPMmkfR0EK4i8N94K2Q0+b2KoIFUVa4ERVTqa7RufaRrOdxx5b34h+/+l/jxt/xveNPed+DasVvw1ivuw0/e88/xE/f8UxzacpO2zCBHXUsz8ZpM1vDymgUO81uG9lMXdroohZa+1YaF4jEX/grBRTFXQB3rzMwseUaWiEQAMJbdgZH8JEPFUoL2cPgq85bhUa5ShQ8qqNZWUF1dxcHxK/HX3vy3cM3EYWS09UoKi6btqKcMI49bd9+JH37b38NwcxTV4irTrtParKFQUsTXJuhjpiPp7VQDVRFSPRZgrVhBKZh1EV4h6GYutX6vE/Tzp6vXfMwuzVLkStEncxGGMlPIpkdayqEsOT20hsgu6H2+3CBLMWWvfhJ+A0O5NG666jbszF7BniJ9ioZIsmjWIlJFUofWIpnx8M6bcf3B66jk6+VuQKmlI7710lodRwaOVHm5qEOZidHXGZAWG/3baQSd9984OFMhmUgjnRom/mpevb4KsFxc4VVf53V/LnO1C2/DwsJLl4ug8/4bhXjA8uW6TeO2kzERnY/V6zLNYRxdeQTlZpaNxUySNQynh23GO8jSAqGX9s7p0yDq5zZzQGuzywXdzzYFYrWNwD33c53hXXkIP7t2x9eqAlmGjfoUfFq79MQN17wZGX0rSOvP7OV2lj1O81H6lLCWDZEROf6/8ba7sbRYYj2SbCSte/dR04w/G0wrLVhiOPtntpfh1d+FIJysvqGzBneO6Lecs+Y6gOno6RwJHNRon9ZZolbBBsIgwO7hQxjOj5mVrMlh2r54cf5LSDemmIHr7J2MFbkuNEOnC0uic91Hlnh07+jeTWPRPvrWt1j7W4Y6pdVaYY2NRuuQiq4aNJdO2/GWQUXrjGR8k2yaxmBh1mNedSBGzSpxHEKzFsf4EHu4qDcA1N5SWvaOXYlrOXQmlmhR1vTaaQ6JvEdLMsf6D1MXG7GX95rB0BmjrwSoMfUhr+jIblmG+txLLj3OoTEVzjbodRdw7vwxWsWvLP0virm0zknLTII6hxTireMtM6kMhlIjaFbISsb5DVaKleb9KzVzPwjYFrZmrE6FvlaNIah6WF6ZC0P7g6Rvnem2Znfj5//Gv8U/+8EPYmfiCjRWYlherGK9pEX+lA0pzd7rA+ualLVWvfzAcrS8WXOQThhRkpG5RvPboW+Fm3QzBbKGUzPPIq5l1K8gXBRzNUhUbWgtlqifUHrpjAfNQ0/mJ+AHCd550Nn1YkIVpKW0rybYqyxrjCpK5QDp/BCeOfYwh3W9/B4A7CG+1+DwksBIYy9u3H4ffuGnfh8/9b0fxoGR2zEcDCNeW2DdzpAES0hp44XWpL+KMD68Hfqeo1klpHylUbAFihrmX0m4OMkVr7HnrmN5bZlDjE0DWwfaObUL6ZgW6LnlvpqMtO/kRK8dXi1g8Vqdk0zRvmWvXqqu4StHHsS5+gkOf/2HMns9pF03lHjxlDYH5+BXh/DmK9+F/+tvfxg/fs8/xu177sVEbC+8SgaVAuPqw1CvBLCzaJ2Z6WUiLfUd0XkkN+EUEL2TIuiUwUqdhkpT+xpeObgo5pKysk4rZH191e6loOil6fTENFL6ThArr9cKdZru0gukoL6aYHYS1cN6vYRkNgPNPLw09zQ+9sBHUaz0X7GwvlrAytIyRxcirxGGQ7y+5Zhhu00GY7j38Pfjb77jF/Fj7/olvO3WH8TYcJaNraXclx9E3waVeem6Ao3G+oBVOq1XPGRw9SRCsVw0fasZnnLzSoG37c4RO4e+ZQGQ5U01EmNErBd59rhYMo1KeRnXXfF6XD11syknstBrVeBTj3wCpWE2SiHJitJapJmf41Vr8dXMTi1hPgZ6lqWhe3fVsz3ZvXOKZymiZO2bLiDqIbibdnr+6I0yrT+Pt9IRa2yXUwtH8fnHv4BmNo7Rqa0IYj7O1xfw8S//Lj7yyQ/igWd/F0v1JWyZ3mlfddUWQxN0ab13TCFNibBzaBdu3P0G3H3VXUgmh3H83GnMLh1HepRDapLlVGhncrisYoZYpVBap9FTG0YqqZfLBTJIQMs0YRjr+42kAiV/+OpXkokhEQ0iFySr5PmUfTe84WdQCs5iKrMXdxx8J6bztIgxZAPjszNP4clzz2Oudk62rr1IZyFkTH0NjsN+Qtad6MLIvY7QpqeDFj1DVDqjyylQ4bEbf9atRI0aU72h60pvt+BsIzTS7DnFNfzD93wAP3DDT9CD+hWZa251Dj/+f38PVsbOIrEyxAZNcAgtIF9JoZJoiy+VYewiBE2shRalK7qFQwSd8V8OetO1gakHBDVTJ+HTemys+rR0SfAsIw7V2BQp6ltTrGcJw7ER3HfX+/CW1/8VDCd3Il1OwOcQ6yXZUDYBwc5To17nF1BqLOPPn3gAn37k0zhdOkrGdRt5M82DlJwFpBNlxBuraFQ8ZP0diGc5VNcqppC7FhLZKCrZLq0v0tKvs25BsoJEVW9DyIzJPPM/jn1DN+Gn3vEL2D28B0nSvYYS/ufD/wN/8MivozFeRLDGPFmElk7pFZb2cCp/m2/tAypuEM0G+Qt/BbUkVwQR8q1r6PqBnWYXVHD1jhtx/Z43sEeQxGSSRCqNT37po1iLz9vWJSn6OgggUfcpwdqc2s0szr+TeXqZpDv+YOhN1wamHhSU3MLOPMwGHUEqN466rx3KY2Qc9v54yfBusJc/dewpPHrky5gPjtkSo2Q+brt06jRWPEoxDUsJ0iBW9bF72/V4w/XvxI6RffDLcaRrHhYqZ8lY6rCUHkGGGOkIghXbYhZQQvmklZbq6BWTphWssiYGrOZdddPcWizQjnKt/KABFdcGkH1487V/xTbEyojURPD82ikcP/t1WsbzFNxpm76wPQEVyTWZYJQIWr7bB1TcIJoN8hco6KKYy2RNo4wdYwdw8xV30lJyk64JL4WHnr4fs5UTHDIy7FEkA5FPcsxsdJx40c0sry5z6RvUPnGMx8qsg9ZyUYoSJR2YlqK+kk2M8z5F5kug3Figlfl5PDf7JJ488TTrxGFx6gDIarSStdyH5VBlkOTIsjGvmLgCt+y5C1eO3YR8JonS0gIKq+eMFnXSKkjkkU1qSNQycq2t4pAY90yK6VlKuhAX6p11kyUeb/iIcViryRJvrGNP/hDeeO27kPa1cYaKDsk9PrYV46N7yD9DWOBQrSFY+w38VBw6rz6gAaKVHv3oquIG0WyQv0BBF8dcVnIZ+fgU3vy6e0hIz6SUPqz+7PyT+PrZR5AhySva0eHHyGjagOmUTEE3s7y6zKVTGzw2UDKm4UJHPLLRGhyyPO2QGUKpsIp0ioZJrGpvinKpaRwpzqDcXMZjz3wWD3/tM0hxqNk6voc5MX0QN2EQ1zePKPGaZLZ0fhy377obt1z1Xdg2tRfL66cwt3KMTMbaS/mjhLKDUdjSQtMdkqJNHgSre3fdpEqYBPS1s13Cp4hrt9yMm696K+0OGlfMR8cGpBI5bBs/iMP73oip4QSOHzlhln4y72N5eZ4GQJL5Osu+F1TcIJoN8hco6KKYSyFxKupeNY97bnkPMnGKWPZizWfN1s7gc49/Ejk/h2qTymqaTEf9QicKR9DNLK8uc+lAWh1up6lQubr0GNZNS3PKlAAJ6lZ6NycrRwslG4FnX9dfUeNkGyg2z+PPH7kfj556BI1EFfnhDJJpqgSU1lX7yi4lus+OVfUwnM9h7/RhvPF1P0iV4hqU5o6j4rGcitYukFcoxaLpDC0x1+shIS7UO+smf1vdyrQ68jNJnG/ffzeu2v5GSifmo3Vriq7hlgZYlkgc3HI9rr76epyYOYvjZ05gdHIMZQ7JepvSj27y6uNtMMhfoCBv6x3DH7A4Idu6+K4i7iniZ+djl9BF5xvU1+N415vei+HEMHuLtlLFsO4t45MP/a4RWNuqbOuaZLRZiw6iUgzMW5lG/vp14Z0puq8O7KnLiym7o7RgEONpTWvc4xBOpqlSKdfOIJ2Q0/A4ZCS1T1FHPWWZAY0Tsl8da0ixnilaaTUaAiUOh/HhGBbrp/Dw8c/hkZe+gIX1RSrOOYxlp0yC+9qZZN9MohFANPQmc8fIFXjzde/Dzu17MZIaJfPVUC6toKYdQ6St3uXpHa9O6dH7XEk37cKW0xdNtGtdwouDup37cMdV78TeLdeyk5Nq2onFkcWWbMfI6GV27LpnxyZcfcUNyOSGcPTEEZSDNSTSbEfWw49rKkXqAY0zdgp9j7uzBb4RiCjsbX3T0Ac2JFVo1AgM7JqikBfDdO+zAmqU0moJ977hHdia28Oeyh4gPqIF9fHP/haaGTZUI+v8s+yNqvAFgXEUTTiwfE2S2I39RtjqGrowy8ESK4KXCWc20rtklNix5qo1G8vwJmNJJdE7Qx3mpnxEdH2pQgaMaKHjmXSwrY6N0ovt9foaTs49i8deeAjPn34KFTbW0PgEVQi9MGdeZBbmYhgp713ZvXjd9ttxeM+d2EdDIEPrb3HhDNaK56lqiMH0lV51Up94idFiCDgcNtkZJME0rKWCNO657gcwNTJJeUZa1xM4s3ISs+UXMZzZRRzZQcRolJ4ZDvX7thzAzl3bcXr2DM4svIRcboKNrbkw6Xl6Ia46p1i/wcr+IFCYSa7OWHbH596Gip6jcIE2vspYr3HAv/nKN2DvxEFWiroKw+ocGj7xwP9g92SP1iYGj4qjNq1KwbgAmMTSfwsHMVH7eSBuPf4bYbBEc+DCB+fTTt8fhzCc0iygRCkF+mTgImbXjuPpU1/BXzx5PyrrlBxTI0imfJSLRUov6Vg+KpSW2jiS41C7e2Ivbth9C+4+9D24csdhrFbnsDS/wmGzSsFJS49DbI0KXazO8qTO6uQgkihdS+C9t/4Ysj5HEDaOpNpXn38Qv/axX0SJLXVwLxksNkaprPmzMjKpJJluG6478DacnjlD/WsGuWyF3SrgcJxDvcoyNHk8AAaSiaCwi2IumjMcNlyvOTB9CDfuu5kMp7kZRmFv+9NHP0UCrzENJQCZq0JxK8P3QsDSraA2Dt9ezBXaL8imE0gmKWGoy5Voya3Vz+OpUw/igcc/jdX6Crbu2E26DLHBtf+AUkLSiUOuR90pQYbLJUaxd+pq3HLou3DDgTcgVvOwuHiWI+cCJR+HMoYzGeKZCq1YTc0m8K5b30/DKo/C+hpW1gs4tvo4Hjl9P54/8yK+9tzncWD/6+ysuXQyw/xozXoctsmM+686jBef+ypK9bM01Mi89ZS9WYnFydADJsEGkomgsItiLm35Y43MPB9PTOKuw293zCXVgBbSYye/hlPzR9iLyIQcK6UX9LdJuoGlW0FtHL69mCtFlyCHNWrs+RxSk7GsnVCdoHFTzK9Rp6/jyRefxAMP/xmOnX8By8EsxuITtOoSxiS2e0hs49HmIy3TdVqhQ9tpZd6Ku25+K/ZNHUK2Nk5pFKBeaqBUXkWZ+tH40Bbce9MPwidjZDIejagU/uK5P8GzC1+En81ice00nnr+88gO57BlYh+azFffF/DIQLnkOHbsnMQzzz9KgcDRiCNhNp+mPlklI4uFN8JAMhEUdpHDIntlQpYKn9cTuO+N34uEdu+SIAEJeHLtJB577kskGAdP+nmJLPWv9lTEIGDpVlAbh28v5hIBZOzIIIjbF0Cop1NR1ymGTeRJA8qYJDubX8DMygt44viDePHE4zgyewQ1P09LcxeHriR1nTr1Wp0BRpqR4aSU52IT2D58DW4+8HYcOnAFrt56A8az0+zow9g2sge3HXwnNREOtV7Fzkb9yvOfxZnSC5RCWoEbQ8Vfw9effw5LawVcfeXVpq5IkZFaNTI0iSKRfenMEXi5wCZyE542HLMCfWAgmQgKuyjmSlKXKrMSehdWXWjgB+7967SgaB2KmEEFc7U5PPTIp+GnXE9IpmkNaZLoAsDSraA2Dt9mwyIbrMrRX28Iq80qarLY/BIbvIqhICM1lHJJ7wq1o5FWHjvd6dgxnCw9jS8+/TE8/tSfckj0sXP8Cg6VtEZt7KNVyNg6RlQGh955TPo7sWfkIK7dcwsOU+e9fv8NmAwmqOQzerKKYrmGP/7Sx7HcOMPShoQQKpRCOrXnzMwRnJ+fxbUHb6UVO8RhXNaij9TIBJ469giWyie0Q41KDNuzY26yEwaSiaAwb4usRTN3neOPNWXrxXHYsNFzJzR19mmzhFTaQ2G5iL/6jh/AcHPMwnSyoIT7J7/4P1AbJffXKKprEuQur14XMVQnWJjdKaDjxa3MM3smsZ2ni2u3nfla0AZG6Aedcdrp264XnH/40ILQj1ZmXJYm7+2bSDJo2Ol0rpmmD+psSH0VX1VxxTJuhXEoXTwq0gvVFTzw3J/hj5767zi2dARTQ3uhnWwJ6rcJzTuI23REQHoROoZTEm2Y1mVKS7TTlEPUTOrU45aT83hu5kmsV7XbSceE1yxOVXvpksDZmXkq/6M4uPswEV0lznGMZPJ4Ye4JvLj4NLIpHZjsUWfsL7kEqm+vi8CbJnOF9wZW15DQ/XpnZ3hccz9xKn3UXhtF4J7b3o3p9A4LU8RlEukzX/s4RT11D5rMWklvs/p9wMrqH9QFDocorqtJG08nOdrgnnvr0Q8uFMeF9+Yv/+gaBfTm04NDOM/XWZ7u9aQQMa2eEpRcGlpPzz2Dzz/5u3j27GM4t3Ie6xzqYuksEvk8mVHfAaC9KZWDTi+QNF0Sr1JjI6MMx4Zw+/67cM/h78Vbrv4+XDt+B3Zt2YFdY7uxc3Q79ozvwNU7DmJ6eJQGxRilYYpSt4qHnv4UzldOElXKxyqx6a9yWb36gasv3XU/s72D1+hhPy5VJwEEERGicL9O8e9Tq080ESzW8XM/+iG859ofMiVUcU5R5/rpX/9hnKicQzygRaTNEfH+lodNsnYX1xccDozI/+jDBG08GdKVh3vurUc/uFAcF96dv3pp9NyJg4OIrD04hHNGneXpPpqFF3O5b1QnOExRT1Ov9TnA1qhH1dMYSU1ix9QBbBnbjrv3vRs7tm3DaH6M6oj0WdJQ5z7YVAM7fplJxRhqD0oqGQo+41AYmQWrKYdkI21nXRi6TD5TPYFfvf8DeGrmi0ikRlErMA+m7QcdVegC+ctdlOTyqGs1tZyGmMVYqW35adx61d2auVEk1KhvPHr0CzizPEvFUeeUUhwP6AZWVndxfcHhEMV1DdjGs7vxo+feevSDC8Vx4b35yz+6RgG9+fTgMEByaRdU5zGaYjCdSqN1Von4CIdEHQvuc3hbxcL6szh9/qt44sgzeOipP8ILp56An85jamIPCoUy9Sq2iIwJjii2J4Mk19qtGodHTQXJbvfqdeapNmGg4pABq1QGv3biIfzFE39MY2AV6eyQLTqw1RV9oKMKXSB/OXHBtw7shZ5eP1B8apw/cvJ56ozqgY6AOlJpapSWjD7LZlMRrtduwkbQDqkIqLnZagiBzvRHidZndZk8soB0MkAmMY20fw1mYkcwF3sWXz7yaTzwtfttV3VmKIcRMmmWEq9ZXkapsuoU85o+NjFMMSRxRvalEdEkq+kgoAq5oJhaxFdO/Qk+/oXfxirTDFFqLS8tMuG33mYXx1wUs3Yis0xfv4nZBZ3XpT/HXIl4kgoiK8TKqUeKaJvQHxLU2LVcOVosGNEwmQqQylQp1dKUZOO0unOgbEIpdg5pDpG+1pRRSu2Y2iq7DgltVZIUYqzf/Nyv4b898u/xsZd+FZ89+4d4bPbzeHFhFmdWFjGzvoLTKzM4svgcHj32WXzs8x/B7/z5f8DJ4lH4uST5L4UkVRh9mu9bhdh1Px3qXB0irn3b4UkwUe7+9eQElB44NDab6xitZ/AbP/sAtiS2Wow6lf3f/8p/xq/84YfhZeNIMoE++9YPBoleK69D/mrIaIND3YBxFOLidvqH1/CmnVWYU094LwyOT4jqr7Aw4oY44UM7nzZurTS8xkkWMZY6oHvvaAG8Un+yF9CaT6QyT2+p/HLxZo4GEq3AUhP/8D2/grsP3UW9LCNxh3WOKn/zw9eh7KfJtGXk/CzyqWmMZkaQTFLP8rRerIpKtYDV9QWs6qgCL0AikyIi1Ng0Tc/RSGtsqaAJGweGk64O70GgIGLOXzPt26DqO9fnjwqnFFnd16k/CXEdzKgzu/TucHWdojQEkSCfGXcvTO2Lr6RgO/MuZ/n2+dN/J3SGdSS3n87nVhzDV85NW0TOxeiE7tSRs6gGiu/StlwrvCO+XTsh9G+l41OXkxLP9mtQYnU0GL3CKxtXy5TY+7RqVS1OTYqUlH7GMJu3amJ0ZII+0RBGQ4s6Vqk2YwsW05Rumn44X1zB0cVn8NzM1/DMma/i+ZkncGLpJSzVlqGvwWgVbLNKBm9oQQKlqGa+TdnvQtjVqNurywl0vahhUV+HUJVl6ChPzd0s0FwW01s4ldEhKpq5VF5PznMTLimI/mkvh9GcaJxuNfzM4hHe2+QPmVBGgc9O7nRfSUb7FB6verVjkvIyNM/FMZd6FUHbEcns0Ff2z86fajGXTOOx3DhGssPWI7U9dhMuHZgMobU3mp3ikJdkA1CykfYSNqfmn6ZQ01f3GYXN5PY2cmjVhQ1k1w5nES8xXBRzSXMU00ii845M1TDm0g5rg4DMlR/HMMd5aRHqRZtw6cCUfnbgqdEdlF6eM5yku5G5ziw8RQs+b3HsCE2pBYzgmIl+Gm2UXFe5MM9LCRcpuZxz+gcRJXPNL8+yCiFzEenh9Chy6Zxjwk3JdUlBepE69vTYNteQIi8bRKqSvnBmp1zLS0Mhnea83BdROBTyuXXl0Kh2vNTQZq5vinUZmf82LJr1J9XdKauF0jp7Sq2VX1LfKAyPK4r8BoLCe52gn79cP+gbFnWDXhiUycWBqvpNQyfe0X2v6wFT9lmYjkuKaalTCLWgZhsvlMZ1ezGSdC4xmcerTz1Lz9K3HIO5NmwX01lcp/83A3HNrdh2cFmMUpZ6XUeukcXjjpCmmGW6aj2BRNpDol4CSnGs1taxXliyN/PNjIZND+PZHTR4quxlWnzbkHC2PY9yF3M+WCc45nZ4GX4MdiJf+SgC6yIC8sHihfWW+S8XPV+K88HcV0eiPLvT9DvPyvnH6VhfjmnuYxKRa9c/SsMfK1kLeLxGHdtGx5HxdwLZkn19b715GrPnPaSSS6R/FXUvg3JNX/BdY1LhpS+c6asobWfZiqQh3aNrhK8itMoWUnrW1Enk6GfO4rlobcn1rYDErXaYECuJ1jjN3rXqOlYKy6GsoCim6TytCb5UmgTaHBYvJcha11uQdGKITBR6skXXSitmXOmbi2oF9XQFNy+yub9ZuKjSmhS1+u6fuguNXd4nsVxYwNI6RbJyZpBP/51bdlH0+mTAtujehIsHn8yVS+QxlNYcl4C/HA30kXkt7RFz6TuP9jI7Tqlycc39TcPFMZdN6lEaNWrQJgytkF+tLmGtvGgdRiqBTuyaHt+GSjlAPJGwdJtwacDjiDGUHsZwdtp5sDPr623nlk4j8HQIHTu0dGJ1/jiHXpNkrxxcHHPZ2MrxWm9GqVDqvAxtRFgpkblUUY3h1LP07epaVXvsXtme850OGjSyaUkunXUq0FKbOi32Oeqz0qM4spC57DglhjSo/76ScFGtrfkTKYbSBKX86XVBPVbD0up5M5ENGDykl9csyl5xbMIlA+17TfsZpJNDoY+gjlXqvDo2wb4xaZKLOheHy1d8WIwsELOUjEl6XGhB9HPxmNZnJclQSRPDsUTVThRcrpRQ09otCbSUXkJ4uGH6DuZF+8bKU94m9sJn9TdZkbTeZEHS0VDS/KAJQLP4+rhuC63tlHUEIqnVj2W6cOYbusgqEuPLKjJn8YiDnTId+oXO8u3M21Vhg4vAPffmEbl2fBfm8HbOhUdlmgVpLryXZcnrGq28YX+UxpJO5GGB+tRwrQx9C1K0109AmstiVz5698gcB/w5sLKNTs6Z9RzSqsuJhmE7yvGn5ZzlSDUozNOgJ445/tp/X2c/LEiODCFlUlWYX16w7eimdxG0QG3bFE1ll6FL2nEV6L7Lqd3D+28evplUIZIGTGdJo5L7uU7oFy4XQb8wOcHL+QmiaxusM3RAIpnA2NBkuxGZpFAqoFiOvkskptmYz7cCfXPp8Gzf6o6O/5dFTp6YOU7dq2jtpt6n1fP79uxFvW7daRMuEaR8D1sn9pG+YRehNFksLmKlcF5PrzpcFuaaWTqLQoy9R7mzwvra4K4de2gxatnNJlwq0Lcgp0f32gYNa0g/wFJpCSvFeQt/teGyMNdqdRlL5QXL3dMP9aOtW7a9cqcc/2UBfQ02v9OYi5qYY67yMoq15TDCqwuXhbmqqODc4jmT1TZzzPF3Ijdm64Y24dKBvogzktniaGyWeBUrlFyVeqRzvbrQ0dqhIrbBCfr50/XxktPKrfnlefUlVwJdAjnsGdplVoSsiSiudr2Een7ox5+OqxRSxnBeciRk5NqeG11kxXQ7hnVCRzyXTsaJu7Yd/7ucy6fTuURtML+XgSi8Kw9m0unvIMQtLEALA7W6RO8HZQWOp7fY+bPqxGgmUKEkW11fsvAIFOTA5TPob3BYCMTDYukaOT2HTuDChZ+7bzGXefR13aZ0p+tuhLZLsHJnz5115nGsjiq9Qea6bdstTFdjnqq8kGM+ZC53dqd7dkjrL4zBGxnQrSkK3nOUde/UWVZ/p3T9nLF7C+jj/hRmz8ozdF3P6gDOOfO7x+lPEVsQ5rnBhcGt8M582vG60rsaO38ylqSUPrygE6GvHL/ZTqxBnJKKVVtr1rC8cg6puI6hNKJbGpejc6JAP6ew/tAREuEUOrU1UXdXOtf+iubCOyTXpQOdi/ri8ed4p5K0TFBc3MTOrftZKMM5PDrkmu5ejLoJgyFsMCNeB2zfst8JLTZwwP6qidPzq3PQx91fC3B5mCuRxAsnnqMtU2TF48ZYHvvHvu3X2n48E+2Mp2Uptr5b7xyjnrYJ3SCeMmrZrTFZ5PZMXYU4OUurT7QmoBqUqeueYrzvZObyElhYm8Fabd54RpaMqrt9fL8dKis20iJC7SA2kjHSJmu9DIjBQqnlGEteTWwbPYgEpZVsctG5UF3HwvoMAr3yeQ3AZcGiEfeoX9Ywu3TKnrWYTPutx3Lb7MsN2qYuCmn7unS3el3vwRzxNmEjtCRXi0bGXZjI7yJdpb+S3mSulcIiKvrUy2tkgcDlwSLmIZnxsbzq9jA29Al8iu+Ul8fo2JgxW7FYRL1K5V4m9CZjfUuQS1Hyi3ahcagPq+qDB3qX+FqA1jLn1otKItspRXQb+fW63rSRy5SZDy3kr848ysTaYp6zl9tesoBrRm/Eml/kMDgC+zhxKmbnh3a+LJVrLRMOLSnd95bvlkxrJUb3kmlpIf1edMt1ltHpQuFgwNxbZWrJdGSFWjTdKy977s7DvezudC6fNrjnfq4zvDOPqpYjUwZkk3wOqqhyyGs0i3jd1vcgVlE62tK+jzLr/cxLX0GKdI01K4xL/OiCuru2XJhvb9n0cVZ5j5P/oL8ILJ8OnGVgyF1W+Xny1HEpXHpzbaBJ1LGRCTKTZ9vJfRLF0Oyk/yZ0gemipI8aTUvK9W0hNdyubbvtFBvFsDhkg3Nz+mCnzCfn82rD5WEuVl5nbR47edTMY6oExuf69vXk8BT0hQ32fTCKcT2jb8IAiLaF2WfyInpVAhzYftDoqp4rfauJCk6ceYEaiaZ5voOZS/NWvh+nxbiEUlC0UlTdhE+hnZnQWwo0alUOI26FpDZ6bEJ/0ESO/urNwM4yrcv4qQBbR7dbuFabquNWsIqFRUouY7TvcMkl0M7rJVow2iwbeeoTuQkduyQrsabFhvLdZK6BoL7HP9uuplW/9MgmcxhNjznaxRxzzS2dRsMrISATfkdLLhFDa+a1DlcHk+iMCBFA/KXt/blsHn7cs15oE6pylnITesEpy7xRS5GeOsdrbGQcw8kRo5n0VV3nF84hnXMSLuyxrzrEbR28cbqhapWJ7u25j18bev2d01H0Hi1En/rWqcUjtF4SiNH6k84wmhvHkJdDkF1HzUvbKcZoFJjOSTbl4CjGfGRt9Tiz3swiCeOELkojJwtHJ+70c2bt9XUu/w1OeXaCFeHCnLLDtERdebjqKy89Ky0x4bXXOnPO5RWBnvs57V4PmmXy1TAfpKyvYWJ4J5J+hvUhGxEPbdQ4fu4Z0j1DHkyRtTRv6NLzN7wPr5HVrBmg8N45hof1jZxLrZZhHfq4wX8O4lZgh1N2Xc/8aSFm4W2I/HqdhsFETJ+Nq+LU3HHzs+2N5KOR/CiGM6MoN4r2wUt9YcKUiA5g1ND1+WNmVo79uXj6ie4jJ1btdfLfEDF0lm+fP/13QmdYR3L7ad8zLMKzdd/tFNPitiBK3e2kjjYo+ZNe1raJ1aoFSq5t1GndKbhkCxNUx8++wGHRp/Iv/6i2KkuxOsrkpdsxB12jPz30gHz6ucHgQi/LsNjUSRikSqVawbl59y0ZvaBWYTrGciQ7CfIdCaEvo1ZpCbl0m7ARNCFKoW+6lBqtGfjYMraVnVVvFAn8KZOGJ2dOQJ8XNujDIK8GXBbmcv1Jk5w1rJWWbaLTuJn/Q5k8Mt4w0v6QfZtZh/cnU+yVmxZjX4jFE6SRPlNXRTqpT+7lMD60FQk1nfFQA1VK/pXSCnV7J3leK29qL0uL6mOeppOwsuVmCSWKcqkkIobWGmX8UQTUtWrVMrykxJqzeDZhIwQ6WY8dr6E1XLUamrUE6TeMFBmOKqS1oM4zbXiayad0E92/k5kr4hT1pJXyGhbWFs0qNAFGI/K6a2+2jZxr62vGYPUaE4RpNqEb7MV+0EClso5qpYLtU3uxRXNcoqVBEzPnz7lvDGlntSxvY7BXHzYw1+Dhul9A/8gmmslLTfY4vbxeXDnPmPRgx9JpOG+/+V7cet0bqH+NWRaJVIr6l7ZyaGGhEloubdeDVKR4CvlWH21FD9N3J/nGoJVHhxP085frhBYiCpJaINcZzT21nkUgs16joYwhqqfVVWGsHV0imUKKTge5TI/uwF23vQ1X7rnGoojBZLfNLJxGlUqs3m0KbBn5NwsOPQfRfa/rgX5R5AS6euO35uwLGi2TnE2mq5jfqmyxRQBdu0FEcdk4iJbWVqXBJxpmJhfXVjE5MoLD+29DKkhSfFfte89vufZtmM7vxuz5BZxdPEUS6SPjVEiNK5nWdFOWS0KZMUBCx+PCh+SkhqsJxYxHy4hlNGhAiJ7aiax3ItqgK6JHqBlWIW6acZO3UJTT5/zEjxrKXcxu57JQmj5/etXCfKPPMstZs/o0i+O+SR37TDH/LDeVRX99tzqmY/6Ibr1BpqDUscOLLQ+Fsa7Mo8H4lUoBySCOm7e/HX/jjp/Gu679XqRIQR0bHq/GMV8+g49/6dewFMyjSjpojZzar1+DOUYOH1oQ1pBpFGZpVe/WVTFcHSJQiJCVTz/nUrIlJkLmagETWWK7dXcuG/fsvKIYFl2/4X3oz0bO5bMoltaQTqdx4ugpXHP16zA6sYW8kCSxfCSKcRzasReHr7sBk7t248TSi1hYPk9iVuCzAWqlOmJBDNlk1m1NZ0OJAfTOUifk6VS8ZoxhknYsNhYjsWP68GTZULCer4twc/+K1OVn96Gfzl3oC4oaxt0AYRm94MVq5nQ+g53i51E/imcYP0kruYgMaaLyGtXArD59BKqWSlNld3OOWopULRSQYv6Hdl6L993943jvm78PV04fYnxKeHJwoVBFNbeOP334j/DA43+Kql9EibRLeizHzHMxqxCP2qwN0XOrfXsibPBnXnaJ/N2D3fcDhYjGsSv+/pZusjJRlMxlRiRdf7Rnl6eLYeK847lVeNNnL6ogPZzA6soS8h6Hv7U0fvUX/gtuSt6OarmGeDppmwvqQZlMUcNibQXH547jDz/3MXz2iftRzRQQZMuoFmuY9CbgJWiSk8sq9TJ7umb/1Ti0pDwPyYRvH3NX728GOpFVn3ET04X4CD93a9D5HMUZ+KEIRQ2J2wuSXP0gFrB+pJsOwxMD6oPqtXA5TjKnb4LX7Cuy2VSOLougVsdacxG59BDqqx5ywTjefOM9ePub3o1tI/uQqmUxlKZUIp3qZcqR5ggRjuNPz/wO/uvvfgTrzfPIjCWxvla0D7jbFj7Rw+oWtZkDSaLouUUfXuXv5E63v/nZ67sOf/dg9/1AVBGNLwtzeRzTJN6LFOn5kRyHxhLy2XEEa038xx/7CK669npGTsPTV+K1+Ltjr2w1Vca5yil87vH78dlHPoNTsyfIUEU7pL8RozSTdUlDoUFJNZrK2HDYtDVLrBKlog47sy9y2fLfEDPD2+EmsBqGjy2cvwXm0rDVD+INfaZOQ7w6ASWqT6cC2OAl+jVowOiIA33xs1Ftwo8lsCUxjt3T+/C2N7wbt197FzJkML+askNym0wnfcrPeKjHKig2V/HZL34Gv/K5D9HaJvkaZaQz+k52GpVCDX4ywU7r9iqoAh1V//ZnLp3XJf1JGVfZK3PDQ5Rgy1Tcs+yFE/j+t9yH+256J66cuootlCNxPNRINDWiL7KbSGuwRwc4WziJx+e/hude/DqOnz2G5dIyltYWsLi2xPxXmIbDhDZ4aMJMa52IiztNh4wovNy/kNOv4Rj5R8+CS8lc0qtlnMStPuIpeth+TUmdLMaHxzGe34KR9Bh2b92HQ1cdxqHR2zCWGyODeGQo5ksJLFUA4DCfJH2aORSYzbMzX8NnH/1t/MXjH0chQfWA8fX1sVpFXyFLsEwOq+xx8nd1i9rMwbc/c1F8a+u+Tx0jkciQwapI51MolNfZICyOw9kVWw7hbYffgXffdB/2jR0gg0ll5FDCBpNeZed+8blRZy+nkipTW8t3ForncXbuDOaWZnF8/ShmF2dwYvYITp8/hpXKgn3yN+fnkJSOQ7Da6D/EzeoQ+kXPgm+FuagS9oVyc4nDYAnJZgaj6SnsGN+DXdN7MTU0jR1DezE9vhXTYzswmZsmrsOkU4qdiRqXhjPpcbwGYkRhyqLJJ3h+/nF8+uHfwSPHvoSZAq1vqgLxZgEJjgD6gKIYrFItw0+xg3EYdm0jBKM2c/CKMtfBvz9lORrBI2jd6sYVKGhnzqv+9UrCbkP/VoGySkga03tUFCsqguk9hiEbQz4/guJqgXpGHnfe/ib87B2/jCwVXWWlF9zSnAIp6VROkxzuQoxJ8IDO2S5x6l9l6nZlDpuVZgmr1VVjvPOUbHMrCzh67kUcmzuKs6tnsFxeJHMWqKoESFKcJKjDSc5puJGQyNFw0HRIL2iIDeIVU8DVx7TQ0aZUiOQanxNxfQJ4FNtGd2Hf1gPYNrELE0MTdjb87m27MJIcse9+p6lop/w0YmR8VxWzy1WCiuHYRl/thpJCT6ldrVPSEZ8j60/j9x7+FTzx9NdQJcP6KZ9MRIOBzKSd7TrqWxLR9n8azdUGcspb143gmomt1mqvyK8TIg/l42BDOraPXRQ38urMsy9zDYAoYesaEmZDoUTI9ZAovv3aVct0gzqHTXVHMl6DLasGXlwu4M5b3oLve9v34/DW6zHZ2IoRjLL1mNSrk4CKrkGGwLyl0xvfEty7Nz4zS42oekmuOFXqIjW/Sj2FlhUqdNR3zidpxa5T+V1DUV/qolTVDvDF2gxrEzZ0FySIax7pZJrMn0M+M8Rr1pa+TGwbIoNqIKcFTCmV1D3L1ZywclKHF1OqCgZ8rjXXkEhKquoTv/Sin2YuYnRrVPQLVOxLyQW8MPMkPvXZj+HrR59CM01pTubJZLNmTWvvZz4/hFKp6PLtgc4G7ge97Si4UBoHrg1bcV9LzNW+F0O4XuaGwCYqIyUU1mg5FnzsGd6HG/fdjGv3Hsb28V3YtWUXtoxtsQ9MxtWADR0kSz3EK7JhyVGUIjqU3I1TdBGPiPlaDKiZbg7VaTG15IY2d0SzXlRr+OfmurqhoTNfNQ/FNCrDPggg0coK1mschmxOS+yjcumkJ9nw5rwMOLY19aVW9oKkn9XnejRbw9JrWCuvUH9cwMnzL2J25RyePPoYnjr1NcyVTiM+1ECaaoVfSBo99WNzfpov47No1w/a7dAf2u3SjnehNA5e48zldvWQyMmkMZV6oebCmgUyGqVBPEWznVJG7yQ1LI4mqfSm92E4M4yd03twxe6rsH/XFZgancRkdjdzdYwl5oiLOWh5BvqEHJUo5mgMYzSQ5DMcO0SeFBohR9cM9YqNoFRuAFO9VDH7460xtoBZ2GhJT+1WSslSFKgYOjFxjYq5FvKtUhfVqtGXzjyFEzNPY3b5OIq1JZxeOoP1Iq3iGvH2qatKukkUU7TFtaZLYzfBVA1eVY7tVO8DnQ3cD3rbUXChNA5Ev464r7lh0XQDhYfNxasYLp8aQbVcRonSwKM08GUh6VO8rEAiGUeV1pDfTCCbHKISm+IwySYvZXHlgatww+HX48q9V2HH5A6M5ybJZgn7uLt0HA1bJiZccahw3FJdhVLkFCZ+HAhK24rccbUJWwUqsQZV6YN1MhINEN7rILaF5TmcoJX7LK3dE6eP4GTpKZudr9FgKVJnjPnEk52rLKnHrKRJpclUCXErLe0aGbLKKkhK+ex8kd6aSqUGnnfW2cD9oLcdBRdK48C1YSvua465qLTqWtOGWEZKpVN8jmNxfcl6YiZBxVoSgcS2Y641cRiTIq7PizSNoPqOTYKSL+a7RYb1ch3ldUoGMSDN8Z3DB7FtjFbZ1Ba6aUyOT2F8dBz53BDGMnuQpmRIeykq2mRiSpmmFLYsXZ9RJtDwG+iVjWMbvRzWRgnhvlI5R6YvY211FecX53H+/JxNubw4/wjOrLyEcrVCIdlEkkq4TwNC95o8rlZEN0pbKffxFKW3yuaQa18jYd40UvRhghQ7WIK41kiLakUfY9HGF0p3TYGo1Rx5N0BnA/eD3nYUXCiNA9eGrbgXYq4DHczV9u4PXQjwvjVFEf60c1CWkSncmU5XDYU6dJ+EozmtWWv1Ri/GYU2Mp5GAQ5QaUJ9z8clgCTKAljdbcukvlhcbno0hXUrZ+9R7ZCxI59Gsv7RpldukbqdVBfYyl/GKNN+lgmvpT45Kep5KeobXXGIn9SmKiFYdCLwNmrREG4tsYEqaSokMw2et5NDwLv2HZdgrKV51r/r5Wm6s2U3JMaZT2XqTYPpZTV+iVg2In6wUXVknLalRgXrXqZf7el/ZoIsRd5/Ro/eqzgJnKvpbfS1V9BMB03U990IU3o7Ujh+2YvQcETt87mxTbZu1ewWGidr5ENf9f2/Ckg8+9S8srA+0maYbRCwV7e67K+II1H4elEcEnXF7YSDOpkuF9z1wwfLsx8XpjBvdd4YPmhuzebF20i4YTOc2RI1lZZJeYj3z74OXYJD/Ruhs/H7gwgfn006vOGrLCFyaKFwdWVMtm7AJlwk2mWsTLhtsMtcmXDbYZK5NuGywyVybcNmgZS0OAlkBg6wHhoR3A4DBURzLg//ax/JyEJU1qMxOGBTH5oH64WbeL1tdl2oADnruDDfLt+M5iq/3iYOK0VxXP7DXSi75y4LDgRH5Hx0J3saTIV15uOfeevSDC8Vx4d35XyjNpuTahMsGm8y1CZcNNplrEy4bbDLXJlw22GSuTbhsENsXWYvRe6LQAmjZAXweZBO4JcwboSt+T37RO8fIX6Db9rtIu4TQHacN7qHbrw2DrRjWZVB36kjSvu3Ox/J1/3qia9dFT61yN1SxnaLl1QNm4PYD+nfWp7s1woIEHTi4V/sRPV38zjwchDm1vHvDHbST9cYXuAcXpzNAZcfw/wPRiALGxnaw4AAAAABJRU5ErkJggg==;sketch=1;curveFitting=1;jiggle=2;shadow=1;fontFamily=Comic Sans MS;" vertex="1" parent="R7oF_i8hs5CMr6rJJXsL-1">
          <mxGeometry x="40" y="215" width="46.6" height="50" as="geometry" />
        </mxCell>
        <mxCell id="nKe8PpNvJb5CXvGMDtpj-1" value="clean_bakery_sales.csv&lt;div&gt;TempTot.csv&lt;/div&gt;" style="strokeWidth=2;html=1;shape=mxgraph.flowchart.multi-document;whiteSpace=wrap;sketch=1;curveFitting=1;jiggle=2;shadow=1;fontFamily=Comic Sans MS;fontSize=8;fillColor=#eeeeee;strokeColor=#36393d;" vertex="1" parent="R7oF_i8hs5CMr6rJJXsL-1">
          <mxGeometry x="9.00000000000001" y="390" width="110" height="60" as="geometry" />
        </mxCell>
        <mxCell id="nKe8PpNvJb5CXvGMDtpj-7" value="" style="edgeStyle=orthogonalEdgeStyle;rounded=0;orthogonalLoop=1;jettySize=auto;html=1;sketch=1;curveFitting=1;jiggle=2;shadow=1;fontFamily=Comic Sans MS;" edge="1" parent="R7oF_i8hs5CMr6rJJXsL-1" source="nKe8PpNvJb5CXvGMDtpj-2" target="nKe8PpNvJb5CXvGMDtpj-6">
          <mxGeometry relative="1" as="geometry" />
        </mxCell>
        <mxCell id="nKe8PpNvJb5CXvGMDtpj-22" style="edgeStyle=orthogonalEdgeStyle;rounded=0;orthogonalLoop=1;jettySize=auto;html=1;entryX=1;entryY=0.25;entryDx=0;entryDy=0;shadow=1;sketch=1;curveFitting=1;jiggle=2;" edge="1" parent="R7oF_i8hs5CMr6rJJXsL-1" source="nKe8PpNvJb5CXvGMDtpj-2" target="nKe8PpNvJb5CXvGMDtpj-8">
          <mxGeometry relative="1" as="geometry">
            <Array as="points">
              <mxPoint x="190" y="315" />
            </Array>
          </mxGeometry>
        </mxCell>
        <mxCell id="nKe8PpNvJb5CXvGMDtpj-2" value="&lt;div&gt;&lt;font style=&quot;font-size: 10px;&quot;&gt;prep_train_data.py&lt;/font&gt;&lt;/div&gt;" style="shape=process;whiteSpace=wrap;html=1;backgroundOutline=1;sketch=1;curveFitting=1;jiggle=2;fillColor=#d5e8d4;strokeColor=#82b366;shadow=1;fontFamily=Comic Sans MS;align=center;" vertex="1" parent="R7oF_i8hs5CMr6rJJXsL-1">
          <mxGeometry x="130" y="210" width="110" height="60" as="geometry" />
        </mxCell>
        <mxCell id="nKe8PpNvJb5CXvGMDtpj-16" style="edgeStyle=orthogonalEdgeStyle;rounded=0;orthogonalLoop=1;jettySize=auto;html=1;entryX=0.5;entryY=1;entryDx=0;entryDy=0;fontFamily=Comic Sans MS;sketch=1;curveFitting=1;jiggle=2;shadow=1;" edge="1" parent="R7oF_i8hs5CMr6rJJXsL-1" source="nKe8PpNvJb5CXvGMDtpj-4" target="nKe8PpNvJb5CXvGMDtpj-6">
          <mxGeometry relative="1" as="geometry" />
        </mxCell>
        <mxCell id="nKe8PpNvJb5CXvGMDtpj-4" value="train.csv&lt;div&gt;test.csv&lt;/div&gt;&lt;div&gt;validation.csv&lt;/div&gt;&lt;div&gt;menu_codes.csv&lt;/div&gt;" style="strokeWidth=2;html=1;shape=mxgraph.flowchart.multi-document;whiteSpace=wrap;sketch=1;curveFitting=1;jiggle=2;shadow=1;fontFamily=Comic Sans MS;fontSize=8;fillColor=#eeeeee;strokeColor=#36393d;" vertex="1" parent="R7oF_i8hs5CMr6rJJXsL-1">
          <mxGeometry x="144" y="355" width="127.5" height="100" as="geometry" />
        </mxCell>
        <mxCell id="nKe8PpNvJb5CXvGMDtpj-6" value="&lt;font style=&quot;font-size: 10px;&quot;&gt;bakery_reg_&lt;/font&gt;&lt;div&gt;&lt;font style=&quot;font-size: 10px;&quot;&gt;endpoint.ipynb&lt;/font&gt;&lt;/div&gt;" style="shape=process;whiteSpace=wrap;html=1;backgroundOutline=1;sketch=1;curveFitting=1;jiggle=2;fillColor=#d5e8d4;strokeColor=#82b366;shadow=1;fontFamily=Comic Sans MS;align=center;" vertex="1" parent="R7oF_i8hs5CMr6rJJXsL-1">
          <mxGeometry x="280" y="210" width="95" height="60" as="geometry" />
        </mxCell>
        <mxCell id="nKe8PpNvJb5CXvGMDtpj-12" value="" style="edgeStyle=orthogonalEdgeStyle;rounded=0;orthogonalLoop=1;jettySize=auto;html=1;fontFamily=Comic Sans MS;sketch=1;curveFitting=1;jiggle=2;shadow=1;" edge="1" parent="R7oF_i8hs5CMr6rJJXsL-1" source="nKe8PpNvJb5CXvGMDtpj-8" target="nKe8PpNvJb5CXvGMDtpj-1">
          <mxGeometry relative="1" as="geometry" />
        </mxCell>
        <mxCell id="nKe8PpNvJb5CXvGMDtpj-8" value="clean_data" style="shape=dataStorage;whiteSpace=wrap;html=1;fixedSize=1;fillColor=#fff2cc;strokeColor=#d6b656;sketch=1;curveFitting=1;jiggle=2;shadow=1;fontFamily=Comic Sans MS;align=center;size=10;" vertex="1" parent="R7oF_i8hs5CMr6rJJXsL-1">
          <mxGeometry x="19.30000000000001" y="300" width="90" height="60" as="geometry" />
        </mxCell>
        <mxCell id="nKe8PpNvJb5CXvGMDtpj-9" value="analytics_data" style="shape=dataStorage;whiteSpace=wrap;html=1;fixedSize=1;fillColor=#fff2cc;strokeColor=#d6b656;sketch=1;curveFitting=1;jiggle=2;shadow=1;fontFamily=Comic Sans MS;align=center;size=10;fontSize=11;" vertex="1" parent="R7oF_i8hs5CMr6rJJXsL-1">
          <mxGeometry x="18.30000000000001" y="125" width="90" height="60" as="geometry" />
        </mxCell>
        <mxCell id="nKe8PpNvJb5CXvGMDtpj-15" value="" style="endArrow=classic;html=1;rounded=0;exitX=1;exitY=0.5;exitDx=0;exitDy=0;entryX=0.595;entryY=-0.014;entryDx=0;entryDy=0;entryPerimeter=0;fontFamily=Comic Sans MS;sketch=1;curveFitting=1;jiggle=2;shadow=1;" edge="1" parent="R7oF_i8hs5CMr6rJJXsL-1" source="nKe8PpNvJb5CXvGMDtpj-8" target="nKe8PpNvJb5CXvGMDtpj-4">
          <mxGeometry width="50" height="50" relative="1" as="geometry">
            <mxPoint x="150" y="270" as="sourcePoint" />
            <mxPoint x="200" y="220" as="targetPoint" />
            <Array as="points">
              <mxPoint x="220" y="330" />
            </Array>
          </mxGeometry>
        </mxCell>
        <mxCell id="nKe8PpNvJb5CXvGMDtpj-21" style="edgeStyle=orthogonalEdgeStyle;rounded=0;orthogonalLoop=1;jettySize=auto;html=1;fontFamily=Comic Sans MS;shadow=1;sketch=1;curveFitting=1;jiggle=2;" edge="1" parent="R7oF_i8hs5CMr6rJJXsL-1" source="nKe8PpNvJb5CXvGMDtpj-18" target="nKe8PpNvJb5CXvGMDtpj-20">
          <mxGeometry relative="1" as="geometry" />
        </mxCell>
        <mxCell id="nKe8PpNvJb5CXvGMDtpj-18" value="prediccion.csv" style="strokeWidth=2;html=1;shape=mxgraph.flowchart.multi-document;whiteSpace=wrap;sketch=1;curveFitting=1;jiggle=2;shadow=1;fontFamily=Comic Sans MS;fontSize=8;fillColor=#eeeeee;strokeColor=#36393d;" vertex="1" parent="R7oF_i8hs5CMr6rJJXsL-1">
          <mxGeometry x="8.300000000000011" y="32" width="110" height="60" as="geometry" />
        </mxCell>
        <mxCell id="nKe8PpNvJb5CXvGMDtpj-19" style="edgeStyle=orthogonalEdgeStyle;rounded=0;orthogonalLoop=1;jettySize=auto;html=1;exitX=0.5;exitY=0;exitDx=0;exitDy=0;entryX=0.5;entryY=0.88;entryDx=0;entryDy=0;entryPerimeter=0;fontFamily=Comic Sans MS;sketch=1;curveFitting=1;jiggle=2;shadow=1;" edge="1" parent="R7oF_i8hs5CMr6rJJXsL-1" source="nKe8PpNvJb5CXvGMDtpj-9" target="nKe8PpNvJb5CXvGMDtpj-18">
          <mxGeometry relative="1" as="geometry" />
        </mxCell>
        <mxCell id="nKe8PpNvJb5CXvGMDtpj-20" value="Reporte Final&#xa;Proyección" style="shape=image;verticalLabelPosition=bottom;labelBackgroundColor=default;verticalAlign=top;aspect=fixed;imageAspect=0;image=data:image/png,iVBORw0KGgoAAAANSUhEUgAAAJUAAACSCAYAAABMp4j3AAAAAXNSR0IArs4c6QAAAARnQU1BAACxjwv8YQUAAAAJcEhZcwAADsMAAA7DAcdvqGQAABFgSURBVHhe7Z1djF3VdcfXnbE94w9sg20IH8GNCTgBGZJiAiHgBAiY4BqMwYESiqMU8uEgFBBRFFUN7UPfqkpVHytF7WulPlVq1DwleYmUPFWVkj5VTRVi8IxnxvM99869t+u/717X6+45537NvmefMesn7Tn7e++z1v/ss++5H1O549hDTTKMiIz5o2FEw0RlRMdEZUTHRGVEx0RlRMdEZUTHRGVEx0RlRMdEZUTHRGVEx0RlRMdEZUTHRGVEx0RlRMdEZUTHRGVEx0RlRMdEZUTHRGVEx0RlRMdEZUTHRGVEx0RlRCft9/6aPHSlQtSo+wxjU4xvY1s2WjZNSDpRsZAau/bR8tHjtPZH91BzcpcvMIZlbH6Gdv33r2nid7+hSr2WTFxpRMUrVGPXXpo+/U1aYlE1xrf7AmOzbF+ao70//1fa/6uf+JziSSKqSm2Nrpx4gS4//jI1xnjJNuLBq9PE7Id047/8Le344H85Xfy2OclGvTG5h1YO320r1Cjgu0B1/yGq3ng4iaBA8aPySTd37HTBGA1NqlB95x4XS0EaKWMDmegqMkZPOT2Ll8YW+gslpPiNOl757d5Pl869Q0uHP+XSmom5KfoYbzKNXjSpvucA/f78e0T8wie81R38j3+mfb/6d44V/1ihHKLCrbDZcMWTly/Sbf/wlosbXWjUqXbwVvrdu/9ItF5r2c9doCyisTE6+JMfJxNVOW5/XlAtKtQcH7fQK2zjW9/YeMtkHfZjYXWki6dceyp7ZjUcWKH0NiLxi6ByiaqxTvXxck1pS5L4vdTSeXBMX3HGlqRkt79xqo+leRP0mgJ7rYSfVCiXqBJ/ZOOaAR9/Sbji2wbmmoMvTDwUTbhZN1EZ0UkvKnf/N21vCrGfPLdKTHpvuvt/2od11wQQlnuUwHspe6RgjxCGJ8N2eLGTeMUqgahgBNlY2qu/vqmvU8N9ZoqRV8340GMJ3pVIK6oKX1FjmAJfcSXZD2wJIKi9B2n2sZdb2wd3YZbHfolFxcNLMPqD95/Nid00/czrtPjJz7j0xj1p2hXfvLmVgHj4Arz89HlaOPaIvxizVqm0+9TSiWqsYRv3TOp1avJ24fLTX6crx0+ybsprpxKICkt12uW69OCLtzsmaeaZP6e5B09xRmivXuliKYmorl51DXtDuRNekZrj21or1ANPs7ngsl6r1Ef+9udfvZR6e8dOSvJmN4/L+6grj56lhfuf5NtftzmU52IsiSdxZYWvYEoCrxSLn3mcVm//tIsXBsbiVenKI8/T7BfPUbPn86cC59aDdKLC86mS3+kq1VVaPP4UzZw8T/XJ3ZxTkOMgKA6zX3qJZr78KjW27UBmqyyT8ggKpBNVyZ9NVVaWaPGhUzT1zOu0PrGr5eii4Fve/CNnaI5XqQYeFxQ5dgTK7dlU1Gu0/MeP09Tp71ADn00q0qeNBi0dO0Gzj321NfZQpL0FlE5UyZ9TrbOg7n6Ypk+9QXX3FlJxVKorLKhHafrZb9H6js38XldaG9pKpcAtb/XO++nyV75B1etuKPS2A0Et8iu86ecu0Prknk2ObStVB6meU1VWl2ntzs/SB6/8gKr7byxWULU1FtRTNH0aK9TOPsaGjbLsJHkf1ZWqXk997lepr9PqXcfpD6/9iOrbJ32mOGjEIm/UafnoA3T5FF4QZL3ChIvCOaCOrodyBMkb8Zx7kE5U7pHCxpMvfE/Fglo7fA9vyr9FdedUmRPmMVrnYIVa/cQxmj77FtV27fOakDFxRMDzOy0WPSdJh+UF2zAg8e1Pn7w2VjFU1qtUu+UOmnr227SGX55ztx1xzGjB2Mt3f4GmXnqXqnsPuld9LWQOOOaJQ1YvqaPnrONpSCeqjlUK8ZZxitpTOUHddJjef/UvaO2mT/Dw+Fy3jI2jzCnPscODFWrlzuM0de57VN29nwUVjiHja/R89OoFpEwI2xZL4pVKEINow4yQZoOqN95OF1/9S6rvxaZcvigAZ2W8XRTzQS3vodY+fpSmz1ygWvuhqogk7/z7FYn0lZaSiApGkyV9xLATawdupakzb1L1wC3eqTK+EDh3wycrhwMrVI3FPH3mLVq7/mN+bI2cP/J1WVhP0PVBmE5DSUQljNYYFV4l6ny7ucyb8tXDd7tVI3tMnRdH6HgOVbv5CF069y6t3My3Wze2BuPIuDjKuDjqMiBl4dzDdBpKJqrRAUFhM/zB+fdo6ci9vEhoBwrhaunTm7z9uRXq0O30wSs/pFUIKnflyxm/HYQs8Uj55uYag8QzKGh4FlNj2wS9/+bf0+otR9gn4pTQWUCn4XwOYZVB4LFrhz5Ol776Lq0dvI3TWhBaCIhjvIzxXQCoJ3URJF4uCvJqHnq1gPNGYCBeFerX3UDT597mVYIFVQ8dJ3MQx2k2N5/Keo3q+w7R9HPfpZXb7uQhuo2BeSCeJTqAfF2m0zjKeYX1iiexqAAM4a+42B+HYUHh05Kzz3yDFo9+jhcojCWGx1GQfEHHh5wTBLX3AF164Xt8u72Ph8wbM8yTenlBBKPnhXxvQ4mP4gLtk8heHBQxAohsBBZUpbpGU6+9R/P3fjH4HziBAxwyPq54cZwcBwRf9uQV6g+v/RUtHznG3YSCkvE1Oo364RykHMcwLmmBz2HDK8viSCyqgMzbwxBghRobZ0H9iBY+/RA13S0PRs7rXzsAJhGnD2Ee3G53X08fPn+B1nC7be+hxPHdzhF19fhAx3PaothV8eeJD/Z9dFcqBYzg3g/c5JT4Cm1sb32daf6eLxCtrfoCGDmnb4ypneDi7BztFwi+19XPgmpM7KGZk6/R8iePS6Y/CrpTD8Zzwc8ja3wRXEX15+q5iA84Pz72mOaoybFyAmIt1411mnviFZq//yT72PfZdhoMz3k4tB3CYGyEdh0mFFovWHTN8Qma+ZM3aOGzT3AG2qrx5dghHIWcv2S7i0vXUW1w0O3bbX0dVZSCRKLqctbOmMMxtjhHs195neYefq712W53O+CxtMPEWe0pqFuKK+cg9fv9xASvUAhTL71D8/c9xi8OvHBcPzj625L0D+QIZLy8o4A28mLDxVU54hISk0hU6sTxBrJcdW5P5eODAENWV2j2uQs08+jZ1vfjnHjU6TnHMs4ZHHdPtJGHOptwhHNihaaf/Q4tfurzLZ+38QkRsjxFdyJ0kdb5i7D1m+laHLICAamjn8hLOcp0H4lIJCoPzl82584gQ0yHjd/kdnNPnqeZE+eyneEcwgFFCG4l4ZVMftiivbK0km3EUXlgLO5j9stfo4X7n2rrRLR0dWwfh7llfIAjzt/Nhcv1+NIW+WgKUC510Kbdv8/U5QnxZ5eILAO0PzHQJ/zyff6RszR34gVqOAN7EO0IvkxEh6QeX+oBqSvpLLifytoyzT75Z3Tl4TP84mBH0EdWwB+PiraRPNRz9VvJjnl2zJ/jOq3bJCStqIB7xefjQK7iPsAeapH3TzNPfI3q2yZ8bgbiFIyjr/wwLYij8vCCmn7xbZplMdchKLTJ24MhH0UYRwLAMTx/4MTi4xpXn//o+i7tM/rdA46YtKKCQTaQlRcAo/MKtXDiRfrw+Td5U57hGA3KELTRu9lfHJfpJL7dshNnT36d5h88xdsjf/sGcj5hs1AIoJ/xBcTD9iC0X5hORFpRZSEb6jwgKBbRAjv00qk3iGpVX9AFOBBBG70f+2c5CWL+/Gm+3b7Y2l5niaNX32gziP9l/nl0K0tA+UTVC3bq4r1f4lven/I+psstTwMHDuLEHPC9QIh59olXqL5jkp3J3hym30Hb9Jp/hHOLSflE1WVPhR/MwFeppk5/k9bx2W6gbz+jZGWG5k+cpelnv9v52wpFjb+F2CIrFTuwXqOVo5+j98//NTXwhUsB+6mRU6Glx16lafy2AuYiggKFjL+12AIWYQfyarB09EG6+PL3B5uxOF9pYBjw72UX7nrAP6Xvg/a4mxwYROiiaBKKqs+NwPo6rRy5j2Z4U97Ydd1gRtbPhTbNAAPLuFHH3zqUWlQV3pTju3lTL75N1QM3D3/VbmXfDjX3tCdc2tsfvqhQveEWev/C31Ft3wGfOwoGdUBsh6UePz4lFBUbrdmg1dvuoouv/w3V8f9X+l6hhjH4oMvfsMtlHqMYP/YcB6MEogqF0KTqzUfoMr/Squ075PZU3UF76SOFMfX4BkgoKnm+o4VQocrETpo+907r2yd9gfa9xDRKp6cev3wkFFXW0E2q7d5PK+1fYIlFzL6Goejx04o4oai6GDqqoHpxLawi4TmkvYgSiio0RK/0qBAHbGVxhSJKey4JRQX0yYeGQTpLaDqvl/HC+iG6POvqzmqr87r1DXT/wqDtQ8L2WXWyzqU4EosqC20kbRzkI63F1ksIUj8PKctyDNBjhWMi3a1vgPJwDN0mLAM6jnKkJQDdPg/dR/EkFlWWgXSeGAdHnZ9VR+hm9Cxjo35eGxk3HB90GyeLfurnjSMhJMyX88uqWxwlWqlCh2cZOKwDBjEg6qIPCZpeaSEvv1+kfdZ43c5Ft5Og6dW+OEp4+wNiIG04iYfGFJCfE9wbuxJAnvF1vbCObq/jgi6To66n4yBjDhvmqeuDMJ1F2EfxlEBU2gDaEIiHwgLiDGknAaBMgiJIXiVsD3T/iOsyIP1LmW4f1hWy8sO2jBva/WEkX+pIvowNpEzXxUHSaUgoKhhGTl4bTB9D46j8DXaT/iSEcLn7HQKpJ31JnkbX04T1BMmXdt3QdQVph6DnFiL5efPyfbjP+ef1MXoSikobRgyJo+RrQ2l8ed82k4rcrv37VCA8qnrtPKAH0vlZcWmry/ImquuESBnaSgj7zULX6VV3dJRso87G69hXeId0LOc+bwO6PepICMnIb4+pyyTNx/b4ul3QR7stB1dd0iEolP4y6DhXoOtLf2G/KJfxOAzw3clRUCJReTq+oqUN2gtv6HZ7aSsGFzgdOk4XdxDU60h3KXNvMyEtoR983Q3nr8npy2WrskLf5tpIYlH1abS2kaRc0vqIspz2Yb70t6FJTh8dTvLlrqrUlXJpL/kZuDZ63qBL/Q2o/iXanp7P2LDaFUtiUbE1YAAdhKx4O8/XxTLv8qS8dcjE1ZcKPq7F4spxbCXbdLRTuKZ+/q4/HPzxqpdbbGiPehJ8VthGkHoSd/i6mH/WOSSmfLc/AOPAWNqgoGPFUKCKq+brinGlvcuWtroPLujo0jVqtXEE47l85Em5P7r8MA+B/7TbeDrOwVXiwHntusjycUl34Md3ZT501JVjOtKLSozcNjYbRQSFo4Q2ymjtMuRJPtrxwYWs8gxkLAH7Glfdt0GZq6P3O4xu0wHq8kHGb1fjSNv5jJS7jbXkyzi+bAOqfTf6rDYK0ooKBhYj62MYzwq6XKPrZJbLLRNxVd5RD/GMMtfWt5egERHochckz5sbcTlKXHBpHxDXfcoxKw60CLP0WBBpRXWtoR3cQV5+H+T2mcEgdUeIiSqL1M4piTiGxURlRKd4UfFFiP8qVVlf8xmJ0b9Lfo1QaTRorLqSbF+VYKWqUGVlgbZf/B/EfF6fDCOAXm06f064k1EIbuQirtC25Su0Y+r3Pl08aW5/Y2O075f/RuNzl4j6/eEy0E0AeQzTRthM2zxG0aeiMj5Ou//rFzTxf7/lxGjHyqNyx7GHkiyS7h9j77uJZp6/QCu3Hh1MXEY2q0u09z9/Rtf/9J9aaXmEUTDJRAXcfwutrlH9+puouXO3zzWGAvuohVn3i83NyV1s3DSrFEgqqjZ4aJf59NgYCAipBI8jyiEq45rCnlMZ0TFRGdExURnRMVEZ0TFRGdExURnRMVEZ0TFRGdExURnRMVEZ0TFRGdExURnRMVEZ0TFRGdExURnRMVEZ0TFRGdExURnRMVEZ0TFRGdExURnRMVEZ0TFRGdExURnRMVEZ0TFRGZEh+n972Ha7/8XaOgAAAABJRU5ErkJggg==;fontFamily=Comic Sans MS;" vertex="1" parent="R7oF_i8hs5CMr6rJJXsL-1">
          <mxGeometry x="283.92" y="34" width="57.15" height="56" as="geometry" />
        </mxCell>
        <mxCell id="nKe8PpNvJb5CXvGMDtpj-26" value="" style="shape=image;verticalLabelPosition=bottom;labelBackgroundColor=default;verticalAlign=top;aspect=fixed;imageAspect=0;image=data:image/png,iVBORw0KGgoAAAANSUhEUgAAAKAAAAB5CAYAAAC+/irKAAAAAXNSR0IArs4c6QAAAARnQU1BAACxjwv8YQUAAAAJcEhZcwAADsMAAA7DAcdvqGQAACmVSURBVHhe7Z0JfFTV2caf7HtCSEhCCAkECIQl7BBBFFBU3PcNra22Whf0U1wqxaKC1t2qrUpVtNYqooIVVJSiKIKALAoEkhC2hC1A9n3/3ufMHZnM3JnMhhP1/v1dM3MzmXvvOc95l3Pee/Grq6trg4GBj/DXfhoY+ARDgAY+xRCggU8xBGjgUwwBGvgUQ4AGPsUQoIFPMQRo4FMMARr4FEOABj7FEKCBTzEEaOBTDAEa+BRDgAY+xRCggU854fWADY2NqKmpRX19AxoaGtAm/5HAgED4B/gjPCwMUZGRCAwMhJ+f+pXBCaSlpQUVlVWoqq5Gg/RJm0XvBwUFIjQ0FNHRUdIvofD3P/H2yesCrBeR7d6zDwU7dyMnvwC52/ahDk1obm5Co/wuwN+kMn//ALSK4oKCQxAnF9yrZyKGZQ3E4IED0CM5ya2L57HbLFtU8JNjhIaEaO+8Q1NTM5pbmrV3JoKDghAQEKC98w7W19PS0oqw0BCXj9Pc3Iyi/Qex+tvvsOH77ThYfAyNjfVobGqE5ZinUfALDBLxhSMlKR6ZGb0xZNAA9OvTCzExMdqnvItXBNgoVi43rwDLv/wKSz9bibLyarTKSGtpbUZLUwv8xNKZrZv5gnlQtq06uLwIEMH5iShpEYcOycB1V12K7DEjlGV0hmWff4nHnvunfFertkdDvrtXWk/cc/uNGDSwv7bTPWg5HnnieWzYvBWtVkIPDg7CpeefhRuvv0bb4z47pC2fem4edslAtnQLFGN0VBSemHM/Mvv31fY6ZsvW7Xhh3hvYtCUXTSLoltYWtLa2Slv7aX1hKUGo6+Jx/OX3FGSbnz+6donC+LEjcO1Vl8hx+2mf9A5uC5CjqrS0HF+vWYuFHyzFxq25qrNDggOVmDyhvrFJLj4AF54zBTf/4Tfo0T3R4ahvknN5+vmX8eY7i3WPXVFbjzNPm4Bn5sxEVFSkttc16Lru/8tj+Ldca9eocBsLTet0rKIaS95+CWNHj9D2uk5FRSWm/2kOVn6zFjHhodre47SJYGb/aTouu+g8bY8tPNdDh49g3mtvYeGHn6hBHiLu1V0oyNr6RoSFBOHsKRNx4w3Xok/vVK+4aLe+oaa2Fu99tAx/vGMm7pr1GH7IyUOYCC88NNhj8ZFQsSYcgW+9vxS33vlnfPH1GtXB9ggSK5melqYsqB7RYSHYvPEHHCo+ou1xnYOHi7F6/WZd8ZEAsfIxkWFY+P5H2h73OCjCyduRp85Zj2YRYFrPFO2dLTQMK1auxvQZs/HOoqUykP09Eh9hGBOhnc+Hn6zAX5/6O4oOHFTvPcUttWzcvA3PPP8qtkuMFxMRJvEPE4j2ptxT/OX7ukiHFogbevDR57Hsf1+rkW2PoRI/+vnrNzTPrVTcZ450rLvslJi2qqra4ahnR2/elqtctbts+mErjohn0WtPus4+aSno1zdd22PL0k//hwf+8gxy8naKxQr2ipUyw++ih9uwaau4dvF4XsDls2OMcODgYdRUV4nl6TgYbhbRcKObPL6Z9jkDXXFpaQleevUNHD1Wqu21JaVHMoYP6qe+Ww8K+utVa7V3rrNpS45N4mENRVNSXqUCfnf5aOnnCLbTrvWNzZgwZji6xERre9rzg5zjXbOfRFV9lRKKPehS2U71DU2oqWtot3Gfw/6Ra2xsbtRN+NzB9eEhB+VhdQaoOiGOUhXIylcHBYVIdtsDo4YNxoTsUT9u2SOz0Dc9DSGhYWiRLzMHvvYIlA7ZkLMTb/xnofp+PSLCw3D6xPGolnhPD1qnhR8tVy7KVThocvL22j22JW3ScXuYPLhBTW0dNm/dodymHjUSh5055VRd63j0WAnuf+gJhIp2AwL1/761tU3auw2h4REYNiQTF5w1CTf+5jLcdfN1arvt91fj8gun4mRJOFT/hITJX/mp/uHfHsd73s7lJISdsOCDJSobpEnmyTXKyKRIevZIQg+xRP0lbR8sGWf/fn3QpUsMwkUcnKYwuYM2NTfIeUG6tA2bf8B3G7dizfpNOHr0mPoePXicwIAgvPuvFzAgQz8D3Fe4H9lnXIa46AjdTjpwuAxff/ofdW6uQIt/yz0PIT8v3644zLCjmCDMvv923XNwxJq1G3DF9Xegi8SZ1jSLVWL7fvTe6zbTSo2StL0w73W88q93EaRzfibD0Cb90RennZqNM0+fiMTEboiK1G8nDtJK6ZuSkjJs/H6LbDnIL9iDvILd6nf8i0dn3yvXeY7pDzwgYNasWQ9qr50mZ8dOLFvxtRqR4dIYZ552Cq667AJcc/kFuPzic3H6pJOV+OK6xirLZJoj8xcB+ikRBsn7sLBQ5UoGDsjAyeNGY5D83H/gEPYWHdR17Wyomro6sTDNmDzxZG1ve6Ilw93w3SYJ5I+q41nDkda/TxqGDR1s2uEkO6Xhl3zyOWSwdiiqZhmg/sFhOHPiOISGujb/uPi/n2DD91tVUmVNdV0jpl12Pk4ZP1bbc5zCogOY9/oClJWVqVBDj9MnTsDMe27D1DMmqX4JkfjQ3rWwj9g//BznZU8ZPwbjxoxA716pCJdkJDWlO6ZOmaRE7CmOh7MOPOkxI7Jw/TWXYva9t+G9f7+IubPvxlWXnieJwCDEisXrqJOs4Ygelz0STzzyZ/RL72k3/giXDl3z3WYcEXejBxtuigyGOrEIekSEBWOFyqidiz8JrUfR/kM4xvjTiesK8PNHdUUZio8c1fY4z7tLlqvEQQ9OTU0WEemxPbcAe/bu1RVfiwyIHhIG3XT91WpC2R3YP33EJXMA/HX2fXhy7iwMGpih/dYzXBYg4ck8cN8d+MNvr1LuMDIiQnOvnsH5vrum34T6Jvux1sEjpciX7NseY0ePRLOdv2dC8+33uTjsgji46rFj5x5UVde3i3wozBDpGArOEmqgvKwcBw4VO4xrrSnYvReHjpbqDl5OQY2QBIsu2BoOpj2FB1FRZd86Z2ZkIHNAP5cNgzXs40hx21yq89aqj+eq8TIjhw1B9ojBdrPZQL82CQHytXe2JCd1w+hhmWJF9UUYKmFAngMBW8Nsr7CoUMTW3i3SJd78+2uQnJzQbo6SnVxSXiGiOKDiZWegUOnmw+0kD7RiY0aPkHDGNjZsbGrCoSNH1GqTHgH+ARgxOMNj8Z0oOp0AwyPCMGBAf2lY/WyVnZ2/94D2zpaIiHCcJO7cFPHZ0tbWgu3b853OhsvEmhXs2ttugp2CiQgPxfjs0WpFgAKxhCEEl9MaGhq1PY7huazfuEUEq39OjKEHD+yn4jZreC5c9rSXG1F4en/XWeh0AgwJDsaAvr3szmOxwY8dK1frz3rw74dk9kdocIh8Vttpiezclr8LdfX60zXWcGWCiZFlUsOMcoCEId3iumJY1hCbmJPzeEVF++2eozVV1TXI212oe748VvfkRAzM6Kcb5vhLCBAcFKx/rQLXfvfs26+963x0OgESZrMRoWFKbHq0icVpPy91HI74dMnWeki8ZC79soT7CiWpKC52Lg7cmpMrAmtvmZrE4qSn91JZbmZmhliw9haQotizt0gt3znD/gMHcbS4WDeJ4K7+fXqjpyQSenDaKjY2pl0YYAnbadW679UUVWek0wmQAqIAw8I5CapPowiAsY89kiWZ6ZWWQrXZwE4uLy0TER60K3Az/P03a9YhIiRI22OiUQTXvUeycm29U1OQ0TtFOvq4ADjdVFJeqY7REfy7/QcOo7KySonNGhYfDB08QM3Z6cFqobSU7pLh2xYuEM5b7i8sxL8XLELx0WPa3s5Dp7SAzFZpRdwlMjISI7IGwU/HZVHgLMbcKXFdR3HgsZIy7Ny9r537pWTjYqIks0xXnc95zgHy2jrpaW1rxbdrN2rv7MMJ5ryCPSivqlbnZk2rtMPI4UN0f2cms38f9O7V065XaBY3/MGHn2L2I0+ryW4WBncWOqUAPYWCYTZdY2e6r0ESnAIRFlcQHFEocdy+g0faJyDSyYmJ8crqEFYQp/XuJd/Z/mAhIs5V367T3tmnXmLRHXk71fdaw5mAQX3TkC7f74j03mnI7JeuRK8HrX5TSzO+Xr0ev79jFu6b9agKLZzN0k8kJ0SAXDtlGT4zyCNi9g8eKkbRgUMq9mJcdFjirxJxg5VVVairq1dC8HZjsGJkQGqS7qR2oAjqh6056tiOWL1mvSozsyY+Lg7d4uPUaxai9kpJkYZsb6EYmxVzzrJgt7ZHn+qaGuTm7tRd/eHk88QJ2YiJjtL26MMsedoVFyAg2H7czLPjQApACz5evhKTLrwOl0y7Ca++8Tby8nejrLxCTTn91HitJJ/ujELbs7dQuRTOazEQ56pFmcRDFdW1aiE8PjoSoWEhSOwWh+4SqyUmJKBb11h5nYDkpER0k/1cWprz+PPiAm0nZmkVhg0fjn8++5CKFR3x4j/fwBPPv4aoiPbxETuJVnDRWy+rknM9eD0XX32jspTtMmD52/PPnoI5s2YoF0zWbdiMe2b9FaWl7c+3vKoWLz39EM6derq2x5YVK7/BrTP+omI1y7/lOR4pr8aqj/+jljU7gu735VffxHPz/qXWgx25bDMcnFU1DQhu88eoMUPEawxG9ujhSJWEJykxQSVZznyPJ3gsQDbUbhEdS+JXrFqHw4cOq3o4Xpxa+5UYhtdgvhB2IKHL4fwZ37HxgwOD1Ax7dEw0wkJCsG9fEeoabC2UKwLMzS/AuClXokdSrLbnOCw9mn3fdFw37TJtT3tYUXzhVTehtrZa22PGHzNn3IyrLr9Qe28qVrhz5lzkiFvjNZuhBTtr8sl44em52h5bnnruJbz8+gKbJTjGhukS13347mu6a8N6VFfX4G8vvoZ/vbNIVf84Kx72IWNYfjwmKgopyd0xaGA/jBwqghw7Ull8y+vyJh674M//9xWu/cNdePG1/yA3L1+5VZ4si1RVMiGvLRuC8Qg3WhV+hg1F10DBlpaVYc+evdgu36MnPlfJoBvuy+Dc1r0HybmtXW8/SSjYtQfVtbXau+MwKcganKm9M9G1axekM+u26iNWdq9c/p1aLrPH2wuXqHawprahERece6bT4iNcJrv95t/hmisvkXN3vl6P/cMQgP3FkGDHzgJ88NEy3P/w05h6+Y14cd7rKpQ6EbgtwIqKKsye+zSuvP5ueV0uojLFGO6abP4Z/5aTrXrzYe7A77r0oqnSmbbJRrDEdos++VLFq3pwuc/fah6Hg6RXjwRJQhK0PSbCmIhIUqJ37Y1hXPrbpb1rDzt1177idkmOmaaqJkw4ybbypSN40xIt9CMP3IW2gFARoWn1yBUxsv15Jf5+EqrUVOLxf8zHhLOvxKIln6oSOm/ilgA5ifvIky/gnUUfi7mOVR1tD7pcuk26I5ZvNchPrhxwhNfJxiU3dixjGLN79ibjxo5SKxN638yZE941Zg2Toi07dtqIkx05KLMfusZ20fYcZ+TwLPm/bSIRJEfmbap6l7Z67XeIjLIt2WJ7jB47CAkJXbU9rkGrOe2Ki7Dk7X+o5CQtNRUhwSGqrVXY40I7U5BdIsIQKNdxy71z8eeHn0D+zt1eSxpdrgdkTdxLr/4bi5d8Lm7UfGufLYwpKLo46azMjL4YPWIoRg0firGjh2KExBaDMvuraukeyQmqzEouFU0Up4iSf0sXrWdRKNSk7t1x3lmTnFrjZCkRA31abOs4hm/TUpIweuQwbY8JllItWPQJSiQJsvyb8up6VUHMc7fGT1zzkmVfoE7ctuV5c9UmTmKok08a1W6g8jreeOtdlbRZJjmEA/Hcs09XtX/O3paqR6y0ffboERiXPULCkV7qjsB66b8yaQuKkRUtOk2sC6+JE/I7dxeqxGxwZobEhu4NEEtcTkJWr9mAab+5A5Fdw3QFQipr65HULR633DANE8aPEYsRI6PSdOO2+W84Chkbca2SATezzn2S/R6WTPrrNevVnV167tGVJIRwqmXOk3/Hu4uWINw60JfjDxnYH2++8rd2Vca8t2LGrEdUImIZDpRW1uCrj99G33TbeTmWbd0z82F8umJVu5iO55uVlYV5zzyoBGGGdxaeNPkKaYf2sS6NEy3Y3L/cjbPPnGy3jV2Fbc1pFk6P5YkFY9L42ntL0drUhOjwEInFTXciOgPvTTnnjImY+8DdKu70BJdccG1tHR5+/FmEdbGfntN6XTz1dHz83muSYV6q1mW7xMSoKhWm9bRa3Pia+xiz0KUliGBpJc875wzccN2VYuWSlJXwFB5rzPDB6BIZaeOGGXRvyClAUdHxJTO6lvzde3HsqFg/i2uk6xo9pD+6JyVqe9rDx1qw5s66iofxXV1NlZr3tIQib2y1nXfjwEzqnqiqbLwlPsLBz3IutvOEcWPwyIP34cCWr7DgFYnjLz4HETEyOPwClPXtKBQKlfh5wdv/xVffdDzR3hEuCXD5ipXYLB3GjtODLnfKpPF48M//55F5bmZcaCc5cBW6vd5pPdWCvd5qQ1igv1iE40kCj1uwp0iseJ22xwSFlZU1SC292WP8SWNsKmOoIU7yco7UHHsxlty9pxBBdgTWX7L3lBT94gNvQtc/+dTxmPPAPVj6zjw8++hMnCNWl4OMInQUK8YmxuKZF+erqR9PcFqAXD/8bMVX6BKl3wG0HJEywmbePd3j54iYlpTk4r1kAJKTk9BdLKoe/mhVUy5mwddLDLqvsFDNTVrCTHp4B/eScEmsb2oP1RZmaMXKKyqwa2+REh7h8tv673NU+GENB8zwrEz1cKCfCp5jQrc4nD75FMy+///w+EP34cJzz0Cjdr56sH225e3Ctw6mspzBaQEWHzmGtZu2q2UfParrGnDVpecgyQs3qjCeapHNWw6ILp63guq5NLr57RITMbwgjJH2SJBtKUBagpiIUAwZ1H7+zxo+OOjk7JEqRrKEot6euxMNjSaXyxWevapGz9bCVDe1YsSwIe0Slp8Sumkef+bdt+E2ieErqtt7AkuiQoOxdt0m7Z17OH2VnCSuEytox2sgQhr/pLGjtHfuQ6vPKhTeFugtE8j4h09OaLFz8oUSA/KOPMJ7M4oOHraJ/4YNGYj4rrbTL5ZQ4HTTXOazhJPerMdr1OYj98v3l5W2jzEJk6IxgzPQr29vbY9v4HVQiLffcgNOHjNMNxkkXO8uOnCgwzV1RzhvAYuP6sxymWC8ECmxEZMKT2kT93uo+BjKK1mepO20RPap7Fk2Vxic2R/RkdE2cQ2PUXK0RGXg/B2f8sUH8VhaS9b/paWlItiJaZ+B/fuqbNLyKLRmfFrCUbF8PG+udZvq/9pfYE1dI6ZOOdXmvl9fwidisdFtbbWp7crKq3RDCWdxWoAsL7cesZb4yyjno9U8hTesq/IkK6GY4cxjU3OT+pwrxMRE44KzTlHisoQiqJWYbK9YKMaBq1avU0tolnCaKC21p2TUHQujR3J3DEhPRatF/MRHoR0tLVfJDie5d/CWAJ1y/erqekyUpKAz0SM5EdFiWBwlJJ7gtUCDZtiTh/KYYdUu12i5VGYP0zBwrUEotDNOOxWlNbbCZYk9Rc9nz+TkFigLZknX6Ag1Ya23ZGYN40A+Q483qJsxn+/6DZtVO23ZkqNKwixRqx/D+qtKlM5EUFCwbmEvoSYjIz3zek4LkJlts51RQMtYKxbp0KHD2h734ETp31+aj/2H9NdHCY/VIsE8n6PiKqNGDEWozrIcY7Tvt2xXFqpMBpHlsZmkcEqkX3qatscxISLAAeKGA6y8BSenKcCqmhrkSdZtLfIGSVx+e80VDr2ML9iRl4/Sikrd82K2n5TQTd0X7i5OC5BTGQEBDpaF5Pw+XLq83RSEK/DBjM+//AaWfr5SW5rTh+1QWlbu9E1F1lx76dki9PZzdRRDeXklFrz/XxVYW5PcPQHxWgFqR3AVIy01RVlCy/FKC3y4uAT/+3KVem0Z/9G98ZEXXGd2B7p1Z28BdQXO8b397n/tGoPKmnoMHeJ4ZqAjnBZgfFws+vfq8eNcljUsq1otKTkb2FX4ZKcnn3sVr765UJUFOYIdd0Rc5ffb8uxmZ444bdIEU5JgZc3VPRzrNqvrsITxG60fV2ycJaV7IuLiuoqlPX4MWhAeY75co3WHcvUos18f9ExJ1vY4T6Uka08/Ow/TZzyItxcu9ujRcJZw3vfpF17B1h35un1CQxMXG4OTx7lesWOJ0wKMiY4WF5aFBjt3o1EYdDP3PvSMS5OT367bgOl3z8b7H32MYBY3WFgGezAnW79hE2prbOv1OoKPJUtPTVaZuyU8rt5tnCyo5bKYdcGAI5KSEpCQkKAbpurFyXxwOx/Q5GiVxR5HS0qw+ONlWLl6DR59+iVccu2tmPXQ4xJSbHV7NWnfvv2YMXMOFi6WPrEakGY473vJeVOUZ/QEp6th2EG0gq+8tRjhIUHyXvuFBfxMS1Mjvly1Tv2elTD8GLNWZtHmR7Lt2r0PX3y1GnMffw5/f/UtHJNGZBx2XHx+0ikSq9mJOSmGPfsOYGhWpojDudjMDC3ajrxdKtnoyNqSFv9A3HHTdepJUc7CdeF8iSdzcvO1BOQ41u3GK4yOjMSVl56vihycGYCWMBxZ9NEyNRUil4YmaWc+pfXDpZ/js+Vfqmqbymr+Mxn1aGluVclOoyqDY2mcqU9YGMGQJley8/lvLsCTz7+CH3Jy7bYPvWBifDwef/j+Du9X6QiXq2EeffIFvDL/HURKZmgPBu5cF06R2Im3C5ofDM5SoCNHStRNScWl5Wq6w/oia+ubcNG5U9BLrNTL8xdIB+q7fH7/cLFm8198yqWKDE6pvPXuIjwjjaxn8SxhZ2X2Tcfr855R0ziusPCDJXjoiRfExTg+Rou0VZ/03vjbY7NcHkyEE+fTrr9dVW9bJgqqqEC+m2FKvQivR3ysDKIuqq24cZCQ5qYWVQVdUlqKwgPFqn34MHJ7KzHqe/0CcNctv8Nvr75EPWrPE5z3KxrXXHExBg0aYPO0AEsYY/GB5VzRWPvd9/hsxSq1rfp2o7rPls/5iwoPbSc+XtjR0iqcf9ZpuPPW6zFNjtNHxMtyJj0Yq636drN0wB5tj3PQerI+MT5eYjQ7FtYMjz1i+GB1r4qr8J9RaHWqedtUrV53qypr55GwhabPCoqRy4m81yQ2IlRZub1FB7AlJw9rJFZfKV6K2+p1G2VfrnqmItuUDyN3tAxYWdeIKy46G5ecf5bH4iMuC7Bnz2Tcf/fNqqzH+qE81lCIFBkvjBtfUwDWboYBLZ+yOvPOGzHnL3epyVw+Z/De/7sRNXYmnFm4OjgzXU0QuwKPzeqYmPhuyvo4orK2AWNGDXfZLZJUyYR7JMY50UYBGC0i5wMh3aFbXBf069fXZoLdGl4Dkx/2ATfGdtz4mtVN9jJdM+wj/jMU06+/EjNu+71uVbg7uCxAXgifCvXw/dMRHdNFmXh3Z8npIujmuomYn5rzJ9x842/azSmxvGn676epUn7zEWgpeXvn5AnZyv1SqK4SK67opGGZDoXF49AauPtvfkRGhCN75FA1sOzBdmuSLhgzcphbIifRkhzec9sNyBKvxDZim/LcvYVqb/nO8PAIvPjkbNx75y12HxPiDm49opew9GjU0IHiNitQcqwMlZKR0uyzHR01Ji2C6T6QVvUdk08Zh/vvvFmywDFiHW2D3oGZGao8Kn/XPtSJ+U9JTsS14p7vvuMmJCa4V3nD0U7hrt7wA0pLy0z3qshAYBEBJ4QbxfXyhvObf3clThmf7ZY46Ma6xkZj2RdrUF5SgQYZqPxuyy1U3ONvr7rQo8pn/h0flTtpwliV9DW1yKBuavqx7J7fys+48v1MMhp5vhIfcgbg1PEnYeaMP6pbBLxdpePxfcEsX/pm7QZ8u34ztufsQI5kUsfKqxEY6I9gbeqiSUTHJ0jxKQMZfVLVEzuzsgZi3JjhqmI6ONj+Ij+tBBfvP/x4OepEKKefmo1hWYM8ulfCzLbtedieVyBZYj0CxR3JwdR+dla8iIf3cXia5a37bjO2bStAo9Wz/9iRPZLi1ZMPPC1rt4RZMTPfHfmmh4rvlhiZzzc8IEaCbjQsiLfKthcR25iWs1YEGyrtMDijtyRG6aqyJ3vkEO3Z0J6v8+vhlScj8AI4E8+Zc1Z88KlQTEAqKirUTTmsIknu3l1ZL8aONOF8+lVHcYclTTKqeaL26hHdxV744K5F0oPH0DuOt62JJTwelzbr6+qlT8rULQH81412S9bMfuIDmsQuiidqRoSEPcyQMySW7JPeC13FO3Dg8V83OJHnSLwiQAMDdzmx8jYw6ABDgAY+xRCggU8xBGjgUwwBGvgUQ4AGPsUQoIFPMeYBDdrDFZvWJqClEWiulZ/1QGMF0FQN1BwFAkOBthYgJAoIjpafXcWMBcr+SCAgRLZgUZXzds0QoIFJcDVHgPJcoGwrUHkAqNgrPzfLfnnd0W2/EbFA13GyZQBxg4Fuo4DodJMwO8AQ4K+ZljqgeCOw/3/yc72ILg9oOCgWTn7Hzbwa2dGqpKWCAsUqxg4ARv0ZSD69Q2toK8CWBqDwC9Pr1Mkms2rwy+PYFmCdiOSIWLlWca9t0u/eWv6mxRx4K5D9sAjS8X3DtvIsEzP82cWmbckFMjK+lRigSk7QMJS/CKrEpX4t4lg8Fjgolq+V//i3F8VH+F3Vh0WI+jewWWIrQAaW3QaKcuX10a+AT84GvrlTzPQKUyBq8POlYjewfBqwY75JJNxYsM3tR/siOwMkoQiUuC4w3mJj4a8ml3af9wxbF8wHzRz8WszzvWINt5lOkp8ISwPSLgT6imVMGqM+avAzI3cBsOoGILSbGJo4+cktUTLZLkB4grwOk/4OAILkfYC4Tj+WvlEAAl10g1i1+hpJVnYCh8U41ct77dftoEB7XgJM+od8t+OKdf0khGl2iYhvxfkyaiQ7YqEyP+UnKXaAjIz0c4HhfwKiUtTHDX4mNIl4KgvEmom4gkQYzFIpOP5UrzUL92PiYKUuPjiUG6dmqiVLXvVHUwxp7UcpwHSxtBOeFaE7Luh1nAXT5a4U97vvffmkxTPgGGTyoMNmAf0uByJ7asmK3nAw+MVCS/j+cOl2q3kalYRMlyTkIRG740pqa+22J0higYmi4kG3yeuuJitIzLdubJ4LLJ0KbHocOLBKTHSF9guDXwV02+Gpx3VhhnYoRvZzUroDHAuQUITDZwAjHhR/LgkKzSvhQfjXdZJVbXlKMqtbZLsR2POJxAbtnwhv8AuFty0E6MR4QaITekW69w7oWIAkVILSzOuAqcuA6MGA5f01yuvKjppdwN6PxGVLkPvRWSLKl2S3649QM+gEcGXk6A+SiIphKZA+tefZGqV/m3SeUhbRSwTo3GOGXV8JaayU4PM+Edt7YnolqNUL+/iNtJSUd9YDQJ9zJGGREwqKcGpUGPzUSIdx7ZfzvUe/E+PxgmS5X5piOfZXxtXAuCclobCydiU5wOJR7TXAvk+WsGziP8U9x5v2OcB1AZL6ciD/LWD7a5IN5eqLkJiFGCbpftIZQI9xQOJJYkVlhFCMBr6nVixY6Vbg0Bqg8HOgTATIfjP7Rr6OHQNMFkHFWv0TZTv/C3xxpSQa2nvSJm8GSih2kuQFfpa/0Mc9ARIu2R35XkbLc2INF5sSE0dC5BYgGVF0JhA3BEiZAnQfK6bamMr5yWHfleUB+8XKHVgJVIgRqeU/G6HFVpb92CpK7H0JcLL0c6jVE8KW/8bkCS0DOU7TTX4TSLX/j3Rb4r4AzTDh2PmuZMSieE5UdhRV8mhq7onlO+FiGSWN7/9H0+R2B5OWBh5SLSLb/Rmw4wnpt3oRorjcVonj7IVRXEnrcxUwfq7Edd3ljcUH648Bi8ZLElqo7RDo7eKGAed8aprcdgLPBWjm8HoJWm8FjvGfvXIh+TBn1WGStve5TCyjjJwu6aZZetaeGTGjG0iXMpFokn6oPWhaVMgTS1Us4muWWI9Gwp63Ukibc6J6mMTvWWIc9Dj4jVhAcb/NXEvWoAEdNQcYebfpvRN4T4CE2dL2+ZI5iQmmWScOL9QCngXFyOdQR4uLTpDgNlGsY6y85nwTR6C/d5+K8IujSSxa7RFp+3wxBJLFMkQ6tvm4lWJfOOoPpYRgCY0kPMoSY9JjgrS5ThzH1ZANj5qm31jIYCYwCbhkrYRV+v+gox7eFSBhRe3RDSLC92XUvSFmXjLljtyyJeaz4U/GjBFpYh3lgqLl4rpJg3QZLGY+wzYe+bVSuQ8o3ytiWyHJxE6TAKt3i4uUcIht2JHozDDjjZS2Hjwd6HUuEMV5PDsdVyeJyxd/kMRFLKr5u/n3Q2ZK8iFW0wW8L0CFfCXNPytsV8tJceGaA8mZhrDG8uz8JXOmKINDTEJMvUhEmQXEiMv+tcSP1eJSWaVcJAnE/neAqnLpfHGrjOfatPInV9qZXsdf2rSPuNPh4jqjJBTqqJL5yEbgSxFg1Q7TsdhH4SLec5ZJX9j+W8qOOEECtIAZV/4HwLa/ywmLINtciA/twTPmply2xCtcDmJ2nTBSrONAUyOw4oOrOHTbXBLyd5SmdyJaKSZu4kkaJMFrqpSMVeJq1mWWSPtViltlAqCEo21uI8LrKm01TJKM1NOknZwoPqaH2/YPiff/dPzYnHoZej8wYoZz32HBiRegmQqJQ3YvlrRdxFjynWmft/RgFiQ3ficrMMJ6mya/I5NNVTvhXcVKcu1SXgdJwweKNeVCeZBk4j911TerjViZ0iDiouDqS4FGsWSNjN+KZNsjlk5e1x2STV7zpiBem7nDPWk3NWhlYMYPBXqeB2ROk8Ha8YTxjzDOXyHW7+AS03nwvGLluya+Yppec5GfToBmWHFd9LmIUWLEI5ukUaUzvG2YLK/I/Jqdx4KKMAqQoqM7lyw7WH7y34BjIW6o/C6E9XGsk5PPMgsP1BbU/WlFZaQH2kmEWuQ6GJzzTjLCukpashoREYXWKHFTY7EpNmvQBMhVpTb5TJ0IsEkE2CSi4zOxze1h/dMTKDxuiRJH978aSD7FtCDgwh1simLps2XnW2S/IuZsSUgyf2dqHxf56QVIaMYbpMH3LJWs+V9iESVzYju42BZuYe9qOd3DekcGq2qekj/lhMwPAOdPtfhuRw2t8sX8bvM/5MNbGLixLJ3C5BwFYzRznGaNN0Smh3Y66DZOEozbJLM9VQaXxMvuTm8xps95VtpBXsslYcDtwHiWXbn3jGvfCNASup99y4HcFyWLy5OLEhP/UwjRXcwdag0FdKJE5CrsUQosQKw63SJr89Imi0jE8ntCvVi9hcPEcksMymMkjACmfiLew/0E0PcCNMMVlaIvZPtQ3PROyaBFjK31natjOzscHLTcMYOApNFAygVAd/nprRmCLZJIrr3HZCAS5XtPmS/H6mv6nZt0HgGaYQlXeYHEh+tFjCvl55cSI8nIowg7s2X0Bew5c++F9ZS4bpJs2ZJgjDQVDng7uVo4yhTD95T4MfsxyaCZdHhmHTqfAM0wU2yUQL1mL1AoIty1QGLFrfIL2U8h/pqtIi0de435UPxZQB9JChjbhUmWzwTL1cTCWWgBayRkGiIJR4QkbF54jnbnFaA1zSJGuuZ8EeIhiRlrJJtsdnPy9eeGuYf8OAkfJYlnklihS4G+IrwuViVSPzN+PgL8ETlduuSS7aYbq0vzRYwHgWr5yfkyYhbjz02U5p4w/6QhC0sXa5MKRIl16youMEUsXXSaR4F/Z+JnKEArOJfG5akqsY4V+0zCLJWtZockNvI7QiGat86EpeDoVjm1ESUWLVJExxgunq8zZBMBRnTzfkzXCfj5C9ASxo1MYlhaXldsqvZl2dChdfK+UAQpW5N8hpjDpJ8qsWErm1uaYuNgCIuXDFWsWZd+QIJklQlZpqoflqJRbGpu7edmxl3jlyVAR3AJqVZEWbkfOCyCrBSLWbVB9otgue7KlYtWUQZF3MZJYwpVmzwmZh2YW8tSFz/u4+Q1J7NF1ZaT2QFcj5afEZKpRg8SyyauNF4yyLBY2bQ1618pvx4B2oNxI2PKhmpT1t1YJu+5bCY/udzE5TO2kGY4f8xAaTnNIuRrblzq43IeJ4B5HwwtHNebWc/IJT8ltF+2RXMVQ4AGPoXj1sDAZxgCNPAphgANfIohQAOfYgjQwKcYAjTwKYYADXyKIUADn2II0MCnGAI08CmGAA18iiFAA59iCNDApxgCNPAphgANfAjw/829DUrGj8jhAAAAAElFTkSuQmCC;" vertex="1" parent="R7oF_i8hs5CMr6rJJXsL-1">
          <mxGeometry x="278.92" y="2" width="23.81" height="18" as="geometry" />
        </mxCell>
        <mxCell id="fAT1gj4aSR1Pwk1sE-pQ-1" value="" style="edgeStyle=orthogonalEdgeStyle;rounded=0;orthogonalLoop=1;jettySize=auto;html=1;sketch=1;curveFitting=1;jiggle=2;shadow=1;" edge="1" parent="WIyWlLk6GJQsqaUBKTNV-1" source="nKe8PpNvJb5CXvGMDtpj-24" target="nKe8PpNvJb5CXvGMDtpj-9">
          <mxGeometry relative="1" as="geometry" />
        </mxCell>
        <mxCell id="nKe8PpNvJb5CXvGMDtpj-24" value="Entrenamiento" style="shape=image;verticalLabelPosition=bottom;labelBackgroundColor=default;verticalAlign=top;aspect=fixed;imageAspect=0;image=data:image/png,iVBORw0KGgoAAAANSUhEUgAAAJwAAACPCAYAAAAP+rJ4AAAAAXNSR0IArs4c6QAAAARnQU1BAACxjwv8YQUAAAAJcEhZcwAADsMAAA7DAcdvqGQAAG3LSURBVHhe7f13tGbXfR0I7pu/HF5+r3Ih50wUAQIMYABJMSvLklqpbbft9urVXr1mueeP9swsT/dMr17j9sju1ZYsUaYsSyRFUqRIggBBEgQIgCRQyIXKObz45XBz731egQRlogp0AcUCUAe8fF994YZz9tm/vU+0/vh3RzkupovpvKQc9ulXF9PFdF7SRcBdTOcxWRcBdzGd33QRcBfTeU0XAXcxndd0EXAX03lNFwF3MZ3XdBFwF9N5TRcBdzGd1/QmA5w6TV75iOMIhQLgB8A4TDEYZ4ALpA6w1s+Q8bPMA0K+PY6BhH8dfqbfjqOOXpwl/fTrvnQk6RCul8P1eR3+l/Bdm9fM+e8RrxVbPPheyr/56UOvIwwwxio/eeOntxTDNeo+Wp0RVlY7KJRy1Os2kngEh8W8ZbPNvxEcO4PnZXAsQiLNkRIIQcHCRLN++iz/5alcKqHdHmNlpYucaPIJ9nAQEmUppppAvcTvsDLYSPk5f8DDZgl5bhm+wy+8CdKbrC/1zI+SsvDSKIRN1iqR6iw7xXjYw2g0RJZlaNYnyCo5C5vswyNNHKSivzwwbeQ+mejM6czXz20LHu/B0nH6PRKduf6QR6XomWuL2WyXFcArIrN83gPvm3Tovwno4S0FOOKHrGKB5IWQcdNmsZcCCy7fV6HGY4avOCa/DOEx1NmeawCXxB6ZzkGB4fbM6czXzxwLRTJYRvD0unyDX6+VyWC8/pjXznhYLm/Ojfk3ZTglA+cuQUgq5He9H6H0jZveBHXm1acoTNDvxdRj0nE2w5WFFgt+hfJoxMIuMqQFgQffq5MFayxkAo1ItJ0Y5fK510sxV7sbojdMUKgQQGTMpbUYp1bIpvysXOVRtlEIxKglspptmNdhKQXF0yd5g6e3FMN1BkPqMQ8WGSXJyCLUay6Bl+YJoiiGn02RfXKGThY3C1hM1B/0WPgZSiWP/yYiz5jOfP3MTZAkibme5WS8PjUi/9P9OGS/tFNlJXB4MJzyPek3kwhGfdOK+eYbPL2lAOcxfOZOjkG8jNBawcLWKq68cQOaszZdaYhv/80JdFbGSAYV1IsbUWYMS6npbQKkWHTQH54tpp39+nGeojM6iTBfwfy2Mq6+eTNmNgRkuARPfPMUeu0M3TVWirDG65eN5pN+i8IRmfeNT3NvKcC5BFBrsIjadIwb7pzH1beTMSZYmvYi+WMAp3s5Hv9uC08+soRkbQJVdxq+Tkl959oxEutsIu7M13cYwrthD+VmiCtva+IaXj+Y5weuBF0fGC7gxae62PnwKk7t42fJLKoUfdJuaUxGpJF4oyfnYzf93/+n068v+DROUhSocdSOFTI0hUnIcEQTwIJQ80WWM2QGPhzLYugim2RD0/aVZz4Cfuek9Qw232Dhg7+xGQs3ER6FISJqNMuZJFQmMQj3Y/u1M1jYXMXRpf1YXjlJQV9CySkgZzhzm2M6zZxCXmGYKOD/HOp5/c0ECgInT8lOEe+Rbzp2yHPSBcc+7IKDE+MDmL8qw/t/dRbb386wScMQxvy5EyBKqmTefdh46RQuu3YSS60TOHpyP02OT9BVEI/IjNGzZLmS0XgpsT2gDBhnA0rNADwFLMqBMyfe5M85vaEYjlxEx6YG1GhdTFPo+FTerkwcn8LlMRqn1GU5AeRiNKA5oOzyK210x3tw1yeuwFW31IFCjOHwFIJyhTqpgGEam+aIbGChVuXnyhECYc8Pcnz/GwfQOR5gob4RHYZXWDkyxtkwGhnd1Ww01HaMdoeakK+SpI8GracALjMS0hIXJ3tICydx6zvncf1tPH8lxohh1S+Vef0KgUZnTODXC1W+H5rQyciPpT3At798GMv7U0xXt6FCbdkbCmjLsAlE36mDdYuVQKBNkA/PpvEuAu5nShnzU4CT3XtJUOufJDsCkEDsx2hM+aa1nmRI0UTcuIvYft0Y7/nwFqR+QlbR7/vrbBlMEFvUb8kYHtHqpkWM6GRdP+K/ebE4wNIu4LnvdbD32RUCcjsLNka94fPzBIO+QqFFcJURjjOyUcE0cfRHoi0PDiVXLz+FqUtauOO9C5jaYKHQ0I0PaUPoflHm9QOENDCKlvGwgoLxJSOeVW03ZXSOAs8/PsSunSeQr14KyTi3oF4PPm9URBqR3XjvXiChJ+ifKV0E3M+UYv5XoMtUMwFJAXHEB+BrgY+EhwoLo0MppMaeyGkhmDqKO+7dhMtuarJgGP74eb8/4DnEih7GZAt1X6k5IskIOouhk78lhzBcj2BnHnyLjERcvfBkFy9+L8DRIyfgEChTzRmMBxlZdIAiw3gx8BjObfR6hAJBN7J4I/UD2PG+edywYxoj4qHI6/T7LVSqjH9gxSBAojhHqSx4kY55XqUYHT7fEBWvCiutIG0DJw5GeOjzhxE4C4iG6rHo8rlHaNb1nTK6LaBUOVtRXgTcz5TG6ZhgKRjX1u9FplmhXg9Y0AQYGavV7bP2W4isNWy73sI9H9tM0EUMn2OCtA7/tMlTtmdkwO5ahkaTCHPIN+kqmaKGcRjxfEUCwKYzHNOhAoG6GEil3T0evv/ISex7ISJJzsOjNiR2UTrdWtJqh/BKLsbWKhauSnD3LyygtiEjqDIyItmHF04oNj2+VBvboJeiViM6eQvj0RLZrUndmdCxMjhbLjVpSu02Rrkos8Ib6Zfx8FcO48mHqVXzDWiUeb9qQKRmrJZ9jKOLgHtNkwDnMWyJzRJSk9qq/EJO4d3BYEDBVJ1iyDqJuz84ictvm2VBZqZHISi6LC4K7LiHImMeVRhZQYVYIfLIKIMOvAoLg6yXMDRG/KxYIpL4VhTRvTLEuR4RmjeQdwPs3ckw98MYqwx3eeLw85CAHcIt1pCVDuCmd5Zw490bYRH8MSuHp9DOz+MoI3j47ahPNi0a/SYHHPVH/E4Cq8IvWj7vj2AMeZcMtQXKANeheMz6yKMmK0UFy3tD3P/FQzj2fBEzjc3rzN45yWebW8+oV0wXAfczpZR0k9MOinAYxRj2qJEGS9RVPYYpFwt31vGOdzVgl2kAsh4ZsAyLTKF87o9apv/UtgQcoiyrmVD1zOOrOHV8BRvm57Hlehv1eYKAQBZYkzyi43X4c77BWDuOVgiABpHv4tCuEAd3tXDguWV0VxM06lMoL/TwwU9djepGmoj+Kf7eYcib5q8J4qjDClLhwdgulDMMYmDjmcfaOHFkFfOzs7jqTrpRWiOxtF9SmJXO46XN/SrUegR4j9qzwAcK8PS3Ejz01f1I+z4uvXQbuksXGe41TWoGG5OBpJWKzPNWd4D+8BguvXIGO97exMS7Wvw8YCGVDCiTfICBAdokPJsCmwCVq7N5tMhO3/7KERzeFcPPp5FFDq679wiuv3U7mltYsHbndPFQQ4X8t/RilcxIwZ8kXRoE0kpSx7PfPoxje3JcvnU7LvkAtdeIN+YHIipiZES26hImJeK3asyNIqui45iE/MAX9+PQ8yn8jMyUFtC49knsuOsqbL6GutHuYpgNUbSbsLKA90er4eco8OZVH6xcItZF/4CFH34T2PnQELNTpzXDK6aLgPuJlPo9aiZmLkOaQycq55YyX7OUheJZ1EoU5dTWKsxWtIahfRg7PjCLOz68wAJaomvzGPqaKk/jUh03JvjEJjxRTrS6fawdcfDsd8Y49CQ/6dZRIT4SlkN3uEyn6WF6c4qbGRKvuIuFV5EDyTGKi2QZFzYLXB3+EoAe3Yol+NE0+IHL6/L8fVImnUGcElW8X7XNDUcZqkW1E1Jz5gzd42kcfirDY189juUDwERtE4okOz1XREA65VVc87YAb3t/Bdak2ul6iHjvRdawhHmhy+iZxH/RmPniBBjxNo8fXsZX/7cYc3Nzpp+40+6zgtEV00Gbnopxzuss83d0tWR+kPl1vpD6Ug3iJTJqODLF8LqmCwpwihStNgW+w5pM15cwZgZega+ZMdTGIwKvUMmwPNiPuUtcfPCXLkVpnpFpNEK5ERBwnR8BLtP/WQqJfKHf9jMc3J3h0AstLO8nS4xm4REYETMdNo1CKSe41YAaoY/DaCyMccd7L8fcVby4m7B4Q5xc7mJuetYUeMLSSqKUWo+OYd3a8jp8j0Lfpf6LyEC2OklZxLlMg+Ohdxx46L692P2DFUz4V2K23qToJ07pdi1ew8rpdulkO8lJePU2dtxzCS69lbWLIIvSNitQQK06Xm/89XhfLyu58WCEQr+Iv/3cHrz4ZISJ0rVkR1YmPh+lKRk/RFcNibZDTVhgHlPL8vdqMFfbogYyKKte73RB9TSsnUqweYNPfeYxc3rMJOYYWWIwzBmKbHTtVbSjfbjzgwu451MbEfkrdJ4OjwJFszrcpd2ouWyyj9iRotthBmfM56OHF/HIf3LQP0GXS7eXjSX2bdPu5Xg2QhqSbGRjxML37WkMOgW88NxRhtOU+q4Gm0CsFpqmCWY4pOjnbzxf+o7GgGbA4Qf9ERmlytIlwsfhGtnFYigliAnsx7/+InZ+3Ser8b3xPEoMlSFZrdOjHyYTN6cCmgcG4HaMwG4gjabw4q6j6KwwVM6WCUSH56RWJcBjutHhIGL++KxsfYzGbVRqZNXCMi6/eRuaNE+HqQtHA9/cp0jedejeydSuummYOSmdl1yw46wztYyYpMbrnS4owE03bayuMhNYeLVagfqMNZ8uza8kWO4cRP2yAX77v7kOG28sIbJWQFNIcsmwtNZHo0mdZEwFM1ANdUwJkeYScFbq4+De4zj2nTlUvDLKZM+cFJjTQLgETcbYNxwlBAZNQ9UnW7BwRgHdXwNLJ5Zx9MAJVJwJ1KZZWDFDPYGkxtb18uHv+TtbTRkMS8vLS6iUA2o8MlBcxdruFA9+9iCWDhTROeCjWZxGhVTe75C1WRGqdRoEhuTVVhcBRapPOlKI9AiQerGJwwcXcWj3MUyVNqIxRRNEpvT4HT9IMAxbKJdZQWmG2v0hyatiTNHMdh+XXVXCansXK2ILbl5De9VFULZMSJaPSigL8ozP7LimsVpZJsZ7vdMFBbg4ZgZWCCYK5JgazKuwIHpH4DRO4v0fvxI7PjILn7rGzENQR5fAxNwrlwL0Rl2GmYL592kkGIZzbf6bTHZk3yqs43PUdiEjUYIyGcMiaLo9NVcQ4OUCmg0HS0tDMia13KSFfndME0Bwjiax+8kBQ+gqapU6CmSTlKUzjkeGMRw6AWnN1Il5ngrZk/qoFWD/90f42l/sQbK2DcOlCcxPkV0Zw0Y0PmLhEsOnCEeDL0fDEJPNIiXFAOWaz+tokOY623nZAnZ+dxUdhs0tc6xYlB5Z2keBMlPs1OL3KsVJgsdHStD2BodRnxzjilu3ok5AHjmyyOv5BBnFAPPGUvjk9W3mlcKosst0kb31AEeXl+TMcAphPvxS9yC23RjgfZ+8HPPX2HAqXUTZGKOR5h6wNoM5z/+3rez0aFz9H6urAVxmgOXIYaQWjh3soLXL4cuIHiJFmCeIyXK2HfC3ZA3+ZnGljw2bysRxjuVVhmu+7+ZVjNr8Dso4fvyQYR+BrDHjEyzmorwc9RABN0oZRskyvRMWvvrnu/D0t1uYDK5FOnR5H/wiTUNE85C7DKOUAurlGI5SGiUyK1lxpT3E3DzDPSKCaJXsVeL1CaBVi3qshJMnW9ShXRRpFKZmiUiiJCOISqR6aTU9vhquPd63xYpm03hNbKzgsiubRoqMBjHCrGsMVUAdpzkVanGJqTFzOguLFfj1ThcU4ASiUjXAcv8ERt4B3P3hzXjnpybBKIShwOikCFxmlF9goVOBsRBHwxiZcVoldNbWEARlM7LWMlVX/QWiQ4sM18aRnXSTPguUBTYky+QU6TWFJOZzr0fGaFILkvHG8XpHvIYENRsFNMhE3S4LCTWcWlrFiwdfxG13bUFGXam2sowlqPa6QsBrxj4+8/9/HOHSPCr5Now6OeUBdZufsTL5ZBiXhU4LkkTUbhbZ2YfP+w3HCZpzAU4s9jBirK3VqgYMMh5q2FXPSIn3PurEOLR/EV2CcHqyhkCakb/PbTK1FaJIsDnMozyTMXAJyByZN8IVty3AoWuNoqFhTodhVvKOt0HA8V7s0FS+1zuti50LJOlmFpeHzHgbH/6lq3Hju6joC3SEzEg7KBEYE4g1vl/clQ7o2Dq08wFZoIRnHz+MVqvFzNPIC5YUoUDu4x+WBgsrZcYXy9PojyW0PYbuCoW2D5IlOt022WBIhzkiJ6oritxJuzgxUTPhr03B1ZwZomSVUPM2Y20xpIOmmaFwD6PQhG6N4E3VrcDwmA2rsMMpM+ml0WBojk9hbL1IgFPvSacVS6xYVTPHodPr8BpdlIKMpgNk9yqZrUkQ8bnIpFEyxIAGpFgfICcQA6uBcn4Z9u608Bd/tBtPfnuJF4yp6+hiyXjmXvjALl2vBnXSiqNQJ8s7Ca69u4ptlzNEUxdHdNi6XQFZ1cb1lGevfzrPgJNIeOVDTskr5AgaLrbe4iEqrAorBBRDGkE3HvBfNAIpVum6qMMKdXT2Ad/7fAtf+be7ES03GSYYeu2+spAHayxrrkJNwXEwYGGoPW+OjIU1HmSt4TBBr9JBdkUHl78zwpX30PFdsR9r1iEcXVGIB2p+nRToMtCRzQjgILsWbkWuVX2pVTJuYvSRQ0MidtW8CI/XU/iO+WhWPseQtQ0ddcgzElb5neIggb06gAZ5NMlUrWQMq58RTKCx4W3z3ymFoaYWlsoTdOpkZrJhLxlhRIHbLNExd+bovFdx/78muz21wLpZoOZThQwZQhfRy5aR2DyP/iNdJmXg+g97WLgqZz6Q1nltdQ36xSIiCcPzkC4ohpNwXf97+sXLE98r02WpodPNpk2j7bPf7uMLn9mN55/oY66x4/QXz5DIYB5Dm2keY7mMWMvtYhs33DaHu997GXbcO4m7PrIZH//V6/Cej2zF1qvKBNmQrJhT75ElzjE1J0pYaw3R6kRw6Uxn5ppkujqWW2OGcYZ4WkVNwJZ7TZICwqGH9lpK85JLmdKMUCBkJbpp/ovMXLTrZLxJHNvfxdf+ehU7719hpWNIJbIa/ixcunM13KiY1fd8IaQLCnBKLwebXr/833HYZmz0cPT5CN/862U8+vUWhovSSpsQdxqnv3WmJLqJKazJLi5rvrPKUNXBjTsCbL2eHwctVvkuyhtCbLkmw/T2EWs+jQppSyNqzzUlEYU50e56PoYEzNoAWKUsGKSrqM5YlH9d9NIuQ3BquvHMLDJqVZ9iVaaoRPrT5G2NjtHwLA3Zm5ogaAtldOhuH//KADu/kePAD1mpYpeApAEyloasrHmPF0C64AD3U9NpzHnM6eN7Ovj6517AoacYMMebQFWl0UUon60bkcmhLjLDggZjFjoLskTWpMaqapCF2yEcFdqZJdYYhYkemhsVcxgWeX0t/3CuaUCxXqMDz70cnWQNY+8UJrYOcct7Grj1ngquvBPYdH2M0mwPsavh4wSWlZL1uuj2+f1RTDcq4Z9R+I/RWh1j2HdhpZQS9jxD7GY8/701fP3zj5mBmw4ZbtiPMOhTn5I1L4R0wYVUw2jmWH+t/370IbWck9URdipwKMo1Z9hS80Y6olYarn/vDEnNKA6daZ4WYKsB1avStZIuGF4HIXUcJqh1KjyqcDRVkO4y1axpyR1H7Q7nlore+gCCzugEZi/LcccvTON9vzqPO36xjKvfaeHtn6zhnZ9o4rq7bFQ2LGLkHyIoTyAtUUuSfSOboZ0PbRXJcnTPVpGaLg6x0huhRX1br0u/UZPSUg/oQJJEPTQu3XPJtPddCOmNwXAvpdRCnZGzVpyDlTnIqUsqlQRucYzu8NTpL50hETtqOisV1xs840Rd4OslUQjqGI0yM/s+oVbS2h86Yr6nER6FwrkDToM1+8MeGvMxdrxvkiBz0LyE1tRjKPfoYsh4lQ1DXH93Dbe8fxI331PHzfzerfcu4LYPbcdtH81x/fsHuPZ9fdz60ZhAzfC2j8W4+cMxbvoQZcDNwO33zuK9H7sFldkiQqLb1QQbjfg8XW9/3umCY7j1v6K3039fSnrt5lhluRw5dtyMsp2csin8Q/RVu5tbTn/xlVNu9Zn51EWUM3KficYLyUHw1Aqm5WLfjLPTYVnkQxZWnpbNhJZYDVbnmniezGrh5h0bMH8V/+316Sf76I4TjHmd4dhHpvHphQRbri0SaE3c8qESbrjXwY33Wrj+AxZu5HHD+zNcc88Y17wvxC0fcbHjkwXc/okCdnwcuOYDIFinUZ3ltRi6NXdjEA15bg1h//mnNxTDpSyeck1s46PTIfhaDBkUxoE/RXZiQZ0lqXFUoz7UdKFphrlNl0oQa5R2ojYCnIQ6/c1IE/7bczS9sKKIS+Y7d4ZT/6vrj7D9CqLeSWkaFon1IsP7NK9RRNGfoEYrot0jQJIOEquLxKVpcQlMN8QwLCJzq9SANZJ9lTKCLjor0kEH5kDzFELnBAZYxQhjM6jBY+0q+D6KotcLIF1QgMucEcNYkYAgAqhVcmam0eo2ww7f18gLBjoCrs6M1FTBBGnE8Oh0DCjSbIicMdG26SAEGjFK6iAcDMySW64zYTrlo3ho+ljdtMb3MrrBiL+f5Lm38nrqAdDJ6tRyPThOSa1asJJpw7g/wbpM60aDf9f//GSS/vtRZ2WEVbpPb47MuYFwdvqolDfDQwXemPdPx6xTK+Q3KjUG+jLvqcbPeWQVDNqOCcnmdKcPVTGXv1G3mY4BJYftTKHgTqJAnapJ3DqczKVM4IlNZrqmpyaSE+Zv1PArt5tEZ6+wr0V6QzGcupsMPZkSPJ3MSzU3UFAzwy1fM58IVr6vw2ZJBIWy+eznnaQdSdMGLJ1un+/QcfLfQaWODqXCcBBiNByb3gs9T5ZHhLMmC8VoNnLY1uCMR8lxmEOxAaK6RfVbWGL03EiJHyeDvJ/IRlM5zkN6QwFOyRBMbvMvwaUpVXrPFpOkFMgUZ/x8FA94xBhGCfqjnqEC9wJYl4NmGvnIRX8VqJfVbphCk+U14rjWnESpEsAveGRo3jIrii1kEkBx0id4+GPNgzjDoQGhUgbheMjQPEQYt83AzZxgVNfbTwDsNDOfL6C9lN5YgHspj34U1jTMh3/UZ8gj0Zgm/vW9FIEXMQTF6xOEKcpiuYSfdyLhJMMAzzx2mExURhaHvOc29Ro1GpkoDNd4nzQ2ek6GQSSUEKMyw2ITdkLxqm66MxweZvn4ZeTDAsNkiZqwZEYap8w4BtD1exC7GSC/lF4C4vkB3hsLcAZcOph9ZLeXcGfa0uk24wHfYEGpZZ3Bip9oACbf4xfNZz/nJNmeDit45tFTOPpsDwWnhnrRY/n3qAE10kU6TQNJA6wcjPHkg0t49OuLeOaBMfY/Cjz74PiMx6HHgD3fy/H8Y6sIW7xYXmI+UPvyyIwUUXoJWOeX2V5KbyzAWXSKdJZaKvUlulvPRgkWB4dfHCNluEJeRxZ5yEKCL5vA6BRwaNfPv1lAC99UAxqVcCO++6UjOLkzQ7xaRtWZJySmWT80y9/DoSdi/OAbi3jqWy08/90xHv3qMr7+Hw7ikc9Vz3jc//lT+NbfHMIjD+zH8QMRkoGK12NO8cI/Ud/Eai8B7iW2u8hwPyWNCDYJYQKPoVNtZSblYgkbR1+w8ORDfYwXPQR0fwUegxM2dn63j2O7mOk/5+RSYga8jeniBiztnsCDf7mMr/3pYTz5lS72Ppzj+1/q48ufPoEHPnsUB57kDzqb0cAW1PJNKCWzqFCrnulwRnNwolmG7ipKnk8dKDhpCVmNGDmdDNBOg+vl+u0nwuzrl95ggJNGU9a9TI8xn4x7ZVpobMXj3z2Cz/7Zo/j65/biazz+6tPfw+MPHcF84+wNw693irMVs4K6JvVcMjuP4dIsTu6u49GvreJ7X1lmqB3ixB6GwNFmNIsbUciK6C+T+LoElFtCwXbPeMgEl/g9La5jmlBYumrmSQg4++V59vL05jINQsNpkPAYaNVwiuM078N3x6gUaNdZs6LYUsMGFoPv4O7fauEXfnMKYW+ZMNLaHiOMosg4raFGz847+Af/ciO2vm8Vy+5B9J0EBa9EDC6Ztd5q8Xaku6/H8oOb0X/0MjTX7sCG0tXIrAh1lyFsNGYA5vdpWtvZIkGQorvi81oD3u3QGJJRJE01QjQsw7GPMgQWUfOH/Jz3kbBUba1Y450Gu0J1mYX7UwpU0wdN+4xe+8jSSZSrNYzSHL0oh9YNrnp1NO2t8PrzKEXTqJLTCpIIWgCO7iGo5fCr1KCefOqZj+X+IZQmgOXOCF1JWIJOWwL4Y95D20UUHuObId79K9O47VcG6JSOYW2YgtmGKgEbayFrNZ9oGCEPTecd5zFCllfm8Zlfg3ReGU6jWjUCt6BVgfIia3uCQdxFYXIFVuMQfvW/+gAuu7EJq8yQWKwhigos0CJra52ADFCqTqCnnPRzvPODW/BLv3cFyrOLWOwfRalZR2t1hGKhgOmZMlw61HZnGe32AJFG4UY+AenDKxYwtPropHsxtW0F17+9idqU5gJkZAPfLB9R8IuwXA+VCgspypCqwZmu70JPGya3Yul4iIl63YyeCUcddAfL8JgnQZn5X5hFp8f8cy3ccOckPvXbDNmbWlgbHYVd9FH1CXQ+/6AXmnXqVIkCjzrYqSBNNGr13NN5BRxLDw6rUIcOSrPMy1M+etYx2DMH8Im/vwlzV2p0Bj8QW7hF+BrJIXZgUtDU8lzVqlYYp9V3hqhv6eB9vzyDW941bdhqZqaCzqCHoycWef4I1XoVfkFT60ho1E8dnnY1Og5n4iju+kgdv/j7V2HrdZ4JOZmWpyfgNAVPaczzDAZmyWfYfKtzYXRFnjFpvR071gqcwP4X23S9ddTKNCOsSiLbMStPTZ2sNBKx1UVpoY2P/OZG3Pa+eZzqHcbKYrI+LL6iPmRNVhrSMVumbznnuV+LdF4BZ0UV3riNUoO1KE+wHB3Ejg9uxi///behsnmAzIlhFYgKE4JZ2fhS/ZoKb2GyiMzumwilxtJBFKJQH2P68hFueX8Bd310MzNtJyoTIRa2zMIPGhiNbbMAjlYPb0cttJzv486PTeM3/slVuP7dMwiamseghmEbgebcEXqmlZ/Q81z+NtEIYbIciVnh5UJPxAdKRIwdFfHc906if4RvJqRvFnNmjWnkR4SejVHskPlGCBpj1C/p45b3unjHRxZQrC9RYqxR4gzgMwoV6ai1kjuzxJTHa5HOazZq7uYkK9zYWgSaL+C9vzKP2z9UYy6xBvKJegPpJBV3tj6Bl8ykZjSbrrRAirPsjqlqevZSQVsBFQmRHtxGH1ffBfy3/+ImlOdXsevgk0g0I2rCxzJrbhfP46odKf7Rv7gRt36I1bXM83fbOguxVqXO0SgNhqBkaDQeqK8cp4pxLzUTkjWhuvIG2HnIKQ0QJwNMlJtI25vwhX9/HDsfWEPa1XoiDI8O3arWRda0xNos87HCnO7Drvdw4/t9vOeTc6huaGGpe8T00sh4qI9Yy4tZrvLr3NPrP03wZXbb5gMcW3sBG6/N8KFfvwIbryGKXKlbgoyOLGXgVFvVsD9ApVQ3GTNaAU4eWKZLm6AWcQk6ujiecsxap62END1PYl4rSEqHXHHTDObn5rH/4HGcWDmEK25p4j0fvwTX7qB7a9Ly2TFshs0CQ63ostuOzEyvYsEzYbvoUqskDhZ39fHI1/chH8yjzO/SWpA5eC3LRS9dw52/QHWu+7Yj/j/DMVlQXVLgd57+3hqs0SRrMysH78+wNAvcMTPO/svTj9puXyF5/oAVxaOxYVjNfPS7NhYXVykNuphiTQ+qNvOraDr6h2ItMruZ6UUjYVmUKHNlNKYEQgfLy13mDVWtF6Bc0tjDMZ/z3LsHzyvges7TeMe9l+DGd86hMEVmCjQLnuGTDk5T+swaHyP6rVQTm8vonQAe/JsDePrhVXRPNLBha501NEWc9lBgJtia5EwzIW2i+arq5Ibjo1QBZrcUccOOedz4jgqFsS4xxnK3T2ZUH6aLMIzJoA4KRdesZTLgZ0FexngNOP4c8INvHsXBZ2LUgi2o8nzdfotepXBBA06hv1Qsot3VKlQu5mcK1Ms2Th7pYdgKsHGrJo+rcSkyYwI1855igmHTgZagZdUj6Ar8Xhlh3Ee3dwpu7qBoVWAl2vdr/Trnks4r4O7+VBXbrqyispFFXsjQiwYsEBcuPXgyzhm6MgJCAAiwdLCPh+87iCO7LGS9reicqGLf8Z2oT7iY3qTO+x7BSvOQuMwwn4XO13ZG5mOI8EeY2pCjNpfACsZIZERYm0ueNm8jS7JW2wRnGHaR0si4BKkMSvtUji//1bN4+hHqxW4dM5XLkI1UMHwM+hcrti9owOV0N1p+K/BDMleILNZSXhaNwwwO7B5h77Fd2LR5GtUZTbVsm1n/vl0wy7vmGfPPIztSvmgNkq1ba8yvAItHWugs+qh4PpLXQID9jID7MXh+WspTC34xNgxkpQU4gYVTo10obt2De35jARtvoetpaHJIQgFbZkFr8RUyk0Jbr0smoSbr2Hjym4v49uePoHW4hLK1EZ5VMoVeHM1j53dYmIMpbNhcg104hTA9hCRiPfXLpvC1r4FWEzeLyBGEAnRGIZLwmtoPwSL4GKgRjwfUKBOswUWs7bbwnb85gmf+ug60Zhk4ZhlUqgwtPA0dqprEQFCnmuml9jDruFmVPAx5PafI8EV+dvsYj47CKxdww+3zGDodHFtaMsalyPspaoFqjwAleyd00LmZPJ3zdxqAkLGyiF/4bKx8Du/Z0AkrhsfPNeZtnV5YUZhXr3Q4RLbW1bNy1Y6CuX/1z6rOVwsBosV57H3qKKLhKhYWtCITHTq/n5DpWZeMurH5WmP8pIHnLi9g9kqau+EpHF7y4capGe6lVaNUuaTvdPA213s1zgwPk15bhmOmqBtFzi7PSdF84oXtDm64Y47hkACraKUhWnJaPrlAi98djrUIjVYBL5FVgGcfXcXzj1O4d7eiGcyYhtaMHwSVASKyzdyGSRw8cgyPPrITMzNbMD27BT4zV8tOaQUjZr05fpz4ngqOtV+NoAqd4TClLptCtGzhsW8s4pEHjqC9xMqSnMUZJAEB4hJ7y7jtrlkW0hKS1DFreWiJVtfVyOMEUZpgO5n8iqubZNwujp88jJ6WS8pYwaQfGcYLRd4PgZXSMcahY1bZLJXU5OuZQZGmINVnzCNhvmqwi5ooziU5HnWuXcHxwzn1nYtt2yfgFMeIaDR85o/aHB1vyBxLkPKaUThAreKjHDQx6GSIVil7iCztB6Y70T1qKYn1iPHzABxrS5xqWfqAQpyhJ1rFTe+YpINkRpbATNOw7YDMxozWSA6rY9xnMvSweCDBVz99CAeeCZGsTqNsl9ZHrPJzNY3FSY+gmcDaag/V4gwLqInnnlhBPq5iYRO1SEF9FQqXevD1TFDSBiJan8OiFgmpbTSLPYiLePJbbdz/1/tx5AUyXqgVyWdY2Gcp0ERLMzDj7WPUhhMoNVNoxfFBmFI6Uo0OC9SWZFhqU815LdQybLtmEls2scDiJQx7RYyTEXrDkWlolnbVAuVav7qk1n2aJC2Ko+YgJbOFpQBHUCfUWZosfy4pz/n8PnVwWMPBPQmOHFrG3GwN9WlV0fUFD0fxMq9D80ZzpnF1RTr65kyN9xXh+LPrgNOhnNJKCaZiMA/W8339OmdKryngXF5VWz2qaUNrckT5Eq6/q47GRmYkw5hW9JGmUfOIFsiz1N4WlrD7ByEe/tslZIuXIEgm0GAJyIn2BtpMl2wQuGQBLamgwgjMIjNltwg3nWBt7WNpaRn1ko1yUz0TrJ+pqH+d5TRGzsl0TSo+hubnvrOML37maex5YoiKvR1z9Tn4KGDUI+uy8M+UatQ2csZxxkpVjbCwZc4M+tT2S93oOCoBdR2ZjkqSHKFpi5EJQeXJAJsvmeD9l8z2SK3hUWqtNXhBymigtenGWFpe5ec10+alpVEUVbXypqRAynCs5bVMaD2HNFkrY3lpxHvyUGXoP3HYwcG9y6hqQtICdTBZIYr6ZDmWE8qMQtqigEDUkqyBh+e/pdWm1kEndSWArYPs58RwCmmaO6Dpdhp86lWHuPK2Aqrz1C1aHFBOKFIGxwQRSzcs4vH7V/DsQ0Dn4BzKdKntNQ1KjBhePHgFGxl1zpjasB8lrFE2GVTr9o5RJPpU4dOkgH5/hH17j9GQFFmAFLcscq2YqRTzRiwyU3elh/v/ZBkv/HAVaW8a880rzD4LJ44O6IwjzM/5oCQ7YxpGXdSrWmu3hH37DiKLAjQaWpiGGtLTcPCUFa1PfUq9Y8kNV82CN9JspYaP2c026lPgkWLLpRVcSvab20TABmvk+xPUdQ2Gt5iakwXIvNCyYVqp0qI8MRsLv4oCPWNimJQkkLEqBgFmpnx01mwc3n8KzqCG6mwRlWqRyGHY5DVVnpr74NARORSzT93H1yakSrasr5r5UjQRw72a9NoCjhmi1RwHA96gw/DSGOPSGwqoTEkci33UkhuhqDhKlfrkdzr44QMtZK0FNBk73WqMEnWeR8c4HMfoxwOkfhcj/wh6+S6ygovZ2YLRFsk4MbVU7XHrm4Q0sfEyrYRZNzPbxTpqTpZydvi7xaNLePxLNsPxZtRKE4hJQOoqq1S1giQB32sRpGfuLx1lR2hQNMvdp570EQ90XgrsJKeWpLFRR3lQZWAvslIpDNIZU5dp0koYDenMU5TqOWY2lbDxyhlMbvYwud3G1itq2Kw13FpkRlbMscS5Vk9SoyTDrEYAa5EeOeFzSaNkDaViic/J/CUpJNYYda2sFE5h75O869kOFtR0wmIaDlgOvLzHexe79nsJXniAxfcjhiPb877MVlSnGe7VpFf5tVebMoY+zbZSn6T67rTIMnOJzkuNuqMBb1aotCTccxzfN0TcqaFZWn+45Q7ZhiJGzQ7d/DAmt/Wx4yPT+PX/9mr803/5Lnz0d2eRlulKrQHqBNZaSw2dEbZtm0BvzcF4qEZdFg5PJrApKwKzXhrvhZ9tmd+IAtlH5kNLjhpRzrBuMQNLFTrUs6SZuQ1GwBdZRpsmpuAMq9jzWAvf/IsD+O5nlzFaIdh7ZG6etkzsauGcWItP80aCQDP6eS0ylyfR5lJX+BRrGgI/kaFxWYAb7i5j5lLmV2lk7k+Fo9WQPDnPs+4yc/bUmJzEyeUeAc1Lak7vaIilxWWysYNGzcPJ421TQTXuMLd4D3wOk0yzyUvg+vFfpZe/fjXptQWclVFo8mmYQQQ9ugTQWL30qvtkE+33PlCHHwNIULEw1VQrfoOf0tuG++iIGhhQeCdOGzcy83/htzfgqjupXSbGcKrAJTeP8MFPXoXZuWmsLA1RLpdZG1MCLyaz8QtmSI+5kx8nUT0Bp89OLWreAP9JTFj22GgxhWitujk+6+a7LAYtvyrHyHOsLLWRjkJcMreAcnIZXnwswb/7/z2ARx48YhaL1rAl12kxvDOEawAcb822KjwLdRxUATVowGblCtEhk3dptuauKWB6s1bWpG7jD8QaGsChkJaJks8xra6CTFylMx1gtcv8CyZR8haMhizU1IfsodfR3N0B81aOVc+sUQs0XmKEv5N+EninX5wl/YyAU6G88jFi3M8L1FeUAY4V02nSbTK8MWdZ26lHeM8FhlM11Oq9QTdheA2w1uPDFqexGH4bl955GL/2z7bjHb8xC2+hzUc/Br9E8a1RvkEfwYYQm261MK6voc9Tj6kDTVmMe2Q+xkaNeYM29ZCTUlcUC5tPORj7qNAKSgdRUvGTMgtTLe90uHxT92dTX7oElPY3KFYtrI1OoR2TUd01RFkHaUp9yFrf7kdksAZcu8QCWQ93PjZgi/1ePPGXDXz2/7WGvffR6VEXVRi+EopD3r1JanJwcm2n1IGbd1G1Ejp13gWjQOQNce2OCRTKY0zUEvRWOrwvtSXT8TtFsxWnZjuO6HQj6lgpgALrmRWwoucjU3Gk/zIZGz7nMB1jyEqVeANY5YjMz3MxO7RQnNkohSixvYwh32f0YQWg3q02edJkjnBf7zL0zLTLnmlEVsXR9EXbIkUwH1T5FF5NhH2V8f61ZbizpIRhQTcqHWCuXOgjK3aQV1dh11r4vX/0Ltx5zxYjrElBrFcBM2OSICEz0KlRddBsOLTqPp2VHG9CzaSwyUJXW+cZlOuZPnspqb04oq4ZWkexGO3EOz5Rwkd/bw4f+4NJXPveMXrWAZRm2ig0pX/4fVYgLZs1GgwZZnMsrYwwM1tDHvn42796Bn/zJ7vQPdIg6KrIiQDT3JG7ZEYfwzU+Eh06rDpDWnm9xyTtmoGPk1MTZt5qtVbHoM+f8GeBxg3pHvmsWhlTlSmifBmNeF6eW+xUpMnSgAcN4lV1KxJUWnPYiiuIejzxBZDOK+A81jzfZY1RF8w4QyveC2fqBG77wAx+9Z9tRWM7w+4Mv8iCVyZrNIjLTNNS+NoYhJKfpeQiGoTqqSLbjMyIBrk5YfjloFr//enEt81n+thYPR3/eY2MKdbdAgNdZQ3v+vhmXH03sPF2stmla7j+/Q384t/fjmDhMNbiFxF7IYZibgGkUWZIHmGeLi8m5SU0EzXvBqzt3Ya//Dcv4Guf3WmCqNyqnJ1TIDhK2t7IN6HIdH2JLbTCAJMGPWpZMZWOKmgUaRdF/iW49XtTYQlc7dcQhdSqmTb7IFOT3W2XDEqZYUba6BT8vnr2dFwIibd0/pIyQB3F2kgjqNnYcc/luOcXr8RVd7HUagSQtUY89RgGNfFDI21TujstO9WH51BLxE10jgGH97Uw6tEWhOrA5+9iOqZYE4hf+XHWwSgVLKCpFE4fJul3FNFDns8pY27jPK58G5mVxJowGLZETdUCSvM9/PLfvwHv/eXLkFT3o2sdZ8gaoU/HN1Gt8p54SjJNrUItRhYupnzv5DxOvujg+AuUGnSpGttnKoAqCtlKC1MqTJULGTx12FIeqHG7UmkadtMyW7l2tyGAlBdaAFrg1POoQVvh7aV6NhLYpRckI9Dn77qUNmM60xxNtdJcAOm8Ak5JjZrSB6pyG7fXMb2R1bvQQy9cZOaqwdFCSK0QU6c4dJAFvqf+QBXOiWe0O/IYJ/fT7UV105CrhfbikLEto31/OcOJxF6WTEPwS1X9Faq7S1epxf8WNk4LadQ4moLiolyZgTZ5LpaLNDQRrqWh+bV/fDU2XN/F2N+nTl6sdSkjycLSqHLFberTnOeYn5yAP9qKJ+4negh0Rw3DSZdmpYMw6ZDdWvw33aEGgsZz2Pd0Gy2GZs/TsvoaGUibod1nGD5N993pSqWKppCua2kRbbMlus3QnJYYDUoYDFiBBjmGw5DAHaOv4c4XQDqvgNMwZ9dX5682yMjR7a7Sla6ZJpFqcd3BhRTuKTNXm5Jp8UAqaXQOAC8+tIRH7+9g91N9pBTj5aBsuoO007Na3JTUx6cksP1ngFNBqWfDhFMd+s3678yN8fAIfNhthjCt16bzqjEn5qGJOvqiwGShOz4Jf6aLj/zuVXjnx7cjrZwk8E5on1y0hzQveURwir1S9NoJOksWVg7X8fSDx5B26KztGgHlEzRkev71acHjto3hARu7nujwmZvQONCgpEb0BJUiK+GQ3jYI+DvXAE11a/1J+P9if3todKVaT3TYnhqk66jV62ZQRFHzEy+AdF4BJ9GvJKGt4TB1iuJKqQpbKyaNCxTNZDMCrVyomal0bYbPZ745xjf/ag0P/MUYS0djhF0XlcKEwYrwxaiCoJiQmbT60I8Z7j9L5jP+yDCcgKbi+slkZUV4eQPHDxLUmrk+0oqbNpJxmxpMrrqnaEiHWsOQumq1t4Kr7izjk79/KeavXUFa3IfQXiN25WZdDMIugZfTBKw3Bv/gGwme+jZNyUmeZMhrZU1mRhnZmsvQW8dj96dYPlYiAKeZF/wOny1BaLRbHmsQw+kKwqRIIc2pJgyt/Ts142ElewZhaRfcyUNwGkcxsk5ibdihq2aAVZS9ANJr2tOgPNIGExbDm9RqRNRc+TYblWmCidCOqV80aFK9Tqb9V8WnISUMiZYmDbxUc/nWwRfbePxbB/Hcoz2MlzZhyp+FXQgQOEWUyJKDTmhqu+NHcIIYa60TuOLtNUzMS55T5+QF3otqFMMvBfbS0SEWnxcDCjK6suray1/zu5EKtWDC4bFTS7ji6lmaCAJD+2bx/vyimpPJNklOV9xAsViSmaZxCHHVjbMMn1M4sHcZa4sMw0GBxqAIy6NRELZZMwJrBrt3n8Czz72ItvZnGKQ4+Hwbjz54HN//7nEc36U+S15T5ySjDgY9lMsFjPpkWv4+1Go4aq7ILWo1utN0yPvI0JjwMTNTxi/811Xc8aEF3HR3A5dfXue9DtBjpYioO9S7sN5B+8opmO3gypsb61VRjeLKH3Vz2WOEgyKee2BomHl9wxF+pDLkvZoy4z/OWOFPp9cUcEaHa2EVFlpKxxTm64CrTqp7hJmYakKuLD2DIMs+ojkI7T4BQ70TRLBo3ZM14Ht/3cHDf7UKZ+UyNKwp5IwR6lcVKKXyQtb41CaDZB1E/inMbA/x9ns34ZI71MygYUrrYNPjJzG1EK87u8XHde9M4Uyu4ETrJJbWBIRJ6iNmKMNkzBA/Rg+1ZmCmFQ5XanjyoQ7mGyVUm7x2cJxn4z0yUz21XZiGh9PXyMYsyxDBtIstl/vY9dwR+NksGaiHlMxka2y930U+pDulOwrGGzA4NI3FZypY20M2X5tCIZ5l6KyabiwT+XkEav5gTVW/sLBS8n20W0dpANQrYqFPHVi7/DDu/f1JbL2Ld1I9xe/x3ojWiJVgyw0+tl7TwL6DJzEKa8z7RQJDI509KgaHcoRVjeD1+PzqN/Vm1wi4qgGSsbeiWEoN244Q9guvCeD49fOYHDKfucP1C/vUaE5UgRPXCLQqHvjiEXzhM3vwzBPUSFaVuokZwWf2A4pngkZhxLg6lp8m4sT+EVx+axXv/OgWbL9V/aoDM4mZXMpDMWSEzGoj1fppai4o1nHdju34ld++Ae/71DyaWw7gVO95LHWPInFHmGjW6BClmUqYmgjo7hz8hz99BF/+j3uwvGcDK5J2btYWhh4d7YCmQtdRWyAZnO8JGBobp83elPcqgJcK4WftAvppSVGiXG9icanDCgjUZzO8/Z2XoFAm62UuQVQxf9WUElB0WgRStVHAjbdeBpuAH3dnUXKmiCWPecVI5CSmaUmro5NIz0s6v4CTEmLGa8aUmsNEhuFJH88/GOJL/+cuHHmujsW9NRSSTWiW6AwHidlLy6dLzRmD1U8aUpCfbL2AiS09/No/uA53/+IMCht4okqXoU1DmKpmhMOQgFBzguY6BHpPxkBPy1Cl71//Pgsf/4ONeP+vzWP+ygStaD+OL1K48TvqITtxbIUuM8ZkaSNaB6bxhX/Xw87721ijgZEUrZTKdMm8P/Vj8UeOXSLQbBToZOQwhTMZFc0bEBsYTXaOSabAJwuK4cfMx21X+th8PcM62UxbOMl0mcowIpMrLvNG7VKO6+9gyN0coVbysaSlI8jgpXLA/BmhXNTOhR6flzb7PKTzCjjTjUrg1OuyfBlefOokvvu3B/Dk/Us4+RQzoEdH5c6hRgeq8CzqLjEztEV2QhR0kuMMFQfw7k9uw6/+w0sxeTnz16fAZ1huJy0TChUJtFNetThBf1BCmhDkmjmfaZc+ft9SO5jcaAuFaW3xWMPdH92Gj/329SjMHIVfX6Uh6GFiYgJOUkAhp2NcIWjHVTz0lWP44bdXse9pqnAxrfQhtQ6rggGYbrpYcExXkZKZpELQrXd8/5jxXuk4W9KcD438rU/U0ekvYfMVBJjDMEkxICOWhbwur+WrA5ZJzTppwmfl25fdWMIq3crkPE9A3dsbRGhUtQKCQ1YfYHKCzH0e0nkFnELCessSqzsZ59j+NpYOpPBGc9gysd2MftUOd321abHG0tUbX3uytYpWuIbSxkP45O9ciVveX9RQM2RuFx26sLVBiCKB6hcSstsII20gP9a6JWQexpcsGxG8MfUv3zflWmZ4rrGmU99Ra85cAlx6K/A7/+x6XHcX2bRMe+xGCLwq6nSkgWnsAorxNhzdPcJ9X3wUlGcMXakZHq8hlxqvoNLWHAitXilWE4ikJQU2Cf1zTswzDQNXr4O0WKWiiMFaxuvqPQl8XZe3ZO7JtjVnIed3Q2y7qoI7P2bBmXgBeWGRZsjGqRX+hthc2KgV1M99cMCrSecVcCajCKFhSDE91giICgrurBncpxoaaNojGTCjmZBIZiXEYpcWv7mK2+6Zxd/7J3eitMCSNrM9RhiMxiiXptAsLzCHA4aVvQiCId1hAZEGci6LgSiQHRv9/nHJZFP4WincykoMtRVqHZ+FMsAgPoWs0cKNH5zC7/x3V2FmG3Ds+Cksnsox1aTYL7YxVS4jSOponRgpMiMKDa2xaOP1OS7yd8YIZnSRqli8zZdymE757zLa3z3OlijJTIGFrEylYgWtRVXHad6B9CM/4/FSJ7p2T8yhVczLplIW6g5u+tAkPvxbV2P7zdR5xeMoToRmm6WDxzvUeHqi1z+dV8BpP3lxVimg3jFzUD2stkK0iSyNJNFeAiEtfKGkKX9AJ1oi+2R43y9twts/5cEuh2Y2fajWXmZytThFf+Ai6tMh8p2KT+DFk1jd5eDLf3YQ/+b/+T3c9yeH0TkcoF7YSqBpZIgGNvIuWFad3tjMFhMjlQolYqJJkuC/m11cejPQmHcJXjpYVgYNoExJAgG1WqM0a5jBt6sEvSZhx6pGPCe1JDGn9rKEF1h3brwxvvdaJA2Y8VkhXSuCS+G/57k20GcoTDUhR1/gbZGxzcw0hXIWr6ZSFrRXu9ZrIaZKfKa7aZg++ttbUN10EH08j6CquRmmprzu6bwCrlzR5ag4NDiOyfYqqNQnUKrTrRYZngpkENKgT6aLqNlyL8R1t2/A1psDZP4e9MIRC9aCS2YSYyQhXaEGT1KoR/0Oxit13PfnB/Hnf7gHnYNXYcK6C7sfb+A//OE+fP6PjqK9PMa4R1BQa/mFmFqSLq52WtQTstqvVNq+nx/E1OYQreERM9RKo4q1bKmaLNIoRTxi4fERBFTNZ5ViGicCHBHB7whoL2+kVdJcjnNNNOpmbFy9GmA8TMwugsuHGTNGGoWzLhccDQfjTZAzGX75irehPBX42qsKyXxCr0/9O8BHf+NKfOAT16E+FWC1fUGahvWHeaUjJ0gCagOJWzsiIzkVFgQZgKyRpRL+mhSiWfUNI84ctaX1+ybsDPrMHRZ42BuxcHLaef4mWMYVNxAIAym/DRTFNBNUwAJFyO+or5sfaLgWOodSfP5/aeHoEyXM1rcyxHXQGaxholZGja53uGcaf/m/tPHoX3iI9uqCrO7UQRZ/nNgxOcrDRIFaLPXJajcw/ttks0sYNpN18e02JJFMG1ZNW0TrkV06aIsukdLASydYYSqgiTaA09ByJTGpWoJ0owrnZzoMYs5wWP7IXH/MfAq8Ok3NNL7/wDKWXlTzkkbhSMNSq/J+HVDX+pQVaR/dYZtRIUdj8gScQpdspr0nyhiz3l76Lgvv+4Mybv6VHvzm8xgy4phpgDRM2t/B1X2N6zRjQ/heyVTOiIShMjIDWXlraobRPrKvJv2MgDtzUj/pmHQg4S6dreVRU23UYSiemcq4qXXhlOjeMbOJOUeB3h3SMZaLpl+0QnqzY8KgHaNIt6l9Yys1OtThIdZsj+XMTE1OseYy82gGeieBR77cwl/+m8Ms+CYLocFM8hkifVRo+UsUNwUngJcVUPGmseupE/gPf/QCvvynz+DkC7x+PknZVWZoVfPGmZP2yG8zBC+tLBnnp1EZxjnKUASqBq9vkk5T646SmpXCkYtjNF0Pf2MF9/3ZMQyPka2XSxgeD9A5GphFbAp2hcanQmkcYWWZwKTrVrGHtPSazgiHZVVdw133zODW29+GYrVMFmQF1LJJImUdvKbt/vj5/q7efBXy80fptZ0myBCTajMLOjLHDsxQ8atvIyOovVTzKpljmtk9ZhX1/BTTMyq1iFTPY8VGzaO+4sNpVGqnHZJ1BtiydRqVGWoP9USwZtJXmkksLoGy/4c9fPsLR3D0WR+T3qWmNq4tU2slBJv2O7C0oEtK7TimOfGYyTy51sgYF7C2qtEaYyxsmEVQtlEIAuYrmVTzDsi8KbXZU9/MUeS1zArgfDaPLKMFDfvpMdz50S18YM0v5X0x1rqOFnthLTrjUg/8/BySOvvFXYZN+CiOXCjZtbfmYfmYg307T+CZh1fxw4dO4PknF7FGU1GWbCk5zFdN6KkzDzSnjfmhxSGZ9xEZsFxkXrE8ytVJY9ailOUTKCjTDDEqqfE9IZG88OC68ZE+1PrKPwk8GZ/TL8+QTteX1ybJmAVBgVpN+z/pnQhFt87cZsH3FknvQ1MzPY2OSKjFqgl2vH8r7rx3Iya2jRBma2Q7AoaVaWaiCT/bgG9/7Qj2fZ/sM9zEkEoRExXR2lfGN/+0jQf+Yx/tQ3MoYQaZCWUhZmdqqFYstFpAm5q6WnUwNRlQ3B+m2GfYJJPWggk48QxNQAMsC/5QFZn66yxpaYUulzlmOWRpgYj3qfBjVszkf6930kqcZtAlw6Ym5Cik1QoWjxKqkimrEyiH27G5cC2ms+tw5EkLf/uZ5/D9+1aQkt2UHOqWwNNUy4Rl5LASkA2yBsadmpnaKR5zA422HtO5U6uYoVyay6GM+jG7/fiv+fOq02vKcLq6GEJiWrJVO6ioM316Q5X6hoyHUwy1VT4sH1dLPtDVqYtmct7D/IYKlk6cNA+ZEaANGgmxzvIpst1agtVjDF2jAmtwh7plDSf2ePCjOVQJcHV0K2QHBRdrfbXZHUNeXkReXEKY98gMzDK6yyThNclympeggQRT8zYuvZ3ah84uQYd3pf0MzsBwpF8NQx+kK3j7B+aoqVgIlAjKc0s0oPQ6MpzRq7xaRu2pXoI018qdekcNzMCWiQLGAwvdDm+X75cLVVbEKsPuKnY+doLaLcP8PO+L+TRklCn6msDEe2NdM213fBCtc6IN8NSDosV3AkcjWoCDz3Vx/BmtzfJyhtP9/Di9GvC9tvNSqeH6fbIRC6hE/aStvrv9IcqlEhpz1A+k8ZzMFjPkmQEYBFYcDQk67c48xoatM3SrmhuwhNXVhLWqQg1WoAMt4ti+IY4f9HDkhSHiroXpRgP1GrUIa3tPk1SYAd3hGPWNEd72wTJ+4R9uMUPXZ2fLvCcHx45oQvKY4AyMW1bvhFVq4eobp5AxNDraGgjqE31lwGkH6dawi7FzHHe+ZxN1HA0FdakkgKcWa3WPvI6AkwERrrWYjENNZfF6mpRj2xoRbOPo0SUUyyWamvWGZ3NfNBlFt0kTN4FDxyOcPNFGlHXRaFbo1NdZTyOsbXfA+xWgaP4ydfBrVfQJBSms7AEe/Mo+WP2p02BbB52SQLZueF4d4NZ/9RolXVhrUhhHqlpjT2D1eAnPfr+HfU9QL7RJ+znFrMV4Z0nHqZE3ICgHGGZ9VLcD1757Etfd3UBtYRXj9CCFLZmL5647DRqEMWbq05htzKK91MOppRX4NWq6yS5ODJ/ENXdn+MjvTOO6905gYB3AyD6CjTcHuOcXS9h43RjNyUlmroM+AZrQ0Ajomj8hbRedNjNnSmvDPfAqq7j0qpqZVJzmLYIzgdbAPR8pF6BZYqY5xilTlzZ41M0YQs1fnd48B5eVcEi0dc32l1o6lQTOckmGZOe8jhNHVxAO+qhU+eB8P4q12qdCad8swSHMaCFI3ybz01MdfAp47MEOlvarFNbT3w2n+vtqwKb0mjKcJgmXi+q4dmkMYmoFvqbNXG6tYvfenQgoWjdsqxBoLT7LCvPO53eZcQXt6VnG8d5h1Os1s3Dehulp9NsjstuIf4eYmSyjPjPGsDNAHmo0R5H5VcLK8AQ2Xxvgl3/vMlx2Rw5vIiZ4RqyxdV67zpout5Wj3FjG7u81MRxpdz3VhiFKzQhX3jKFccw7kcngGc/EcNuuyfDeD27EzXR0Xm1ApiDg3Qq/7yMMe3SRUtyvo2lwSVlkIBkwTV1Qpc40Qvr06wGvs8K8GqkbsMpnVqM1aS5PaMjKDKPBSXzi1y7D5ZqvYXeYNwWaCalP3mOq9kSVFxmOVBrzZHufXcU3/+Y5nNoHzE9cTs2q53nlkPpq0s8IOF3hlQ9TYFKdfHBRvPnLo5hXUY634YWHQzjDAAsU9n5Z66Ct95kmBKh6FiY1DJridDhOUNvgYNM1PpaHR3DsVBfDaAqjTolhrYSYofnYYD+c+eO49ze349Z7aftrHTNCIo/lyEq8Lh1cv2NMjKO2q0GAnQ+maDSo+TSKl5E/CLq4escMXIbzUUxNyByUHpIB8VkADz/6LDrxEia3reLW90S47ZcWENAxD0kF2i/ftqf5Oz43KcKmRrDpqi2CYddja/wStQ81rEXa1+IxfqHHEEczRfzr0PzwTJTCcOi42io8QY95JQ8Z0+lLTxUp3jV5XBpq0EnoHFlBc4JCuc38UlQjnn90aHRwpRRipllC2CrxOcvoUPdi4gSsTc/hN//5tSjPqAKur1+i/lj90Ozow3wfJHvI1nXYYQGPfWWMh7+8jLw9g4nKBsrc9ZEvmrgjmn2p7fClcPpq02trGs6SinSvu3btZSjsY2F+BoWGhvKEzDzWHNauYW9Io1A2GkW1xyUAt2+fZe2cwIFDLzIzp7HU2Y/i1Co++EuXMVTOUhvy4Vkr+1qVm7+V01KyHRYirb0G+I/aOW29j8MMD55HHcnIpLDU3JDh0h3MYI+xg4BRHdHKmONxDyeODXHy1Cp23HET3vHeecxdXUdvpKXINIBUdckik4QsIC16qOYg6iiFZYbn5x9hoQ41DU3LmfpkJFUqPhOZXQM1zW6HBFMQaBgk2SpkRBi4qDIcFqgFzd4IBISWhdXIXo2zq9ZtA9QzpeGQjFwok6E0EtrF6rANf2IV229y8YFfvBq9pI1CUUOYXHQ6Y5TKqjQZn6Nt2LNobcDBpwf47t8epWZmhLJmaBomCC/eJfPmZwXXT0vnFXDjaIRN8/NYXW7gySf2MOMTzG+v8HFYyKMhquUm9Zzas9ZnPqUaSWulmJ4LsHl7Azuffha337MR93x0A6YvoWB3tZTCkJXUpdar8HVOE6ECpa1PGX5oWiynCo+s99lPPwIn0p4FKYW+wyNHoTnCFTdWSHVq9KWBIdBsZwwttTAxPYXtl23E9mtseBpg63XoUgk2Zrw0j8VQFDFcqWsroe1VWXiiHJLGc9Ss1rDK5zjdNsXDcjXEXAtii6U0bpnn4TmMuXXUlhciGjA0DzOzHJkccUEa0zzTiKDQrCyy1RmSViAtFywCz0InWsT0pdpSoIob3z0Fp06GZGXpD0cEjsvKS4PEiqelHHxNbGIoOvytIp56eA2HX6C5SmZR8qvME4Vlgp7fWXfJ55bOK+BcZmCrRb3EfMzzJg4dOIqIMXXzpmmGnCILUCs0qnlDs+w1ZW+9x8IpWiiUIux45xYsXFowE1VirJpVJBXOIrX2061aLDht7JFELEC187k19A4BD/3tClYOMRSzIDREuhAUkTDkFpoJtl9PVioSJXQPWrJBLk1uU9oroO5R81Ns0xkT2FoPV4M6jX7hLzTuTaCKCTgzeTldRRZmePKho9RAVQJHM3EcakZqNw2SbPE71FOa2K0HFUtqOTLb4736Nhoa7m7Otx6yhOJcDX8Epsvzm5s5QyoVElZcVl/enFYz+PCvb8bmWxk6/SFWacy0ipM26jVLv+YJ1lbaaFTpYFOG0AeP4vufjRF3y6gGG9YX/WGdlTZUvr4WaxQr8WnOXxoPyGI11RY1WNqYCa7G0w/6+MIf7cHoMBmCQq4gsGVDsuGA+oXsRzc2ooBPJAarXdjlAaoTNbqszSwPrQlRp2jOqNvWl4eJ1b4kIT8q4xt/+Tw+++93YvVgDaVsC3lTAw41f1V6RxUgIDMqYKgtjVmRUTDlJbJQjUw7IijJNubO1cdQQTyKzRRGgYgoMsc4HJu5s8pIjwD3eM+euudMTeH3aED4P37Ga5W1YDPvlVFN2NHS9Z2OjTUCsdXxcXR1DS0tdM3CVb+tMKfk2h6Ps1th3+/xnCtwCO5b3r4FU5eRwdJlPgMruTdl2t60+oFNR6plbKenphCv0oV+CXjqG1Xk4zLclGGWmUNCNYxWoVnVlMc0O3vX36tJ5xVwtWqVoU4zkRLaeDqqY6z4ozmEJxfwZ//qUaweZqb2qGsyLUUqEW6bWhZTiBeKVXTCZQJFstoxHdhG8xKk5aCBgKXopE2akwae+VYH/+n/eBrHnmNoHcyhvUiFyEycqBfIogmWO12skPoia9WcT0kjhRnByVBamkrDrhtm/Jna7hRSeBVeVXt4MffFUPyXQp8WiRbLZZr1nK67UMeeoCFSm1aJ72uldT4D79VlZUpU3GGfeopsWFlFY0sPW27McNkOmqbLuyhvaCMpnUQ3WVYT2Hp7JX+/urR+n2dKY0aLao3XsFcxv5X5oxE3fC4tq1HmrVWo76Q7M+aZZ1EP747wxT/Zjx/ct4JaNI96g6DjM0srqjmqZDpUKBdIc1oC7bVI5zWkJlr6h1W73eobQTw9tS7U++0IRXsDnn1uP6qlSUzSoWrNNn7bkIQYRPsklPnZgCyjpgt1zktPDTt0vhTJaukPDwL3fe4EnvjWMoFLR4kZAqnIEM4wwzhTZGjuDFdQqEeoLzCcXgfMXcICsCIDKDGRrhlS+7nUgUk6IGPy/ARgQffDMK215Z5/bg9m5yb5fVYJPoDCrI4xCzaJLDz72BGGqSLvXWKcrGjROHjaObiMoWbduyzg+SEuv8nDjXeXcN07bFx6S45r7pjA5dfWCTIHq2vL6HV6zB86cz5bLvNwekGbV0rZuIgSjVk3PUVtOklTxnwtuWR2OnXqVvUguDnZf1zAi4+OcN9nX0TnqI/Z6kZTIQda6Z2hXsvAapS8uhjHY4GWkYcV+tWOCDlTOq+ACyPWFGqsZlXdUQGG0SkyAUOnN8HMUgiaxou7nyf1r2LDpiZDg9b7iE2foTqbx1GJLqxA50RFFZ5iKO0yg2voLEW470uP4b4/OwE32oSauwFRv2QmD7uMD7ZDB1sKsbZKsLpruO5tm3H7O5u4/G0NOB6ZJKVItiYINBkGzWxnwdKtZnHfjB723CI6qxk6axkefewH+MLnv4h3v/tdZv00tUlpmVV1w2X+cf6NcWTPSUxUK5iYGqAxQWZp2qhMdjCxkKEy1cbslpiAqOPat82iuYkGqTjCIFrCGEso10tY2FqmW51Ee7WPSM/PkC43/FKIfaVk0yEPyKRZ0MbNBG9llho0oTRQBXKoP/lMHln4ie8M8Oj9J1GItqBZmKO21RYCKXoEmF/kb3ihdjthWJXrpeBgBdASZme7/qtJ1h//Ls963tKZL2XRIQ7jImauPYmP/Dez1FA0ArYaJBU/ye8MD6PxEoKAwj0uI1qrYff3gWceHmHcKTBkW+h3QzSpExUGzEqcpQBLnTHUx3r5ew/gznfeiOltNCjxEkYMlzIWLvWNmFZ6jZKdB80KX9sZHWxoo019eXBvgj1f43Wocdbsffjv/vetvB2GX6/Le1sXZQ7WWGn0ev1epfdFCmFC10mh7jHEaYSDHLJFtGq9FGWJckXi3As0H4MaiwWsJpP7P7cb+x8qoTScR4Vif6yad4ak/tPMsbAc7cOv/pNLMXMVn0jtZryHWI6foHP5bPd/ehmHH92EBh1tyPgp15q6Ie/vx70Jr1c6M0dfaIk1tFicQdyex7OP5PjCnx3FfV98Ea2VLiaaFPCszdIemnUfRVW0Bh5OdI9hlgD+p//vDfj4b96F6c1VlorLkLGAenk7C7ZODGihGYYbFobWEklHLPSwhrxr4+lvjfDXf74bD9/PeH225KjA5K+HiPIhAXw6XHvaxY+i2yEAWFmcUkZQsRLZAxqEDiVhh//uGD0osPmBzEgHt952BYEyQqlKySA6fROkNxbgyHjtYxG+9Jk9eOhvhmgdnMdE4UrMT89iOFpjePMIuhhji8Xr9ODPtvDeX92Ij/zBNgRbjiOkYSGiTI3XzDAth+UwXBVcQiQ+ASsiOOISClYVi7uBT/9vu/CVz+zGaHEOxXj7+j2cISVRhQKd7EmTI32Xm9nr4sGADOZQQlATJTZCxqw4o96jZtJYZg1QdTTHleznk9mktZwgQnOeRme6Aq2GkZMh3wzpDQW4fMSi6LpYPMhw2WugyKJkVKBDZThkqai1vkwnmlVfxCXvOIbf+ueTuPRuAgtdusM6/IKLzmDFzGIq1zXHQthjYfO/GjWT3aujTaD99R/uwh/9fx5F3t6Ea7beiIbL356lDUyJvoGhWfMs5FALzFzRbYHXIKPavFv1pJOp1IeZZTQpWv0STYb/ScRh07RFKqz3eH9GsVHIB4HPsJeZ5cLeDOkNBTgrqFDEqk3Jx0TdoxDW+mcd05EdBFMYZV3UNg7xC795Gd71axuA+iIG+Sq8Yo3spm0ZtfeDR62npgxNyuwgHoSIOmWMlmt4+PMd/NW/e4bsVsLWyR3IBiV0+TUtgyCPd7akpjJFPi0BYSOi0O4hHLbNb7WLjPaX0IwrX91uzHm1MavZwnTjqcWbINNwKy3rr4ZorV2ztqpZZWRF0zD2xk9vrJDKux0w33tdjUQNUa2kaE76pllsOAaqW17EB3+lhsY2j+FKk/foVCngx6OIzlYnoCPk0e32GVL5g0SLGpax/4fAH/3PP8ALj4coZ1eSzeaQDC1smLFRIwu2WtRYztknCkfJUYKnRdxoWa+UwCqZJSGgEQ0aY5ZqecOY4ZOHlle1tPYJz+uwxnhkbX6mZWbU8o+4hj07e3B5j9E4NU0Vb4b0hgKctiCXLq/V52DnZQIvxTjK0erFZtL0vZ+8HEMWoDakdZwGC50GIWWhF8mGNAQjsqHGjtVLm1CIN+K5b0X4zP/3AO7/y4MohFfRRMwQJD4mmwG0UPWJUwPjIOfntU/r2bOqQMeLrI6Te4FjzwYIT3pY3eVh6QUPJ59L0NtTQ+v5MlZ2+egc8xD1GXatgNdIyIc0GuHAdPvxJYZH6b6/dwx1hvoszFFSS/mbIL2hniLXurXUa+HYxcoi0G6pX7RkxrJZLoFHoFUmStRnFfS04C5TuciHVPM5SaZS4o8ZwvY+NcJ/+qO9ePhra8g629Hwt8HVfvzUTCOG2BbDmNYgaTSLGI1CnDpFEa/mjrMkLQM7WrLx4JeX8Cf/+jl8+l918On//TA+84cv4C//z93483+1iD/+X1/En/3rZ/DgF4/j1AELVurwudaZWH2cuk8txvjNr+5Efy1HRHNbK7rUh2fvaXgjJAJOdfil4/VOCguvfGSRR5fG0KP111Kbf7WeHDNabXDWgJFnDh4LxPVPYWJujOk5a30eKKPTVIWqbJFhUlKHv60Wq2aKYqzVjeTyBjZOPpXi6/92N+77wyMYPr0dc+M5NPmZneYYZyco5NVAHGDE348JgJBXH2sQANmuwtCaMiCrN0JdWlJ1NrNM3W+a6qQJ2hoEUGAEtQcOtvrXozIoYsHbgmnrajTtKzBdm8VC40o0cC3aL07gh59r43v/vo/j30gQP+Wj+9AUdv458Ln/dRnHn6JFHW1BxooUM086vKaGVEWphXHMgM3XNL7oUuj1sjEitciEBDA1a6F8Ep6dmM2FsySEBgJ4NDF5pkoYwaIBCghurU6Vp2Njdixzgtc/XVAMZ0aeqrlAjbZ0ZQkpJ1dFOF0XxuOu6W6xrCrCUcF0M2kQp3oTUlLBwWfHOLyHP+T3LSwxU9fMtOnO4RDf/+YyPvd/HMWxXSVMNhYwOWvTZKRY6UdIqKlq9XmMCnuRlPYjmD6B0D2AlfZhAmkMbYS2rGVSzzH1x1osW3MQNGKkgNaKjeef6uBrX9qL//jvd+KrX9mHnU8cInPLZNShTYfNuJSMiM8Yegn2AonWL9Ctj/sY9LuwsxzloIiyFlXko1s23TaPIaOA8lNrhmhiTH+oVc2Vlypym/msfNToGapGnv58pQsKcMqQ9WUSyCIKLXyh1zqUCjUHY36gMNfva84kAcda7toxQ1MP3UNb8fXPHMeTX+pjdHAG/X0LePyLET73b4/hxYen0MQ18MabEHerNBIxUm1GW2khrywiLR7Fvb99BT7+Dy7B7/3zy/HJP9iOjVfnZv5FgZV/WvOHzzFpxEVGOtYz2jQHTl6Dk26gMbgKTnwd0vEUfHselcIsK0vRLD/W00pSYu3co9Pu0AEPGe7H/NzFTLOOhcmyaRpqLfJ9Aqc9SBEmjnHLKt0o1MT0ARlazTFiY43cZRg/XYkFOI2MN+P2zkO6oACn5d81eEb7dCqM2YpfP0q61QR+KURzU4bahiGy4hhrXYrtYY5qYQ5ztRqCaCOe+maKP/5/HMWf/stjeOE7JTj9S1BMeE5msjZmqzcI3qqPHsPRyDuKq9+R4rf+b5ux4foApY28TDPBzFXAre+eRmOe4WykBQ7NTZxT0oI5vqu16myGZWKIFUbNJWp2aVRcgqhBHbe+2I6S+jQ1QLNC7zM1tV4hbX6oJReErn6XRqRNsFB1TNVL0CSrhOHUKg/MjjZaCsM3K5+fDpdmzJNLxxtoiB0BSLtCxn2pQp+PdIEBbn3Sia8GUt6Zq4GLfLFe+WystFYxu6WET/3W1bjkNlb75h4Up0fwqiWcPMXa3VuhI80QMGRVvTKaQZ1ALIEeAu1uF5lmx5cyrIZrOBnuwZVvD/AP/8dbcfuHtyJ1T1AXATHZchCtEgldbLq2jM2XFllGa+vrmJxjSscMb6n25LcJPoKe51Tzm1YjH9CsrK210e2OzeI5euiA3wmKRCVDouZAeHYVw26GbjsyLKWRIOqr7TK8toZtnEq/hrffW8bv/tObzZp3nX7fNAFpPRbNllPeSntq63NFBkWQKIpMKDaNguchXVCA02QX1WKtbSEdpl7J9Ukb62mqOYvRuAOnNsJdn5jDx3//WlS3ddDCEfhaDqKsQYYU312CkNQhlmy3O2AERrVeMxuctdIXMX31KfzSP1nAu3+9hr67im5/DU6wgNWVMQvDQyko02xIEDEkUVSPkjZG0blTnCZhy2wqfGl8pk9AaRFFrxDCL2pTYjrVwGY4pD3xxGbSsBG16xC9AZ9bvR2JZzr/E4IwdSNkpVU+exsT2wf4jX98G669qwLP7AUWo1jzUFVDIlM0Vl5qzBEMuBVSld/rmvn8gE3pggKcehFU29tt1nQNj1GhMxm9QdqPxwlrddVMxumwVrtTY3z497bjQ7+zGc6GZ9AJhwy6WkZ+htpFG6NR35TrBEyMXjLCuLIX9/zyFfjI716N0sKAzu8Iz8VCqU+gw+vNTBZY/3kGjdtjCFbhuM4k9c8sHG3ld46p4NPxilkIunAcYdgfYdgLEQ7oREfaL0uDTsVGGg60Pg5N83yLBa0PUjdM32y4mJgKzBTFxeEuWJPHcdu9TXzin27AzDaG5CodrMbgEZBqDRrFoYkcPvNWYbRHxltdWWOl5v1Q/GmzEZsfmKH15yFdUIDTCpnSFC2yUqetaXWhYQMBLmYOeYG2AOJrFlihXEFQ0cDGETZeP8Iv/6PLcOdHCZbyswyBY6N7iiU60XQR4+AxvP0jQ/zO/3ALLrmJhckyDcqzvN4WYqomLKPelF5U4ZNJHJ/XKmP1CPDYI89j6WRkhlqfa9Ji1+uyITfdc5pbofm4mtTsoGRGN8sICVjaQ0sjc80S/v31Q/NCuz2Gz84pVGhi3vWB6/CLv309Ln87b65MPaqdBVNN5QvMKOmUwDUbFDuamDMweTnoDQ3ra4k+Ys0ATmx7vpLzsZv+x5cNwNSj/hwTLx/GDCI9G8uHbVTcWUzPMfMDZpjVprYqknIYGjQhONUcUI1gVUsYDYHrY/aKMS6/YR79qIvdh/YhKrRw2/tmcO9vXoKFa8mWg4JpWkjdUww51HRa2oBFfZpAjbbRGnZgIbcOefjqnx+HP7oGk8USQhZ4nTF6qbOPYfg53P2hqxA5dJyssiOyVIlmoN8jSxEwR3Z3kAxGGJA1tU+W9F/MWhMwhEWJDbMbtaf5Ehn1Gv/yJNL1cotpGpLlB5QDOXWeJ/lmGqQ12Det2Bi6i5i/NsLdn1rApTv47IyYAppHKaBGZEMhjtoyI9Nvm4yYTwynWtPl+NeBH341R+uYg3JZDeaOmVcRJSkKJY0qViG8vsn649+lxftR+vkCTjXODFhkJvfjFcqVRcxts3D92zbg8uvqyMstgiNgqNGyXacTv58zYy0zA4AnSFmoLQLm5HoBTm7i28QpWACm7zJWza+YjnY9uKUxa/mYmc2/A4bNsIJHvtHG4988gsnSVjRLNaRDDR+i0GdpDgmEduFZ/P4/vx59a4BqVaaGF6JrVL9ouFbCZ//1M7Bb2xAkVcNaHerOibkiVk+1GJ5rhtnEZEpyoeNwhH6/SzYqkEnrZhQLIx+ZvosKQ6hXSLG8cgz1zat4zwdvx5abKE79hOFyzThODSHXGicO9W6YEGAMqTIjLniiyMWpF4DvPvAc3M5G05wUhx6Ni7r++LihciGlQVkfQv96pwsKcGR7A7qSdC4zrNNvYRgvYnI2wKYtU7jhw4kJpQXqLnOrPDSIVgMz1R+pvbI0clehUU0o60nxIsBgqF2cjzA8z/N76/FRu0VbaZv0I71Wx7MPt/Ctrx6CPboMjSJBye+EoyWalRm0VtbnoC6PlzEu78E//hd3wmdYs12yHJlK2ouwwMrRAF//s2NIjm9FuFLDxgUtggMs0oEWSmr0IThiajDdIpMGjDoewU5azQl27UmhfNCE7swboBfvZ6UZ4467rsQVd9Z4ryM+3RAWb1kL1ZiMgmaVqQoKxVqwMTHj+sKOhye/1ceLjw9QtGaxtLgHjcYMmbNhrq+9VgV4sakZOEAn+3qnCwpwysTxQBvZSuO4rIXMQirs7PSE6GxmFbfduR1X384vl2kERtrqx6MWmzMhUdnPEiEIu8xA/YbPYzKxbKYHOpr/RgBKJzqMH1pDBGMXux7s45EHDvA1NV1IRnEZBlmstZpa72O6wwoNCytEcAJ5qYPawhC//g9uYc3Q9dSwmvB+i4TBKZTyBTz0haPY8+gIVn8WNbdOgZ6TCS067MTMrNJijZXKOkf3+9R1Wchn8Fn4Lta6dK08b+Z3SU4ncc3t07j1rhkDWq/EpyS+NJ91EK4v/KjtkdSWpwzQrH7EPsO5hb3PZHj0/v0YEfRT1KthV3faRZUMK/PQ7zFv08zoXGm4iOL4rQe4knov6RPHOV2cZlO6KBfWgSfj0OF3uqMjmL1kiHfcuxkL11BoJ32MKcZLlTp/qaHcYj2ehZpGzSrasNbVyt+KMRqqFA8ZalWb6ziwk4XylZPUazbD5zzBxkJlnmcaLez76Knr0dLOgCPqyBjT1+/HjbdfifltJWidxf5g1YRIQV2AVIVR2Y/XeCwyjH1tL47tjsl9GwiEklmVU4ysBWNcfz2mJhG1E3WEuuhOdYaYnPeRBSfR3BjijnsuxdQ2fkkkxmM8Yv7Q5qrA1JKh/eYL+qF5g1quk6C77OKxBxex/6mIQNuEIvOuT43p+RmfrWjARu/BUMrnZGapW0uAUyPwWy6k9uMl1FmAPrWMxoApYwJNz+Ntycb3Q7rPeoFhtsfvHsflN03i3R+dRjAFtNcOotjQikmaXU6GUjnwyXQOzwkNu2nhHC2tpSmD939xH/Z9P8AEroAWV++3B8jIRBNTRay0lxj+ZghXB13tKVHcS+20DXNXJ5hYmGThKx6mpr1QWy3Jiaj7Sa0patDVum3JcExfU8Lep/t48rtLaC/RMYbzBKjP+0sJVlUfGM2WU+z3+xGC+QFvcA233DGL695BXUGQRKwgWsZCzxLFfQJVYXm9yMR0UZcVkyHadwI8dl8bO79/BNHKBKaqG80y+2oacUsR826R8mGW7E1GlH4l2NTgK9cs4Cq0a5TK650uKMBpnZUxdcVY7WkMe67jU9NpficrMDOowILq9ujAtH8Wy6NFjTfCPtzyjhnc9RGGQ2dAM0CHQEsnplMNNiNr9Q/mcO6QDaOMHzdIB8CzjwLfu+8FxC0b2zdcglFLjlEz44tojdawNjqMHe/dgnd8YILn7MJlZVAjbMj7K5OtXHUFiJEjMhSZR5vPxakWaxZ7aWwJHyhx0TpBtnvwRSw/Q1lAprPzCd6XFizRc3VoNtZge0NsvNPF2952BZpaBVXdTlqNic+u5R48LRVK1GkPBrOHKsNzyed9ESS7Ho7xwFcfRe/oNC7begV8fl/TGrWalGb5j81qTBHln3asKRj2VoNvTKGopVQ1olh5/CPZ+zqmCyuk8k4oTVgr17WF4tMo1I53qoUegjinw5PLBDUMlTVZq0SdlTtjDOgEP/nfT6NQYw2uWEhYMMrUQNMMpU0IhogmQUsumDZOoZBVvHM4x1MPhtj53Q5my5vNTPcewR5MH8OH/95WNDb26Ja1wmSF90I/SHZQLqld0OGJNKJFDKEdBM0sdfOfJhtqjv36iA1NRdY1o33Ad+5fxItPpfCsBfPMcX4CV97o4J3vm4V/2YDPSqgSpIEoR4kXy6kOJertpG6eXe9paNSB58asMEewtJfu1t2MeZJtn8Rp0XWXCDSF4VHmIcwds+ZyOVAlXm/60f74amDWnq8KszIRwtzrnQi4l89LfdnLn5p+voA82/0dGyzhulsnyEoempcQY2QOYpQukEzAvwqzP2I9fj8cESyZJguTLZdDfOnTuzExE+DamzfgyhtIoSo0JuklhSD9TgUeZz0yD9lU0/5YaFrML42pIGlMqiWBTD0ePYZKzdiiYUm1bD0BabZPDHByf45v3/eEOfe7PnAL5i/h3QSapqhFZtY9r3pMtP2k9rIwEw/DAeoWjQjomKk5f/DgEvbu1CpNE3TUTTOEPuT9XejpTQU4b8LCcucEmewkrr99Du/5KMW6aYNLEcYDs2aauowyaiYqKmo7S6N1TFILfFmt/USUV6CDJRuMqJl0xfWdXBxEBKgGFoglxAd5ZKO9EjGkai0UXmrDCP2hmlo8utL1phd11blkSM0O06AkrVbpZgF6rfURydVmFQmBSPVAUIpjCDZqK9dYT7JtXz0EKcoV6tKWiye+u4onHjlkJv5oqyc3LdGyuGbhwgtlm/EzpTcV4Dpjen+60UKZpgN9s+HFjnfN4do7WfhuF0O6zVIgV6l5ohqEKJ2jcC3xon5bnZ8hkaDLeR6NrtBCNXp3TINQ9IkWo8vIfvz68ReAx75zAEcOLJP9irjzkwFuvu0K6j0yKU+pIUIKa9q7Yj2O67pDBB7p0lxPiSGP9+J60nYS8WRFNW/wNwKn49BU0Es8+RhD8TfFxryvvAiP5ijjKbQRiwK4Ov2RnabkCzi9qQCn0XQeyadD3KnzOqiOMMj2Y2FbjvfeewP8uRxFaj71F2kw5Pry/gxFGmFMqotPt5EV6DzVVKHegJeklJgmGS+jWd+KAU3Ad762iN1PLqPsTmGyQufKMw39IerTId5+zyymr+T95C2zdl1QmDRj25QMofIWEjMmSExGauRngqC6sWQSRsOjdJ28F3cBi88Bj97fQmexjNFxB+VShSxLoPHnBpxBZlyneksUui/09OYKqVS/aj5RW9qIDqxPI7GwYYIOkMbg+Z24++PbcdV1DcxpEn2lz//TkCMPw5iu11PsXU9iGjFUn45YM75Mg74Sieehr5zAD75zGI3gEkyUZtBdGSMNx5iequLEMkV4PUZWPoDt1+fY8b7L4Tdtuu4QBca80XhA8Gm/sHWAKQmAeqqQnxWL/G5vRCc5gWgFeOQbe3H4OVaG4TzG3QAbZ0vodWKal8g0Ejta4IbM6TiUAUXKBY0MvsDTmwpw2gNCbm4UDVCrF1FvBDhxMsXayhAz01WsjA7j8uubuPzGALOXJKjP8XnMmvcU9Dy1WFGbbjg5w6z6fDT+LGVBdnMcO7yIz/+746gWp+HmDWj7JC/XFkvmymYKouU2TEe4U3QQWm14tVXc+q55XLOjRID1YJckslwaAJvMSUvJFIU9hnnBjzZhqDkK2/DC92J8/8Eer9ugm6Urj3q8zZRg02pMDZQIWpp3htOYTK2+3HV54J/WfRdyenOFVGa6XJ4fuAjJKqPxGM1m3QjqFTKGsNUbtZAV1rBwWQFXv20Wl13PGEyJt9Zpo87CHI06ZMqU3+WbPR8n90V44clV7Hl+EX58mQG1tnJSP6YWLJR71X2pIwNOF766shjuNIQqtBKMLbLd1S7uumc7qhtC2GVN0h7S3KqtjjlKA6NV17NBjP7xAN994AAOPs8wnF2KgOdXL4sGQEdpG1FeMl1gWlRx0O3TvNCNN9fNSWstQlFtNhd4elMBToP7HVcd2QxVAgP/jqjL4rRjOs6rmDJ7ooYs6wG0Edcirngbhf7dDUxuyNDtTKyPEZNGWkvwxEOH8MLjY4Rrm1DM66jTb2ilcLW2lcsU+tJbOh+JS00uvt8h4LXub9E0Ast0OmTAcbKGVuskbrinhLe/axuqC+Qz7bvP5OZV9KgJH/32QTz7jRImmw3eg0dWixnabR5EG+9Xz5QTW+oD1bXqJEi9p+XJRM8VUq22IrvQ0xsMcGdLZ75/dearyUGb1GrDEMfTCGL6zrJlNgX+wN8robUIHN4f4fiBEVpLOY2CBy0m7fsOtH/8uaRWMkCp3sJVN1q44TatTww8/YMV7HqKhqPTRNNdZ6tXThd6/p89vaUAtx5ytQ/V+ve0XbfayNSR7tAptLOD/FLAMFfloQZbLXGvWJnyb0qhfjZAnDk5ZNlOr4/cbpk9YJX6XQtW1iRjVZC+vNPnp6aLgLvA0pnvP05G1Fp0d7aGXa8/iwJklmtSSYpBrNU2PTPGXzBTzwJRR2Zk3NTQpmS9//O/NGl1So1B034KatpQkqvWfqtahFArAJw5vfEBpyx9yyQDJDKZ464PPJTQV+e1FguMQgeNko+ir95PgoO6KZZ2okv06QpLJTUYn1tyrC4NDMU9daKaXnTotd7TZ2+F9JYCnEtD4ZhuqfXwmjK06q+Gh2uA5kiz8TVQgLlipvARDMqhMLIwGJ57VllJGdpcQ2sIx3HLHGY9Yb3Hz94K6S0FOG1OZjrbBTYCK01j04yitT40RKegxWgKCYJSbpyqaYrj7xT2tP7cuaZo7PCaGllSRLFcM4de6z199lZIbynAaUKWCE0DJuVY1bwgUJm/zIl46GA4yDHohhj0Q4xHAiZDobc+hfFcU6nKS/NagyHQ6UTm0Gu9p8/eCumtBzgCSEmA0zg2zRE1uyDrPTpUH9pzq0CG42vfhqY96LOXdik8lxTaPSTOAG4hRW2iaA691nv67K2Q/o5LvZguptc3vaUY7mL6+aeLgLuYzmu6CLiL6bymi4C7mM5jAv4vyI7FWmnf2o8AAAAASUVORK5CYII=;fontFamily=Comic Sans MS;" vertex="1" parent="WIyWlLk6GJQsqaUBKTNV-1">
          <mxGeometry x="-460" y="-554" width="63.27" height="58" as="geometry" />
        </mxCell>
        <mxCell id="fAT1gj4aSR1Pwk1sE-pQ-0" value="" style="edgeStyle=orthogonalEdgeStyle;rounded=0;orthogonalLoop=1;jettySize=auto;html=1;entryX=1;entryY=0.5;entryDx=0;entryDy=0;sketch=1;curveFitting=1;jiggle=2;shadow=1;exitX=0.411;exitY=-0.05;exitDx=0;exitDy=0;exitPerimeter=0;" edge="1" parent="WIyWlLk6GJQsqaUBKTNV-1" source="nKe8PpNvJb5CXvGMDtpj-6" target="nKe8PpNvJb5CXvGMDtpj-24">
          <mxGeometry relative="1" as="geometry">
            <Array as="points">
              <mxPoint x="-311" y="-525" />
            </Array>
            <mxPoint x="-932" y="-1150" as="sourcePoint" />
            <mxPoint x="-1152" y="-1200" as="targetPoint" />
          </mxGeometry>
        </mxCell>
      </root>
    </mxGraphModel>
  </diagram>
</mxfile>
